<?xml version="1.0" encoding="utf-8" standalone="no"?>
<!DOCTYPE svg PUBLIC "-//W3C//DTD SVG 1.1//EN"
  "http://www.w3.org/Graphics/SVG/1.1/DTD/svg11.dtd">
<svg xmlns:xlink="http://www.w3.org/1999/xlink" width="561.245pt" height="637.239062pt" viewBox="0 0 561.245 637.239062" xmlns="http://www.w3.org/2000/svg" version="1.1">
 <metadata>
  <rdf:RDF xmlns:dc="http://purl.org/dc/elements/1.1/" xmlns:cc="http://creativecommons.org/ns#" xmlns:rdf="http://www.w3.org/1999/02/22-rdf-syntax-ns#">
   <cc:Work>
    <dc:type rdf:resource="http://purl.org/dc/dcmitype/StillImage"/>
    <dc:date>2025-04-06T17:01:45.251377</dc:date>
    <dc:format>image/svg+xml</dc:format>
    <dc:creator>
     <cc:Agent>
      <dc:title>Matplotlib v3.7.5, https://matplotlib.org/</dc:title>
     </cc:Agent>
    </dc:creator>
   </cc:Work>
  </rdf:RDF>
 </metadata>
 <defs>
  <style type="text/css">*{stroke-linejoin: round; stroke-linecap: butt}</style>
 </defs>
 <g id="figure_1">
  <g id="patch_1">
   <path d="M 0 637.239062 
L 561.245 637.239062 
L 561.245 0 
L 0 0 
z
" style="fill: #ffffff"/>
  </g>
  <g id="axes_1">
   <g id="patch_2">
    <path d="M 505.56375 276.599062 
C 505.56375 247.477806 499.827497 218.639717 488.683275 191.735185 
C 477.539053 164.830652 461.203588 140.382901 440.61175 119.791063 
C 420.019912 99.199225 395.572161 82.86376 368.667628 71.719537 
C 341.763095 60.575315 312.925006 54.839062 283.80375 54.839062 
C 254.682494 54.839062 225.844405 60.575315 198.939872 71.719537 
C 172.035339 82.86376 147.587588 99.199225 126.99575 119.791063 
C 106.403912 140.382901 90.068447 164.830652 78.924225 191.735185 
C 67.780003 218.639717 62.04375 247.477806 62.04375 276.599062 
C 62.04375 305.720319 67.780003 334.558408 78.924225 361.46294 
C 90.068447 388.367473 106.403912 412.815224 126.99575 433.407062 
C 147.587588 453.9989 172.035339 470.334365 198.939872 481.478588 
C 225.844405 492.62281 254.682494 498.359062 283.80375 498.359062 
C 312.925006 498.359062 341.763095 492.62281 368.667628 481.478588 
C 395.572161 470.334365 420.019912 453.9989 440.61175 433.407062 
C 461.203588 412.815224 477.539053 388.367473 488.683275 361.46294 
C 499.827497 334.558408 505.56375 305.720319 505.56375 276.599062 
M 283.80375 276.599062 
C 283.80375 276.599062 283.80375 276.599062 283.80375 276.599062 
C 283.80375 276.599062 283.80375 276.599062 283.80375 276.599062 
C 283.80375 276.599062 283.80375 276.599062 283.80375 276.599062 
C 283.80375 276.599062 283.80375 276.599062 283.80375 276.599062 
C 283.80375 276.599062 283.80375 276.599062 283.80375 276.599062 
C 283.80375 276.599062 283.80375 276.599062 283.80375 276.599062 
C 283.80375 276.599062 283.80375 276.599062 283.80375 276.599062 
C 283.80375 276.599062 283.80375 276.599062 283.80375 276.599062 
C 283.80375 276.599062 283.80375 276.599062 283.80375 276.599062 
C 283.80375 276.599062 283.80375 276.599062 283.80375 276.599062 
C 283.80375 276.599062 283.80375 276.599062 283.80375 276.599062 
C 283.80375 276.599062 283.80375 276.599062 283.80375 276.599062 
C 283.80375 276.599062 283.80375 276.599062 283.80375 276.599062 
C 283.80375 276.599062 283.80375 276.599062 283.80375 276.599062 
C 283.80375 276.599062 283.80375 276.599062 283.80375 276.599062 
C 283.80375 276.599062 283.80375 276.599062 283.80375 276.599062 
z
" style="fill: #ffffff"/>
   </g>
   <g id="matplotlib.axis_1">
    <g id="xtick_1">
     <g id="line2d_1">
      <path d="M 283.80375 276.599062 
L 505.56375 276.599062 
" clip-path="url(#p20d822b605)" style="fill: none; stroke: #b0b0b0; stroke-width: 0.8; stroke-linecap: square"/>
     </g>
     <g id="text_1">
      <!-- 0° -->
      <g transform="translate(513.8825 279.358437) scale(0.1 -0.1)">
       <defs>
        <path id="DejaVuSans-30" d="M 2034 4250 
Q 1547 4250 1301 3770 
Q 1056 3291 1056 2328 
Q 1056 1369 1301 889 
Q 1547 409 2034 409 
Q 2525 409 2770 889 
Q 3016 1369 3016 2328 
Q 3016 3291 2770 3770 
Q 2525 4250 2034 4250 
z
M 2034 4750 
Q 2819 4750 3233 4129 
Q 3647 3509 3647 2328 
Q 3647 1150 3233 529 
Q 2819 -91 2034 -91 
Q 1250 -91 836 529 
Q 422 1150 422 2328 
Q 422 3509 836 4129 
Q 1250 4750 2034 4750 
z
" transform="scale(0.015625)"/>
        <path id="DejaVuSans-b0" d="M 1600 4347 
Q 1350 4347 1178 4173 
Q 1006 4000 1006 3750 
Q 1006 3503 1178 3333 
Q 1350 3163 1600 3163 
Q 1850 3163 2022 3333 
Q 2194 3503 2194 3750 
Q 2194 3997 2020 4172 
Q 1847 4347 1600 4347 
z
M 1600 4750 
Q 1800 4750 1984 4673 
Q 2169 4597 2303 4453 
Q 2447 4313 2519 4134 
Q 2591 3956 2591 3750 
Q 2591 3338 2302 3052 
Q 2013 2766 1594 2766 
Q 1172 2766 890 3047 
Q 609 3328 609 3750 
Q 609 4169 896 4459 
Q 1184 4750 1600 4750 
z
" transform="scale(0.015625)"/>
       </defs>
       <use xlink:href="#DejaVuSans-30"/>
       <use xlink:href="#DejaVuSans-b0" x="63.623047"/>
      </g>
     </g>
    </g>
    <g id="xtick_2">
     <g id="line2d_2">
      <path d="M 283.80375 276.599062 
L 440.61175 119.791063 
" clip-path="url(#p20d822b605)" style="fill: none; stroke: #b0b0b0; stroke-width: 0.8; stroke-linecap: square"/>
     </g>
     <g id="text_2">
      <!-- 45° -->
      <g transform="translate(441.648745 112.650943) scale(0.1 -0.1)">
       <defs>
        <path id="DejaVuSans-34" d="M 2419 4116 
L 825 1625 
L 2419 1625 
L 2419 4116 
z
M 2253 4666 
L 3047 4666 
L 3047 1625 
L 3713 1625 
L 3713 1100 
L 3047 1100 
L 3047 0 
L 2419 0 
L 2419 1100 
L 313 1100 
L 313 1709 
L 2253 4666 
z
" transform="scale(0.015625)"/>
        <path id="DejaVuSans-35" d="M 691 4666 
L 3169 4666 
L 3169 4134 
L 1269 4134 
L 1269 2991 
Q 1406 3038 1543 3061 
Q 1681 3084 1819 3084 
Q 2600 3084 3056 2656 
Q 3513 2228 3513 1497 
Q 3513 744 3044 326 
Q 2575 -91 1722 -91 
Q 1428 -91 1123 -41 
Q 819 9 494 109 
L 494 744 
Q 775 591 1075 516 
Q 1375 441 1709 441 
Q 2250 441 2565 725 
Q 2881 1009 2881 1497 
Q 2881 1984 2565 2268 
Q 2250 2553 1709 2553 
Q 1456 2553 1204 2497 
Q 953 2441 691 2322 
L 691 4666 
z
" transform="scale(0.015625)"/>
       </defs>
       <use xlink:href="#DejaVuSans-34"/>
       <use xlink:href="#DejaVuSans-35" x="63.623047"/>
       <use xlink:href="#DejaVuSans-b0" x="127.246094"/>
      </g>
     </g>
    </g>
    <g id="xtick_3">
     <g id="line2d_3">
      <path d="M 283.80375 276.599062 
L 283.80375 54.839062 
" clip-path="url(#p20d822b605)" style="fill: none; stroke: #b0b0b0; stroke-width: 0.8; stroke-linecap: square"/>
     </g>
     <g id="text_3">
      <!-- 90° -->
      <g transform="translate(274.94125 43.598437) scale(0.1 -0.1)">
       <defs>
        <path id="DejaVuSans-39" d="M 703 97 
L 703 672 
Q 941 559 1184 500 
Q 1428 441 1663 441 
Q 2288 441 2617 861 
Q 2947 1281 2994 2138 
Q 2813 1869 2534 1725 
Q 2256 1581 1919 1581 
Q 1219 1581 811 2004 
Q 403 2428 403 3163 
Q 403 3881 828 4315 
Q 1253 4750 1959 4750 
Q 2769 4750 3195 4129 
Q 3622 3509 3622 2328 
Q 3622 1225 3098 567 
Q 2575 -91 1691 -91 
Q 1453 -91 1209 -44 
Q 966 3 703 97 
z
M 1959 2075 
Q 2384 2075 2632 2365 
Q 2881 2656 2881 3163 
Q 2881 3666 2632 3958 
Q 2384 4250 1959 4250 
Q 1534 4250 1286 3958 
Q 1038 3666 1038 3163 
Q 1038 2656 1286 2365 
Q 1534 2075 1959 2075 
z
" transform="scale(0.015625)"/>
       </defs>
       <use xlink:href="#DejaVuSans-39"/>
       <use xlink:href="#DejaVuSans-30" x="63.623047"/>
       <use xlink:href="#DejaVuSans-b0" x="127.246094"/>
      </g>
     </g>
    </g>
    <g id="xtick_4">
     <g id="line2d_4">
      <path d="M 283.80375 276.599062 
L 126.99575 119.791063 
" clip-path="url(#p20d822b605)" style="fill: none; stroke: #b0b0b0; stroke-width: 0.8; stroke-linecap: square"/>
     </g>
     <g id="text_4">
      <!-- 135° -->
      <g transform="translate(105.052505 112.650943) scale(0.1 -0.1)">
       <defs>
        <path id="DejaVuSans-31" d="M 794 531 
L 1825 531 
L 1825 4091 
L 703 3866 
L 703 4441 
L 1819 4666 
L 2450 4666 
L 2450 531 
L 3481 531 
L 3481 0 
L 794 0 
L 794 531 
z
" transform="scale(0.015625)"/>
        <path id="DejaVuSans-33" d="M 2597 2516 
Q 3050 2419 3304 2112 
Q 3559 1806 3559 1356 
Q 3559 666 3084 287 
Q 2609 -91 1734 -91 
Q 1441 -91 1130 -33 
Q 819 25 488 141 
L 488 750 
Q 750 597 1062 519 
Q 1375 441 1716 441 
Q 2309 441 2620 675 
Q 2931 909 2931 1356 
Q 2931 1769 2642 2001 
Q 2353 2234 1838 2234 
L 1294 2234 
L 1294 2753 
L 1863 2753 
Q 2328 2753 2575 2939 
Q 2822 3125 2822 3475 
Q 2822 3834 2567 4026 
Q 2313 4219 1838 4219 
Q 1578 4219 1281 4162 
Q 984 4106 628 3988 
L 628 4550 
Q 988 4650 1302 4700 
Q 1616 4750 1894 4750 
Q 2613 4750 3031 4423 
Q 3450 4097 3450 3541 
Q 3450 3153 3228 2886 
Q 3006 2619 2597 2516 
z
" transform="scale(0.015625)"/>
       </defs>
       <use xlink:href="#DejaVuSans-31"/>
       <use xlink:href="#DejaVuSans-33" x="63.623047"/>
       <use xlink:href="#DejaVuSans-35" x="127.246094"/>
       <use xlink:href="#DejaVuSans-b0" x="190.869141"/>
      </g>
     </g>
    </g>
    <g id="xtick_5">
     <g id="line2d_5">
      <path d="M 283.80375 276.599062 
L 62.04375 276.599062 
" clip-path="url(#p20d822b605)" style="fill: none; stroke: #b0b0b0; stroke-width: 0.8; stroke-linecap: square"/>
     </g>
     <g id="text_5">
      <!-- 180° -->
      <g transform="translate(36 279.358437) scale(0.1 -0.1)">
       <defs>
        <path id="DejaVuSans-38" d="M 2034 2216 
Q 1584 2216 1326 1975 
Q 1069 1734 1069 1313 
Q 1069 891 1326 650 
Q 1584 409 2034 409 
Q 2484 409 2743 651 
Q 3003 894 3003 1313 
Q 3003 1734 2745 1975 
Q 2488 2216 2034 2216 
z
M 1403 2484 
Q 997 2584 770 2862 
Q 544 3141 544 3541 
Q 544 4100 942 4425 
Q 1341 4750 2034 4750 
Q 2731 4750 3128 4425 
Q 3525 4100 3525 3541 
Q 3525 3141 3298 2862 
Q 3072 2584 2669 2484 
Q 3125 2378 3379 2068 
Q 3634 1759 3634 1313 
Q 3634 634 3220 271 
Q 2806 -91 2034 -91 
Q 1263 -91 848 271 
Q 434 634 434 1313 
Q 434 1759 690 2068 
Q 947 2378 1403 2484 
z
M 1172 3481 
Q 1172 3119 1398 2916 
Q 1625 2713 2034 2713 
Q 2441 2713 2670 2916 
Q 2900 3119 2900 3481 
Q 2900 3844 2670 4047 
Q 2441 4250 2034 4250 
Q 1625 4250 1398 4047 
Q 1172 3844 1172 3481 
z
" transform="scale(0.015625)"/>
       </defs>
       <use xlink:href="#DejaVuSans-31"/>
       <use xlink:href="#DejaVuSans-38" x="63.623047"/>
       <use xlink:href="#DejaVuSans-30" x="127.246094"/>
       <use xlink:href="#DejaVuSans-b0" x="190.869141"/>
      </g>
     </g>
    </g>
    <g id="xtick_6">
     <g id="line2d_6">
      <path d="M 283.80375 276.599062 
L 126.99575 433.407062 
" clip-path="url(#p20d822b605)" style="fill: none; stroke: #b0b0b0; stroke-width: 0.8; stroke-linecap: square"/>
     </g>
     <g id="text_6">
      <!-- 225° -->
      <g transform="translate(105.052505 446.065932) scale(0.1 -0.1)">
       <defs>
        <path id="DejaVuSans-32" d="M 1228 531 
L 3431 531 
L 3431 0 
L 469 0 
L 469 531 
Q 828 903 1448 1529 
Q 2069 2156 2228 2338 
Q 2531 2678 2651 2914 
Q 2772 3150 2772 3378 
Q 2772 3750 2511 3984 
Q 2250 4219 1831 4219 
Q 1534 4219 1204 4116 
Q 875 4013 500 3803 
L 500 4441 
Q 881 4594 1212 4672 
Q 1544 4750 1819 4750 
Q 2544 4750 2975 4387 
Q 3406 4025 3406 3419 
Q 3406 3131 3298 2873 
Q 3191 2616 2906 2266 
Q 2828 2175 2409 1742 
Q 1991 1309 1228 531 
z
" transform="scale(0.015625)"/>
       </defs>
       <use xlink:href="#DejaVuSans-32"/>
       <use xlink:href="#DejaVuSans-32" x="63.623047"/>
       <use xlink:href="#DejaVuSans-35" x="127.246094"/>
       <use xlink:href="#DejaVuSans-b0" x="190.869141"/>
      </g>
     </g>
    </g>
    <g id="xtick_7">
     <g id="line2d_7">
      <path d="M 283.80375 276.599062 
L 283.80375 498.359062 
" clip-path="url(#p20d822b605)" style="fill: none; stroke: #b0b0b0; stroke-width: 0.8; stroke-linecap: square"/>
     </g>
     <g id="text_7">
      <!-- 270° -->
      <g transform="translate(271.76 515.118437) scale(0.1 -0.1)">
       <defs>
        <path id="DejaVuSans-37" d="M 525 4666 
L 3525 4666 
L 3525 4397 
L 1831 0 
L 1172 0 
L 2766 4134 
L 525 4134 
L 525 4666 
z
" transform="scale(0.015625)"/>
       </defs>
       <use xlink:href="#DejaVuSans-32"/>
       <use xlink:href="#DejaVuSans-37" x="63.623047"/>
       <use xlink:href="#DejaVuSans-30" x="127.246094"/>
       <use xlink:href="#DejaVuSans-b0" x="190.869141"/>
      </g>
     </g>
    </g>
    <g id="xtick_8">
     <g id="line2d_8">
      <path d="M 283.80375 276.599062 
L 440.61175 433.407062 
" clip-path="url(#p20d822b605)" style="fill: none; stroke: #b0b0b0; stroke-width: 0.8; stroke-linecap: square"/>
     </g>
     <g id="text_8">
      <!-- 315° -->
      <g transform="translate(438.467495 446.065932) scale(0.1 -0.1)">
       <use xlink:href="#DejaVuSans-33"/>
       <use xlink:href="#DejaVuSans-31" x="63.623047"/>
       <use xlink:href="#DejaVuSans-35" x="127.246094"/>
       <use xlink:href="#DejaVuSans-b0" x="190.869141"/>
      </g>
     </g>
    </g>
   </g>
   <g id="matplotlib.axis_2">
    <g id="ytick_1">
     <g id="line2d_9">
      <path d="M 329.446913 276.599062 
C 329.446913 270.605257 328.266264 264.669734 325.972534 259.13218 
C 323.678804 253.594626 320.316601 248.562733 316.07834 244.324472 
C 311.84008 240.086212 306.808186 236.724008 301.270632 234.430278 
C 295.733078 232.136548 289.797555 230.955899 283.80375 230.955899 
C 277.809945 230.955899 271.874422 232.136548 266.336868 234.430278 
C 260.799314 236.724008 255.76742 240.086212 251.52916 244.324472 
C 247.290899 248.562733 243.928696 253.594626 241.634966 259.13218 
C 239.341236 264.669734 238.160587 270.605257 238.160587 276.599062 
C 238.160587 282.592868 239.341236 288.528391 241.634966 294.065945 
C 243.928696 299.603499 247.290899 304.635392 251.52916 308.873653 
C 255.76742 313.111913 260.799314 316.474117 266.336868 318.767847 
C 271.874422 321.061577 277.809945 322.242226 283.80375 322.242226 
C 289.797555 322.242226 295.733078 321.061577 301.270632 318.767847 
C 306.808186 316.474117 311.84008 313.111913 316.07834 308.873653 
C 320.316601 304.635392 323.678804 299.603499 325.972534 294.065945 
C 328.266264 288.528391 329.446913 282.592868 329.446913 276.599062 
" clip-path="url(#p20d822b605)" style="fill: none; stroke: #b0b0b0; stroke-width: 0.8; stroke-linecap: square"/>
     </g>
     <g id="text_9">
      <!-- 0.1 -->
      <g transform="translate(325.972534 257.052493) scale(0.1 -0.1)">
       <defs>
        <path id="DejaVuSans-2e" d="M 684 794 
L 1344 794 
L 1344 0 
L 684 0 
L 684 794 
z
" transform="scale(0.015625)"/>
       </defs>
       <use xlink:href="#DejaVuSans-30"/>
       <use xlink:href="#DejaVuSans-2e" x="63.623047"/>
       <use xlink:href="#DejaVuSans-31" x="95.410156"/>
      </g>
     </g>
    </g>
    <g id="ytick_2">
     <g id="line2d_10">
      <path d="M 375.090077 276.599062 
C 375.090077 264.611452 372.728779 252.740406 368.141319 241.665298 
C 363.553859 230.59019 356.829451 220.526403 348.352931 212.049882 
C 339.87641 203.573361 329.812623 196.848954 318.737515 192.261494 
C 307.662407 187.674034 295.791361 185.312736 283.80375 185.312736 
C 271.816139 185.312736 259.945093 187.674034 248.869985 192.261494 
C 237.794877 196.848954 227.73109 203.573361 219.254569 212.049882 
C 210.778049 220.526403 204.053641 230.59019 199.466181 241.665298 
C 194.878721 252.740406 192.517423 264.611452 192.517423 276.599062 
C 192.517423 288.586673 194.878721 300.457719 199.466181 311.532827 
C 204.053641 322.607935 210.778049 332.671722 219.254569 341.148243 
C 227.73109 349.624764 237.794877 356.349171 248.869985 360.936631 
C 259.945093 365.524091 271.816139 367.885389 283.80375 367.885389 
C 295.791361 367.885389 307.662407 365.524091 318.737515 360.936631 
C 329.812623 356.349171 339.87641 349.624764 348.352931 341.148243 
C 356.829451 332.671722 363.553859 322.607935 368.141319 311.532827 
C 372.728779 300.457719 375.090077 288.586673 375.090077 276.599062 
" clip-path="url(#p20d822b605)" style="fill: none; stroke: #b0b0b0; stroke-width: 0.8; stroke-linecap: square"/>
     </g>
     <g id="text_10">
      <!-- 0.2 -->
      <g transform="translate(368.141319 239.58561) scale(0.1 -0.1)">
       <use xlink:href="#DejaVuSans-30"/>
       <use xlink:href="#DejaVuSans-2e" x="63.623047"/>
       <use xlink:href="#DejaVuSans-32" x="95.410156"/>
      </g>
     </g>
    </g>
    <g id="ytick_3">
     <g id="line2d_11">
      <path d="M 420.73324 276.599062 
C 420.73324 258.617647 417.191293 240.811077 410.310103 224.198415 
C 403.428913 207.585753 393.342302 192.490073 380.627521 179.775292 
C 367.91274 167.06051 352.817059 156.973899 336.204397 150.092709 
C 319.591735 143.211519 301.785166 139.669573 283.80375 139.669573 
C 265.822334 139.669573 248.015765 143.211519 231.403103 150.092709 
C 214.790441 156.973899 199.69476 167.06051 186.979979 179.775292 
C 174.265198 192.490073 164.178587 207.585753 157.297397 224.198415 
C 150.416207 240.811077 146.87426 258.617647 146.87426 276.599062 
C 146.87426 294.580478 150.416207 312.387048 157.297397 328.99971 
C 164.178587 345.612372 174.265198 360.708052 186.979979 373.422833 
C 199.69476 386.137615 214.790441 396.224226 231.403103 403.105416 
C 248.015765 409.986606 265.822334 413.528552 283.80375 413.528552 
C 301.785166 413.528552 319.591735 409.986606 336.204397 403.105416 
C 352.817059 396.224226 367.91274 386.137615 380.627521 373.422833 
C 393.342302 360.708052 403.428913 345.612372 410.310103 328.99971 
C 417.191293 312.387048 420.73324 294.580478 420.73324 276.599062 
" clip-path="url(#p20d822b605)" style="fill: none; stroke: #b0b0b0; stroke-width: 0.8; stroke-linecap: square"/>
     </g>
     <g id="text_11">
      <!-- 0.3 -->
      <g transform="translate(410.310103 222.118728) scale(0.1 -0.1)">
       <use xlink:href="#DejaVuSans-30"/>
       <use xlink:href="#DejaVuSans-2e" x="63.623047"/>
       <use xlink:href="#DejaVuSans-33" x="95.410156"/>
      </g>
     </g>
    </g>
    <g id="ytick_4">
     <g id="line2d_12">
      <path d="M 466.376403 276.599062 
C 466.376403 252.623841 461.653808 228.881749 452.478888 206.731533 
C 443.303968 184.581317 429.855153 164.453743 412.902111 147.500701 
C 395.94907 130.54766 375.821496 117.098845 353.67128 107.923925 
C 331.521064 98.749005 307.778971 94.026409 283.80375 94.026409 
C 259.828529 94.026409 236.086436 98.749005 213.93622 107.923925 
C 191.786004 117.098845 171.65843 130.54766 154.705389 147.500701 
C 137.752347 164.453743 124.303532 184.581317 115.128612 206.731533 
C 105.953692 228.881749 101.231097 252.623841 101.231097 276.599062 
C 101.231097 300.574284 105.953692 324.316376 115.128612 346.466592 
C 124.303532 368.616808 137.752347 388.744382 154.705389 405.697424 
C 171.65843 422.650465 191.786004 436.09928 213.93622 445.2742 
C 236.086436 454.44912 259.828529 459.171716 283.80375 459.171716 
C 307.778971 459.171716 331.521064 454.44912 353.67128 445.2742 
C 375.821496 436.09928 395.94907 422.650465 412.902111 405.697424 
C 429.855153 388.744382 443.303968 368.616808 452.478888 346.466592 
C 461.653808 324.316376 466.376403 300.574284 466.376403 276.599062 
" clip-path="url(#p20d822b605)" style="fill: none; stroke: #b0b0b0; stroke-width: 0.8; stroke-linecap: square"/>
     </g>
     <g id="text_12">
      <!-- 0.4 -->
      <g transform="translate(452.478888 204.651845) scale(0.1 -0.1)">
       <use xlink:href="#DejaVuSans-30"/>
       <use xlink:href="#DejaVuSans-2e" x="63.623047"/>
       <use xlink:href="#DejaVuSans-34" x="95.410156"/>
      </g>
     </g>
    </g>
   </g>
   <g id="line2d_13">
    <path d="M 358.15715 276.599062 
L 457.33684 199.337153 
L 342.768359 211.112229 
L 312.674689 187.743448 
L 261.611758 65.456363 
L 187.143374 109.17838 
L 222.565867 232.107136 
L 211.155475 261.157195 
L 78.929481 320.146433 
L 130.052763 388.305694 
L 239.7564 352.891311 
L 273.998582 369.889 
L 349.547842 478.938572 
L 413.699612 420.863032 
L 353.16683 307.481496 
L 358.15715 276.599062 
" clip-path="url(#p20d822b605)" style="fill: none; stroke: #1f77b4; stroke-width: 2; stroke-linecap: square"/>
   </g>
   <g id="line2d_14">
    <path d="M 328.51997 276.599062 
L 369.985053 238.228674 
L 314.43003 242.585132 
L 298.116391 232.549283 
L 271.619983 160.678264 
L 233.723783 189.858014 
L 246.127119 249.225388 
L 239.811673 267.248258 
L 185.056894 297.588355 
L 207.105979 332.323255 
L 260.78599 316.466993 
L 278.935046 322.921688 
L 319.987199 387.960268 
L 351.132031 351.374694 
L 326.585486 295.646719 
L 328.51997 276.599062 
" clip-path="url(#p20d822b605)" style="fill: none; stroke: #ff7f0e; stroke-width: 2; stroke-linecap: square"/>
   </g>
   <g id="line2d_15">
    <path d="M 316.403107 276.599062 
L 334.309659 254.112383 
L 305.719113 252.259586 
L 294.752329 242.902802 
L 274.515387 188.226188 
L 244.750408 208.95669 
L 254.919409 255.613361 
L 251.764187 269.788843 
L 226.046904 288.875659 
L 239.133316 309.054032 
L 267.34975 305.098226 
L 280.082371 312.005616 
L 310.810514 359.717336 
L 336.084266 334.662458 
L 316.576321 291.190351 
L 316.403107 276.599062 
" clip-path="url(#p20d822b605)" style="fill: none; stroke: #2ca02c; stroke-width: 2; stroke-linecap: square"/>
   </g>
   <g id="line2d_16">
    <path d="M 352.415189 276.599062 
L 368.983641 238.674532 
L 330.566171 224.664133 
L 304.372841 213.293908 
L 271.205327 156.733074 
L 231.658362 186.280601 
L 228.513759 236.428533 
L 216.377147 262.267096 
L 186.698889 297.239338 
L 207.968565 331.696549 
L 248.696636 337.406368 
L 276.812597 343.115443 
L 321.121767 391.452108 
L 353.940734 354.494075 
L 346.538295 304.530282 
L 352.415189 276.599062 
" clip-path="url(#p20d822b605)" style="fill: none; stroke: #d62728; stroke-width: 2; stroke-linecap: square"/>
   </g>
   <g id="line2d_17">
    <path d="M 341.812323 276.599062 
L 355.918575 244.491474 
L 323.144588 232.906635 
L 302.247761 219.834233 
L 271.96014 163.914637 
L 232.039789 186.941253 
L 235.117919 241.226736 
L 226.874904 264.498463 
L 203.662532 293.633604 
L 219.843766 323.068711 
L 254.312442 327.679507 
L 277.54025 336.192283 
L 318.796523 384.295745 
L 353.236827 353.712307 
L 338.995645 301.172077 
L 341.812323 276.599062 
" clip-path="url(#p20d822b605)" style="fill: none; stroke: #9467bd; stroke-width: 2; stroke-linecap: square"/>
   </g>
   <g id="line2d_18">
    <path d="M 367.008394 276.599062 
L 395.312008 226.952387 
L 342.170076 211.77669 
L 308.576451 200.35653 
L 267.901208 125.296487 
L 231.005812 185.150352 
L 216.255172 227.522148 
L 202.304377 259.275836 
L 137.18936 307.762913 
L 184.705695 348.598014 
L 240.118783 352.263645 
L 275.391157 356.639536 
L 331.073572 422.080615 
L 354.794784 355.442593 
L 360.387548 310.696366 
L 367.008394 276.599062 
" clip-path="url(#p20d822b605)" style="fill: none; stroke: #8c564b; stroke-width: 2; stroke-linecap: square"/>
   </g>
   <g id="line2d_19">
    <path d="M 328.664465 276.599062 
L 337.229543 252.812367 
L 313.524634 243.590677 
L 297.08117 235.735365 
L 276.705021 209.059165 
L 250.659441 219.191435 
L 247.803299 250.443204 
L 239.771328 267.239682 
L 220.759749 289.999478 
L 236.354373 311.073053 
L 261.52633 315.184686 
L 279.29788 319.46955 
L 304.859337 341.401495 
L 328.317681 326.036792 
L 324.592603 294.75943 
L 328.664465 276.599062 
" clip-path="url(#p20d822b605)" style="fill: none; stroke: #e377c2; stroke-width: 2; stroke-linecap: square"/>
   </g>
   <g id="line2d_20">
    <path d="M 391.996576 276.599062 
L 398.23421 225.651339 
L 359.134931 192.93531 
L 318.593111 169.528419 
L 266.885948 115.636929 
L 205.707805 141.332918 
L 190.14731 208.553676 
L 177.822743 254.072104 
L 151.986892 304.617601 
L 182.364064 350.299308 
L 227.436485 374.230029 
L 272.011995 388.790115 
L 333.857708 430.649306 
L 388.60351 392.990987 
L 389.789332 323.786884 
L 391.996576 276.599062 
" clip-path="url(#p20d822b605)" style="fill: none; stroke: #7f7f7f; stroke-width: 2; stroke-linecap: square"/>
   </g>
   <g id="line2d_21">
    <path d="M 333.966548 276.599062 
L 331.451041 255.385122 
L 317.945261 238.681074 
L 300.863458 224.09468 
L 276.930288 211.202438 
L 252.640773 222.623203 
L 242.058632 246.269459 
L 234.739368 266.170106 
L 228.976057 288.253048 
L 241.530978 307.312029 
L 258.319421 320.739214 
L 278.028267 331.549115 
L 304.149648 339.217297 
L 325.578371 322.99448 
L 330.958779 297.593834 
L 333.966548 276.599062 
" clip-path="url(#p20d822b605)" style="fill: none; stroke: #bcbd22; stroke-width: 2; stroke-linecap: square"/>
   </g>
   <g id="patch_3">
    <path d="M 505.56375 276.599062 
C 505.56375 247.477806 499.827497 218.639717 488.683275 191.735185 
C 477.539053 164.830652 461.203588 140.382901 440.61175 119.791063 
C 420.019912 99.199225 395.572161 82.86376 368.667628 71.719537 
C 341.763095 60.575315 312.925006 54.839062 283.80375 54.839062 
C 254.682494 54.839062 225.844405 60.575315 198.939872 71.719537 
C 172.035339 82.86376 147.587588 99.199225 126.99575 119.791063 
C 106.403912 140.382901 90.068447 164.830652 78.924225 191.735185 
C 67.780003 218.639717 62.04375 247.477806 62.04375 276.599062 
C 62.04375 305.720319 67.780003 334.558408 78.924225 361.46294 
C 90.068447 388.367473 106.403912 412.815224 126.99575 433.407062 
C 147.587588 453.9989 172.035339 470.334365 198.939872 481.478588 
C 225.844405 492.62281 254.682494 498.359062 283.80375 498.359062 
C 312.925006 498.359062 341.763095 492.62281 368.667628 481.478588 
C 395.572161 470.334365 420.019912 453.9989 440.61175 433.407062 
C 461.203588 412.815224 477.539053 388.367473 488.683275 361.46294 
C 499.827497 334.558408 505.56375 305.720319 505.56375 276.599062 
" style="fill: none; stroke: #000000; stroke-width: 0.8; stroke-linejoin: miter; stroke-linecap: square"/>
   </g>
   <g id="legend_1">
    <g id="patch_4">
     <path d="M 67.16875 601.239062 
L 500.43875 601.239062 
Q 503.63875 601.239062 503.63875 598.039062 
L 503.63875 529.184062 
Q 503.63875 525.984062 500.43875 525.984062 
L 67.16875 525.984062 
Q 63.96875 525.984062 63.96875 529.184062 
L 63.96875 598.039062 
Q 63.96875 601.239062 67.16875 601.239062 
z
" style="fill: #ffffff; opacity: 0.8; stroke: #cccccc; stroke-linejoin: miter"/>
    </g>
    <g id="line2d_22">
     <path d="M 70.36875 538.941562 
L 86.36875 538.941562 
L 102.36875 538.941562 
" style="fill: none; stroke: #1f77b4; stroke-width: 2; stroke-linecap: square"/>
    </g>
    <g id="text_13">
     <!-- Flux -->
     <g transform="translate(115.16875 544.541562) scale(0.16 -0.16)">
      <defs>
       <path id="DejaVuSans-46" d="M 628 4666 
L 3309 4666 
L 3309 4134 
L 1259 4134 
L 1259 2759 
L 3109 2759 
L 3109 2228 
L 1259 2228 
L 1259 0 
L 628 0 
L 628 4666 
z
" transform="scale(0.015625)"/>
       <path id="DejaVuSans-6c" d="M 603 4863 
L 1178 4863 
L 1178 0 
L 603 0 
L 603 4863 
z
" transform="scale(0.015625)"/>
       <path id="DejaVuSans-75" d="M 544 1381 
L 544 3500 
L 1119 3500 
L 1119 1403 
Q 1119 906 1312 657 
Q 1506 409 1894 409 
Q 2359 409 2629 706 
Q 2900 1003 2900 1516 
L 2900 3500 
L 3475 3500 
L 3475 0 
L 2900 0 
L 2900 538 
Q 2691 219 2414 64 
Q 2138 -91 1772 -91 
Q 1169 -91 856 284 
Q 544 659 544 1381 
z
M 1991 3584 
L 1991 3584 
z
" transform="scale(0.015625)"/>
       <path id="DejaVuSans-78" d="M 3513 3500 
L 2247 1797 
L 3578 0 
L 2900 0 
L 1881 1375 
L 863 0 
L 184 0 
L 1544 1831 
L 300 3500 
L 978 3500 
L 1906 2253 
L 2834 3500 
L 3513 3500 
z
" transform="scale(0.015625)"/>
      </defs>
      <use xlink:href="#DejaVuSans-46"/>
      <use xlink:href="#DejaVuSans-6c" x="57.519531"/>
      <use xlink:href="#DejaVuSans-75" x="85.302734"/>
      <use xlink:href="#DejaVuSans-78" x="148.681641"/>
     </g>
    </g>
    <g id="line2d_23">
     <path d="M 70.36875 562.426562 
L 86.36875 562.426562 
L 102.36875 562.426562 
" style="fill: none; stroke: #ff7f0e; stroke-width: 2; stroke-linecap: square"/>
    </g>
    <g id="text_14">
     <!-- BigGAN -->
     <g transform="translate(115.16875 568.026562) scale(0.16 -0.16)">
      <defs>
       <path id="DejaVuSans-42" d="M 1259 2228 
L 1259 519 
L 2272 519 
Q 2781 519 3026 730 
Q 3272 941 3272 1375 
Q 3272 1813 3026 2020 
Q 2781 2228 2272 2228 
L 1259 2228 
z
M 1259 4147 
L 1259 2741 
L 2194 2741 
Q 2656 2741 2882 2914 
Q 3109 3088 3109 3444 
Q 3109 3797 2882 3972 
Q 2656 4147 2194 4147 
L 1259 4147 
z
M 628 4666 
L 2241 4666 
Q 2963 4666 3353 4366 
Q 3744 4066 3744 3513 
Q 3744 3084 3544 2831 
Q 3344 2578 2956 2516 
Q 3422 2416 3680 2098 
Q 3938 1781 3938 1306 
Q 3938 681 3513 340 
Q 3088 0 2303 0 
L 628 0 
L 628 4666 
z
" transform="scale(0.015625)"/>
       <path id="DejaVuSans-69" d="M 603 3500 
L 1178 3500 
L 1178 0 
L 603 0 
L 603 3500 
z
M 603 4863 
L 1178 4863 
L 1178 4134 
L 603 4134 
L 603 4863 
z
" transform="scale(0.015625)"/>
       <path id="DejaVuSans-67" d="M 2906 1791 
Q 2906 2416 2648 2759 
Q 2391 3103 1925 3103 
Q 1463 3103 1205 2759 
Q 947 2416 947 1791 
Q 947 1169 1205 825 
Q 1463 481 1925 481 
Q 2391 481 2648 825 
Q 2906 1169 2906 1791 
z
M 3481 434 
Q 3481 -459 3084 -895 
Q 2688 -1331 1869 -1331 
Q 1566 -1331 1297 -1286 
Q 1028 -1241 775 -1147 
L 775 -588 
Q 1028 -725 1275 -790 
Q 1522 -856 1778 -856 
Q 2344 -856 2625 -561 
Q 2906 -266 2906 331 
L 2906 616 
Q 2728 306 2450 153 
Q 2172 0 1784 0 
Q 1141 0 747 490 
Q 353 981 353 1791 
Q 353 2603 747 3093 
Q 1141 3584 1784 3584 
Q 2172 3584 2450 3431 
Q 2728 3278 2906 2969 
L 2906 3500 
L 3481 3500 
L 3481 434 
z
" transform="scale(0.015625)"/>
       <path id="DejaVuSans-47" d="M 3809 666 
L 3809 1919 
L 2778 1919 
L 2778 2438 
L 4434 2438 
L 4434 434 
Q 4069 175 3628 42 
Q 3188 -91 2688 -91 
Q 1594 -91 976 548 
Q 359 1188 359 2328 
Q 359 3472 976 4111 
Q 1594 4750 2688 4750 
Q 3144 4750 3555 4637 
Q 3966 4525 4313 4306 
L 4313 3634 
Q 3963 3931 3569 4081 
Q 3175 4231 2741 4231 
Q 1884 4231 1454 3753 
Q 1025 3275 1025 2328 
Q 1025 1384 1454 906 
Q 1884 428 2741 428 
Q 3075 428 3337 486 
Q 3600 544 3809 666 
z
" transform="scale(0.015625)"/>
       <path id="DejaVuSans-41" d="M 2188 4044 
L 1331 1722 
L 3047 1722 
L 2188 4044 
z
M 1831 4666 
L 2547 4666 
L 4325 0 
L 3669 0 
L 3244 1197 
L 1141 1197 
L 716 0 
L 50 0 
L 1831 4666 
z
" transform="scale(0.015625)"/>
       <path id="DejaVuSans-4e" d="M 628 4666 
L 1478 4666 
L 3547 763 
L 3547 4666 
L 4159 4666 
L 4159 0 
L 3309 0 
L 1241 3903 
L 1241 0 
L 628 0 
L 628 4666 
z
" transform="scale(0.015625)"/>
      </defs>
      <use xlink:href="#DejaVuSans-42"/>
      <use xlink:href="#DejaVuSans-69" x="68.603516"/>
      <use xlink:href="#DejaVuSans-67" x="96.386719"/>
      <use xlink:href="#DejaVuSans-47" x="159.863281"/>
      <use xlink:href="#DejaVuSans-41" x="237.353516"/>
      <use xlink:href="#DejaVuSans-4e" x="305.761719"/>
     </g>
    </g>
    <g id="line2d_24">
     <path d="M 70.36875 585.911562 
L 86.36875 585.911562 
L 102.36875 585.911562 
" style="fill: none; stroke: #2ca02c; stroke-width: 2; stroke-linecap: square"/>
    </g>
    <g id="text_15">
     <!-- DALLE -->
     <g transform="translate(115.16875 591.511562) scale(0.16 -0.16)">
      <defs>
       <path id="DejaVuSans-44" d="M 1259 4147 
L 1259 519 
L 2022 519 
Q 2988 519 3436 956 
Q 3884 1394 3884 2338 
Q 3884 3275 3436 3711 
Q 2988 4147 2022 4147 
L 1259 4147 
z
M 628 4666 
L 1925 4666 
Q 3281 4666 3915 4102 
Q 4550 3538 4550 2338 
Q 4550 1131 3912 565 
Q 3275 0 1925 0 
L 628 0 
L 628 4666 
z
" transform="scale(0.015625)"/>
       <path id="DejaVuSans-4c" d="M 628 4666 
L 1259 4666 
L 1259 531 
L 3531 531 
L 3531 0 
L 628 0 
L 628 4666 
z
" transform="scale(0.015625)"/>
       <path id="DejaVuSans-45" d="M 628 4666 
L 3578 4666 
L 3578 4134 
L 1259 4134 
L 1259 2753 
L 3481 2753 
L 3481 2222 
L 1259 2222 
L 1259 531 
L 3634 531 
L 3634 0 
L 628 0 
L 628 4666 
z
" transform="scale(0.015625)"/>
      </defs>
      <use xlink:href="#DejaVuSans-44"/>
      <use xlink:href="#DejaVuSans-41" x="75.251953"/>
      <use xlink:href="#DejaVuSans-4c" x="143.660156"/>
      <use xlink:href="#DejaVuSans-4c" x="199.373047"/>
      <use xlink:href="#DejaVuSans-45" x="255.085938"/>
     </g>
    </g>
    <g id="line2d_25">
     <path d="M 208.06125 538.941562 
L 224.06125 538.941562 
L 240.06125 538.941562 
" style="fill: none; stroke: #d62728; stroke-width: 2; stroke-linecap: square"/>
    </g>
    <g id="text_16">
     <!-- LD -->
     <g transform="translate(252.86125 544.541562) scale(0.16 -0.16)">
      <use xlink:href="#DejaVuSans-4c"/>
      <use xlink:href="#DejaVuSans-44" x="55.712891"/>
     </g>
    </g>
    <g id="line2d_26">
     <path d="M 208.06125 562.426562 
L 224.06125 562.426562 
L 240.06125 562.426562 
" style="fill: none; stroke: #9467bd; stroke-width: 2; stroke-linecap: square"/>
    </g>
    <g id="text_17">
     <!-- Glide -->
     <g transform="translate(252.86125 568.026562) scale(0.16 -0.16)">
      <defs>
       <path id="DejaVuSans-64" d="M 2906 2969 
L 2906 4863 
L 3481 4863 
L 3481 0 
L 2906 0 
L 2906 525 
Q 2725 213 2448 61 
Q 2172 -91 1784 -91 
Q 1150 -91 751 415 
Q 353 922 353 1747 
Q 353 2572 751 3078 
Q 1150 3584 1784 3584 
Q 2172 3584 2448 3432 
Q 2725 3281 2906 2969 
z
M 947 1747 
Q 947 1113 1208 752 
Q 1469 391 1925 391 
Q 2381 391 2643 752 
Q 2906 1113 2906 1747 
Q 2906 2381 2643 2742 
Q 2381 3103 1925 3103 
Q 1469 3103 1208 2742 
Q 947 2381 947 1747 
z
" transform="scale(0.015625)"/>
       <path id="DejaVuSans-65" d="M 3597 1894 
L 3597 1613 
L 953 1613 
Q 991 1019 1311 708 
Q 1631 397 2203 397 
Q 2534 397 2845 478 
Q 3156 559 3463 722 
L 3463 178 
Q 3153 47 2828 -22 
Q 2503 -91 2169 -91 
Q 1331 -91 842 396 
Q 353 884 353 1716 
Q 353 2575 817 3079 
Q 1281 3584 2069 3584 
Q 2775 3584 3186 3129 
Q 3597 2675 3597 1894 
z
M 3022 2063 
Q 3016 2534 2758 2815 
Q 2500 3097 2075 3097 
Q 1594 3097 1305 2825 
Q 1016 2553 972 2059 
L 3022 2063 
z
" transform="scale(0.015625)"/>
      </defs>
      <use xlink:href="#DejaVuSans-47"/>
      <use xlink:href="#DejaVuSans-6c" x="77.490234"/>
      <use xlink:href="#DejaVuSans-69" x="105.273438"/>
      <use xlink:href="#DejaVuSans-64" x="133.056641"/>
      <use xlink:href="#DejaVuSans-65" x="196.533203"/>
     </g>
    </g>
    <g id="line2d_27">
     <path d="M 208.06125 585.911562 
L 224.06125 585.911562 
L 240.06125 585.911562 
" style="fill: none; stroke: #8c564b; stroke-width: 2; stroke-linecap: square"/>
    </g>
    <g id="text_18">
     <!-- CycleGAN -->
     <g transform="translate(252.86125 591.511562) scale(0.16 -0.16)">
      <defs>
       <path id="DejaVuSans-43" d="M 4122 4306 
L 4122 3641 
Q 3803 3938 3442 4084 
Q 3081 4231 2675 4231 
Q 1875 4231 1450 3742 
Q 1025 3253 1025 2328 
Q 1025 1406 1450 917 
Q 1875 428 2675 428 
Q 3081 428 3442 575 
Q 3803 722 4122 1019 
L 4122 359 
Q 3791 134 3420 21 
Q 3050 -91 2638 -91 
Q 1578 -91 968 557 
Q 359 1206 359 2328 
Q 359 3453 968 4101 
Q 1578 4750 2638 4750 
Q 3056 4750 3426 4639 
Q 3797 4528 4122 4306 
z
" transform="scale(0.015625)"/>
       <path id="DejaVuSans-79" d="M 2059 -325 
Q 1816 -950 1584 -1140 
Q 1353 -1331 966 -1331 
L 506 -1331 
L 506 -850 
L 844 -850 
Q 1081 -850 1212 -737 
Q 1344 -625 1503 -206 
L 1606 56 
L 191 3500 
L 800 3500 
L 1894 763 
L 2988 3500 
L 3597 3500 
L 2059 -325 
z
" transform="scale(0.015625)"/>
       <path id="DejaVuSans-63" d="M 3122 3366 
L 3122 2828 
Q 2878 2963 2633 3030 
Q 2388 3097 2138 3097 
Q 1578 3097 1268 2742 
Q 959 2388 959 1747 
Q 959 1106 1268 751 
Q 1578 397 2138 397 
Q 2388 397 2633 464 
Q 2878 531 3122 666 
L 3122 134 
Q 2881 22 2623 -34 
Q 2366 -91 2075 -91 
Q 1284 -91 818 406 
Q 353 903 353 1747 
Q 353 2603 823 3093 
Q 1294 3584 2113 3584 
Q 2378 3584 2631 3529 
Q 2884 3475 3122 3366 
z
" transform="scale(0.015625)"/>
      </defs>
      <use xlink:href="#DejaVuSans-43"/>
      <use xlink:href="#DejaVuSans-79" x="69.824219"/>
      <use xlink:href="#DejaVuSans-63" x="129.003906"/>
      <use xlink:href="#DejaVuSans-6c" x="183.984375"/>
      <use xlink:href="#DejaVuSans-65" x="211.767578"/>
      <use xlink:href="#DejaVuSans-47" x="273.291016"/>
      <use xlink:href="#DejaVuSans-41" x="350.78125"/>
      <use xlink:href="#DejaVuSans-4e" x="419.189453"/>
     </g>
    </g>
    <g id="line2d_28">
     <path d="M 363.90375 538.941562 
L 379.90375 538.941562 
L 395.90375 538.941562 
" style="fill: none; stroke: #e377c2; stroke-width: 2; stroke-linecap: square"/>
    </g>
    <g id="text_19">
     <!-- SD14 -->
     <g transform="translate(408.70375 544.541562) scale(0.16 -0.16)">
      <defs>
       <path id="DejaVuSans-53" d="M 3425 4513 
L 3425 3897 
Q 3066 4069 2747 4153 
Q 2428 4238 2131 4238 
Q 1616 4238 1336 4038 
Q 1056 3838 1056 3469 
Q 1056 3159 1242 3001 
Q 1428 2844 1947 2747 
L 2328 2669 
Q 3034 2534 3370 2195 
Q 3706 1856 3706 1288 
Q 3706 609 3251 259 
Q 2797 -91 1919 -91 
Q 1588 -91 1214 -16 
Q 841 59 441 206 
L 441 856 
Q 825 641 1194 531 
Q 1563 422 1919 422 
Q 2459 422 2753 634 
Q 3047 847 3047 1241 
Q 3047 1584 2836 1778 
Q 2625 1972 2144 2069 
L 1759 2144 
Q 1053 2284 737 2584 
Q 422 2884 422 3419 
Q 422 4038 858 4394 
Q 1294 4750 2059 4750 
Q 2388 4750 2728 4690 
Q 3069 4631 3425 4513 
z
" transform="scale(0.015625)"/>
      </defs>
      <use xlink:href="#DejaVuSans-53"/>
      <use xlink:href="#DejaVuSans-44" x="63.476562"/>
      <use xlink:href="#DejaVuSans-31" x="140.478516"/>
      <use xlink:href="#DejaVuSans-34" x="204.101562"/>
     </g>
    </g>
    <g id="line2d_29">
     <path d="M 363.90375 562.426562 
L 379.90375 562.426562 
L 395.90375 562.426562 
" style="fill: none; stroke: #7f7f7f; stroke-width: 2; stroke-linecap: square"/>
    </g>
    <g id="text_20">
     <!-- SD15 -->
     <g transform="translate(408.70375 568.026562) scale(0.16 -0.16)">
      <use xlink:href="#DejaVuSans-53"/>
      <use xlink:href="#DejaVuSans-44" x="63.476562"/>
      <use xlink:href="#DejaVuSans-31" x="140.478516"/>
      <use xlink:href="#DejaVuSans-35" x="204.101562"/>
     </g>
    </g>
    <g id="line2d_30">
     <path d="M 363.90375 585.911562 
L 379.90375 585.911562 
L 395.90375 585.911562 
" style="fill: none; stroke: #bcbd22; stroke-width: 2; stroke-linecap: square"/>
    </g>
    <g id="text_21">
     <!-- Midjourney -->
     <g transform="translate(408.70375 591.511562) scale(0.16 -0.16)">
      <defs>
       <path id="DejaVuSans-4d" d="M 628 4666 
L 1569 4666 
L 2759 1491 
L 3956 4666 
L 4897 4666 
L 4897 0 
L 4281 0 
L 4281 4097 
L 3078 897 
L 2444 897 
L 1241 4097 
L 1241 0 
L 628 0 
L 628 4666 
z
" transform="scale(0.015625)"/>
       <path id="DejaVuSans-6a" d="M 603 3500 
L 1178 3500 
L 1178 -63 
Q 1178 -731 923 -1031 
Q 669 -1331 103 -1331 
L -116 -1331 
L -116 -844 
L 38 -844 
Q 366 -844 484 -692 
Q 603 -541 603 -63 
L 603 3500 
z
M 603 4863 
L 1178 4863 
L 1178 4134 
L 603 4134 
L 603 4863 
z
" transform="scale(0.015625)"/>
       <path id="DejaVuSans-6f" d="M 1959 3097 
Q 1497 3097 1228 2736 
Q 959 2375 959 1747 
Q 959 1119 1226 758 
Q 1494 397 1959 397 
Q 2419 397 2687 759 
Q 2956 1122 2956 1747 
Q 2956 2369 2687 2733 
Q 2419 3097 1959 3097 
z
M 1959 3584 
Q 2709 3584 3137 3096 
Q 3566 2609 3566 1747 
Q 3566 888 3137 398 
Q 2709 -91 1959 -91 
Q 1206 -91 779 398 
Q 353 888 353 1747 
Q 353 2609 779 3096 
Q 1206 3584 1959 3584 
z
" transform="scale(0.015625)"/>
       <path id="DejaVuSans-72" d="M 2631 2963 
Q 2534 3019 2420 3045 
Q 2306 3072 2169 3072 
Q 1681 3072 1420 2755 
Q 1159 2438 1159 1844 
L 1159 0 
L 581 0 
L 581 3500 
L 1159 3500 
L 1159 2956 
Q 1341 3275 1631 3429 
Q 1922 3584 2338 3584 
Q 2397 3584 2469 3576 
Q 2541 3569 2628 3553 
L 2631 2963 
z
" transform="scale(0.015625)"/>
       <path id="DejaVuSans-6e" d="M 3513 2113 
L 3513 0 
L 2938 0 
L 2938 2094 
Q 2938 2591 2744 2837 
Q 2550 3084 2163 3084 
Q 1697 3084 1428 2787 
Q 1159 2491 1159 1978 
L 1159 0 
L 581 0 
L 581 3500 
L 1159 3500 
L 1159 2956 
Q 1366 3272 1645 3428 
Q 1925 3584 2291 3584 
Q 2894 3584 3203 3211 
Q 3513 2838 3513 2113 
z
" transform="scale(0.015625)"/>
      </defs>
      <use xlink:href="#DejaVuSans-4d"/>
      <use xlink:href="#DejaVuSans-69" x="86.279297"/>
      <use xlink:href="#DejaVuSans-64" x="114.0625"/>
      <use xlink:href="#DejaVuSans-6a" x="177.539062"/>
      <use xlink:href="#DejaVuSans-6f" x="205.322266"/>
      <use xlink:href="#DejaVuSans-75" x="266.503906"/>
      <use xlink:href="#DejaVuSans-72" x="329.882812"/>
      <use xlink:href="#DejaVuSans-6e" x="369.246094"/>
      <use xlink:href="#DejaVuSans-65" x="432.625"/>
      <use xlink:href="#DejaVuSans-79" x="494.148438"/>
     </g>
    </g>
   </g>
  </g>
 </g>
 <defs>
  <clipPath id="p20d822b605">
   <path d="M 505.56375 276.599062 
C 505.56375 247.477806 499.827497 218.639717 488.683275 191.735185 
C 477.539053 164.830652 461.203588 140.382901 440.61175 119.791063 
C 420.019912 99.199225 395.572161 82.86376 368.667628 71.719537 
C 341.763095 60.575315 312.925006 54.839062 283.80375 54.839062 
C 254.682494 54.839062 225.844405 60.575315 198.939872 71.719537 
C 172.035339 82.86376 147.587588 99.199225 126.99575 119.791063 
C 106.403912 140.382901 90.068447 164.830652 78.924225 191.735185 
C 67.780003 218.639717 62.04375 247.477806 62.04375 276.599062 
C 62.04375 305.720319 67.780003 334.558408 78.924225 361.46294 
C 90.068447 388.367473 106.403912 412.815224 126.99575 433.407062 
C 147.587588 453.9989 172.035339 470.334365 198.939872 481.478588 
C 225.844405 492.62281 254.682494 498.359062 283.80375 498.359062 
C 312.925006 498.359062 341.763095 492.62281 368.667628 481.478588 
C 395.572161 470.334365 420.019912 453.9989 440.61175 433.407062 
C 461.203588 412.815224 477.539053 388.367473 488.683275 361.46294 
C 499.827497 334.558408 505.56375 305.720319 505.56375 276.599062 
M 283.80375 276.599062 
C 283.80375 276.599062 283.80375 276.599062 283.80375 276.599062 
C 283.80375 276.599062 283.80375 276.599062 283.80375 276.599062 
C 283.80375 276.599062 283.80375 276.599062 283.80375 276.599062 
C 283.80375 276.599062 283.80375 276.599062 283.80375 276.599062 
C 283.80375 276.599062 283.80375 276.599062 283.80375 276.599062 
C 283.80375 276.599062 283.80375 276.599062 283.80375 276.599062 
C 283.80375 276.599062 283.80375 276.599062 283.80375 276.599062 
C 283.80375 276.599062 283.80375 276.599062 283.80375 276.599062 
C 283.80375 276.599062 283.80375 276.599062 283.80375 276.599062 
C 283.80375 276.599062 283.80375 276.599062 283.80375 276.599062 
C 283.80375 276.599062 283.80375 276.599062 283.80375 276.599062 
C 283.80375 276.599062 283.80375 276.599062 283.80375 276.599062 
C 283.80375 276.599062 283.80375 276.599062 283.80375 276.599062 
C 283.80375 276.599062 283.80375 276.599062 283.80375 276.599062 
C 283.80375 276.599062 283.80375 276.599062 283.80375 276.599062 
C 283.80375 276.599062 283.80375 276.599062 283.80375 276.599062 
z
"/>
  </clipPath>
 </defs>
</svg>
