<?xml version="1.0" encoding="utf-8" standalone="no"?>
<!DOCTYPE svg PUBLIC "-//W3C//DTD SVG 1.1//EN"
  "http://www.w3.org/Graphics/SVG/1.1/DTD/svg11.dtd">
<svg xmlns:xlink="http://www.w3.org/1999/xlink" width="686.012187pt" height="440.731094pt" viewBox="0 0 686.012187 440.731094" xmlns="http://www.w3.org/2000/svg" version="1.1">
 <metadata>
  <rdf:RDF xmlns:dc="http://purl.org/dc/elements/1.1/" xmlns:cc="http://creativecommons.org/ns#" xmlns:rdf="http://www.w3.org/1999/02/22-rdf-syntax-ns#">
   <cc:Work>
    <dc:type rdf:resource="http://purl.org/dc/dcmitype/StillImage"/>
    <dc:date>2025-03-15T21:29:42.671002</dc:date>
    <dc:format>image/svg+xml</dc:format>
    <dc:creator>
     <cc:Agent>
      <dc:title>Matplotlib v3.7.5, https://matplotlib.org/</dc:title>
     </cc:Agent>
    </dc:creator>
   </cc:Work>
  </rdf:RDF>
 </metadata>
 <defs>
  <style type="text/css">*{stroke-linejoin: round; stroke-linecap: butt}</style>
 </defs>
 <g id="figure_1">
  <g id="patch_1">
   <path d="M 0 440.731094 
L 686.012187 440.731094 
L 686.012187 0 
L 0 0 
z
" style="fill: #ffffff"/>
  </g>
  <g id="axes_1">
   <g id="patch_2">
    <path d="M 80.879375 372.439219 
L 638.879375 372.439219 
L 638.879375 39.799219 
L 80.879375 39.799219 
z
" style="fill: #ffffff"/>
   </g>
   <g id="matplotlib.axis_1">
    <g id="xtick_1">
     <g id="line2d_1">
      <path d="M 80.879375 372.439219 
L 80.879375 39.799219 
" clip-path="url(#p8d20d7a7a4)" style="fill: none; stroke: #b0b0b0; stroke-opacity: 0.3; stroke-width: 0.8; stroke-linecap: square"/>
     </g>
     <g id="line2d_2">
      <defs>
       <path id="m69ecac19f5" d="M 0 0 
L 0 3.5 
" style="stroke: #000000; stroke-width: 0.8"/>
      </defs>
      <g>
       <use xlink:href="#m69ecac19f5" x="80.879375" y="372.439219" style="stroke: #000000; stroke-width: 0.8"/>
      </g>
     </g>
     <g id="text_1">
      <!-- 0.20 -->
      <g transform="translate(69.746562 387.037656) scale(0.1 -0.1)">
       <defs>
        <path id="DejaVuSans-30" d="M 2034 4250 
Q 1547 4250 1301 3770 
Q 1056 3291 1056 2328 
Q 1056 1369 1301 889 
Q 1547 409 2034 409 
Q 2525 409 2770 889 
Q 3016 1369 3016 2328 
Q 3016 3291 2770 3770 
Q 2525 4250 2034 4250 
z
M 2034 4750 
Q 2819 4750 3233 4129 
Q 3647 3509 3647 2328 
Q 3647 1150 3233 529 
Q 2819 -91 2034 -91 
Q 1250 -91 836 529 
Q 422 1150 422 2328 
Q 422 3509 836 4129 
Q 1250 4750 2034 4750 
z
" transform="scale(0.015625)"/>
        <path id="DejaVuSans-2e" d="M 684 794 
L 1344 794 
L 1344 0 
L 684 0 
L 684 794 
z
" transform="scale(0.015625)"/>
        <path id="DejaVuSans-32" d="M 1228 531 
L 3431 531 
L 3431 0 
L 469 0 
L 469 531 
Q 828 903 1448 1529 
Q 2069 2156 2228 2338 
Q 2531 2678 2651 2914 
Q 2772 3150 2772 3378 
Q 2772 3750 2511 3984 
Q 2250 4219 1831 4219 
Q 1534 4219 1204 4116 
Q 875 4013 500 3803 
L 500 4441 
Q 881 4594 1212 4672 
Q 1544 4750 1819 4750 
Q 2544 4750 2975 4387 
Q 3406 4025 3406 3419 
Q 3406 3131 3298 2873 
Q 3191 2616 2906 2266 
Q 2828 2175 2409 1742 
Q 1991 1309 1228 531 
z
" transform="scale(0.015625)"/>
       </defs>
       <use xlink:href="#DejaVuSans-30"/>
       <use xlink:href="#DejaVuSans-2e" x="63.623047"/>
       <use xlink:href="#DejaVuSans-32" x="95.410156"/>
       <use xlink:href="#DejaVuSans-30" x="159.033203"/>
      </g>
     </g>
    </g>
    <g id="xtick_2">
     <g id="line2d_3">
      <path d="M 173.879375 372.439219 
L 173.879375 39.799219 
" clip-path="url(#p8d20d7a7a4)" style="fill: none; stroke: #b0b0b0; stroke-opacity: 0.3; stroke-width: 0.8; stroke-linecap: square"/>
     </g>
     <g id="line2d_4">
      <g>
       <use xlink:href="#m69ecac19f5" x="173.879375" y="372.439219" style="stroke: #000000; stroke-width: 0.8"/>
      </g>
     </g>
     <g id="text_2">
      <!-- 0.25 -->
      <g transform="translate(162.746562 387.037656) scale(0.1 -0.1)">
       <defs>
        <path id="DejaVuSans-35" d="M 691 4666 
L 3169 4666 
L 3169 4134 
L 1269 4134 
L 1269 2991 
Q 1406 3038 1543 3061 
Q 1681 3084 1819 3084 
Q 2600 3084 3056 2656 
Q 3513 2228 3513 1497 
Q 3513 744 3044 326 
Q 2575 -91 1722 -91 
Q 1428 -91 1123 -41 
Q 819 9 494 109 
L 494 744 
Q 775 591 1075 516 
Q 1375 441 1709 441 
Q 2250 441 2565 725 
Q 2881 1009 2881 1497 
Q 2881 1984 2565 2268 
Q 2250 2553 1709 2553 
Q 1456 2553 1204 2497 
Q 953 2441 691 2322 
L 691 4666 
z
" transform="scale(0.015625)"/>
       </defs>
       <use xlink:href="#DejaVuSans-30"/>
       <use xlink:href="#DejaVuSans-2e" x="63.623047"/>
       <use xlink:href="#DejaVuSans-32" x="95.410156"/>
       <use xlink:href="#DejaVuSans-35" x="159.033203"/>
      </g>
     </g>
    </g>
    <g id="xtick_3">
     <g id="line2d_5">
      <path d="M 266.879375 372.439219 
L 266.879375 39.799219 
" clip-path="url(#p8d20d7a7a4)" style="fill: none; stroke: #b0b0b0; stroke-opacity: 0.3; stroke-width: 0.8; stroke-linecap: square"/>
     </g>
     <g id="line2d_6">
      <g>
       <use xlink:href="#m69ecac19f5" x="266.879375" y="372.439219" style="stroke: #000000; stroke-width: 0.8"/>
      </g>
     </g>
     <g id="text_3">
      <!-- 0.30 -->
      <g transform="translate(255.746563 387.037656) scale(0.1 -0.1)">
       <defs>
        <path id="DejaVuSans-33" d="M 2597 2516 
Q 3050 2419 3304 2112 
Q 3559 1806 3559 1356 
Q 3559 666 3084 287 
Q 2609 -91 1734 -91 
Q 1441 -91 1130 -33 
Q 819 25 488 141 
L 488 750 
Q 750 597 1062 519 
Q 1375 441 1716 441 
Q 2309 441 2620 675 
Q 2931 909 2931 1356 
Q 2931 1769 2642 2001 
Q 2353 2234 1838 2234 
L 1294 2234 
L 1294 2753 
L 1863 2753 
Q 2328 2753 2575 2939 
Q 2822 3125 2822 3475 
Q 2822 3834 2567 4026 
Q 2313 4219 1838 4219 
Q 1578 4219 1281 4162 
Q 984 4106 628 3988 
L 628 4550 
Q 988 4650 1302 4700 
Q 1616 4750 1894 4750 
Q 2613 4750 3031 4423 
Q 3450 4097 3450 3541 
Q 3450 3153 3228 2886 
Q 3006 2619 2597 2516 
z
" transform="scale(0.015625)"/>
       </defs>
       <use xlink:href="#DejaVuSans-30"/>
       <use xlink:href="#DejaVuSans-2e" x="63.623047"/>
       <use xlink:href="#DejaVuSans-33" x="95.410156"/>
       <use xlink:href="#DejaVuSans-30" x="159.033203"/>
      </g>
     </g>
    </g>
    <g id="xtick_4">
     <g id="line2d_7">
      <path d="M 359.879375 372.439219 
L 359.879375 39.799219 
" clip-path="url(#p8d20d7a7a4)" style="fill: none; stroke: #b0b0b0; stroke-opacity: 0.3; stroke-width: 0.8; stroke-linecap: square"/>
     </g>
     <g id="line2d_8">
      <g>
       <use xlink:href="#m69ecac19f5" x="359.879375" y="372.439219" style="stroke: #000000; stroke-width: 0.8"/>
      </g>
     </g>
     <g id="text_4">
      <!-- 0.35 -->
      <g transform="translate(348.746563 387.037656) scale(0.1 -0.1)">
       <use xlink:href="#DejaVuSans-30"/>
       <use xlink:href="#DejaVuSans-2e" x="63.623047"/>
       <use xlink:href="#DejaVuSans-33" x="95.410156"/>
       <use xlink:href="#DejaVuSans-35" x="159.033203"/>
      </g>
     </g>
    </g>
    <g id="xtick_5">
     <g id="line2d_9">
      <path d="M 452.879375 372.439219 
L 452.879375 39.799219 
" clip-path="url(#p8d20d7a7a4)" style="fill: none; stroke: #b0b0b0; stroke-opacity: 0.3; stroke-width: 0.8; stroke-linecap: square"/>
     </g>
     <g id="line2d_10">
      <g>
       <use xlink:href="#m69ecac19f5" x="452.879375" y="372.439219" style="stroke: #000000; stroke-width: 0.8"/>
      </g>
     </g>
     <g id="text_5">
      <!-- 0.40 -->
      <g transform="translate(441.746562 387.037656) scale(0.1 -0.1)">
       <defs>
        <path id="DejaVuSans-34" d="M 2419 4116 
L 825 1625 
L 2419 1625 
L 2419 4116 
z
M 2253 4666 
L 3047 4666 
L 3047 1625 
L 3713 1625 
L 3713 1100 
L 3047 1100 
L 3047 0 
L 2419 0 
L 2419 1100 
L 313 1100 
L 313 1709 
L 2253 4666 
z
" transform="scale(0.015625)"/>
       </defs>
       <use xlink:href="#DejaVuSans-30"/>
       <use xlink:href="#DejaVuSans-2e" x="63.623047"/>
       <use xlink:href="#DejaVuSans-34" x="95.410156"/>
       <use xlink:href="#DejaVuSans-30" x="159.033203"/>
      </g>
     </g>
    </g>
    <g id="xtick_6">
     <g id="line2d_11">
      <path d="M 545.879375 372.439219 
L 545.879375 39.799219 
" clip-path="url(#p8d20d7a7a4)" style="fill: none; stroke: #b0b0b0; stroke-opacity: 0.3; stroke-width: 0.8; stroke-linecap: square"/>
     </g>
     <g id="line2d_12">
      <g>
       <use xlink:href="#m69ecac19f5" x="545.879375" y="372.439219" style="stroke: #000000; stroke-width: 0.8"/>
      </g>
     </g>
     <g id="text_6">
      <!-- 0.45 -->
      <g transform="translate(534.746562 387.037656) scale(0.1 -0.1)">
       <use xlink:href="#DejaVuSans-30"/>
       <use xlink:href="#DejaVuSans-2e" x="63.623047"/>
       <use xlink:href="#DejaVuSans-34" x="95.410156"/>
       <use xlink:href="#DejaVuSans-35" x="159.033203"/>
      </g>
     </g>
    </g>
    <g id="xtick_7">
     <g id="line2d_13">
      <path d="M 638.879375 372.439219 
L 638.879375 39.799219 
" clip-path="url(#p8d20d7a7a4)" style="fill: none; stroke: #b0b0b0; stroke-opacity: 0.3; stroke-width: 0.8; stroke-linecap: square"/>
     </g>
     <g id="line2d_14">
      <g>
       <use xlink:href="#m69ecac19f5" x="638.879375" y="372.439219" style="stroke: #000000; stroke-width: 0.8"/>
      </g>
     </g>
     <g id="text_7">
      <!-- 0.50 -->
      <g transform="translate(627.746562 387.037656) scale(0.1 -0.1)">
       <use xlink:href="#DejaVuSans-30"/>
       <use xlink:href="#DejaVuSans-2e" x="63.623047"/>
       <use xlink:href="#DejaVuSans-35" x="95.410156"/>
       <use xlink:href="#DejaVuSans-30" x="159.033203"/>
      </g>
     </g>
    </g>
    <g id="text_8">
     <!-- Frequency -->
     <g transform="translate(328.88375 402.235469) scale(0.12 -0.12)">
      <defs>
       <path id="DejaVuSans-46" d="M 628 4666 
L 3309 4666 
L 3309 4134 
L 1259 4134 
L 1259 2759 
L 3109 2759 
L 3109 2228 
L 1259 2228 
L 1259 0 
L 628 0 
L 628 4666 
z
" transform="scale(0.015625)"/>
       <path id="DejaVuSans-72" d="M 2631 2963 
Q 2534 3019 2420 3045 
Q 2306 3072 2169 3072 
Q 1681 3072 1420 2755 
Q 1159 2438 1159 1844 
L 1159 0 
L 581 0 
L 581 3500 
L 1159 3500 
L 1159 2956 
Q 1341 3275 1631 3429 
Q 1922 3584 2338 3584 
Q 2397 3584 2469 3576 
Q 2541 3569 2628 3553 
L 2631 2963 
z
" transform="scale(0.015625)"/>
       <path id="DejaVuSans-65" d="M 3597 1894 
L 3597 1613 
L 953 1613 
Q 991 1019 1311 708 
Q 1631 397 2203 397 
Q 2534 397 2845 478 
Q 3156 559 3463 722 
L 3463 178 
Q 3153 47 2828 -22 
Q 2503 -91 2169 -91 
Q 1331 -91 842 396 
Q 353 884 353 1716 
Q 353 2575 817 3079 
Q 1281 3584 2069 3584 
Q 2775 3584 3186 3129 
Q 3597 2675 3597 1894 
z
M 3022 2063 
Q 3016 2534 2758 2815 
Q 2500 3097 2075 3097 
Q 1594 3097 1305 2825 
Q 1016 2553 972 2059 
L 3022 2063 
z
" transform="scale(0.015625)"/>
       <path id="DejaVuSans-71" d="M 947 1747 
Q 947 1113 1208 752 
Q 1469 391 1925 391 
Q 2381 391 2643 752 
Q 2906 1113 2906 1747 
Q 2906 2381 2643 2742 
Q 2381 3103 1925 3103 
Q 1469 3103 1208 2742 
Q 947 2381 947 1747 
z
M 2906 525 
Q 2725 213 2448 61 
Q 2172 -91 1784 -91 
Q 1150 -91 751 415 
Q 353 922 353 1747 
Q 353 2572 751 3078 
Q 1150 3584 1784 3584 
Q 2172 3584 2448 3432 
Q 2725 3281 2906 2969 
L 2906 3500 
L 3481 3500 
L 3481 -1331 
L 2906 -1331 
L 2906 525 
z
" transform="scale(0.015625)"/>
       <path id="DejaVuSans-75" d="M 544 1381 
L 544 3500 
L 1119 3500 
L 1119 1403 
Q 1119 906 1312 657 
Q 1506 409 1894 409 
Q 2359 409 2629 706 
Q 2900 1003 2900 1516 
L 2900 3500 
L 3475 3500 
L 3475 0 
L 2900 0 
L 2900 538 
Q 2691 219 2414 64 
Q 2138 -91 1772 -91 
Q 1169 -91 856 284 
Q 544 659 544 1381 
z
M 1991 3584 
L 1991 3584 
z
" transform="scale(0.015625)"/>
       <path id="DejaVuSans-6e" d="M 3513 2113 
L 3513 0 
L 2938 0 
L 2938 2094 
Q 2938 2591 2744 2837 
Q 2550 3084 2163 3084 
Q 1697 3084 1428 2787 
Q 1159 2491 1159 1978 
L 1159 0 
L 581 0 
L 581 3500 
L 1159 3500 
L 1159 2956 
Q 1366 3272 1645 3428 
Q 1925 3584 2291 3584 
Q 2894 3584 3203 3211 
Q 3513 2838 3513 2113 
z
" transform="scale(0.015625)"/>
       <path id="DejaVuSans-63" d="M 3122 3366 
L 3122 2828 
Q 2878 2963 2633 3030 
Q 2388 3097 2138 3097 
Q 1578 3097 1268 2742 
Q 959 2388 959 1747 
Q 959 1106 1268 751 
Q 1578 397 2138 397 
Q 2388 397 2633 464 
Q 2878 531 3122 666 
L 3122 134 
Q 2881 22 2623 -34 
Q 2366 -91 2075 -91 
Q 1284 -91 818 406 
Q 353 903 353 1747 
Q 353 2603 823 3093 
Q 1294 3584 2113 3584 
Q 2378 3584 2631 3529 
Q 2884 3475 3122 3366 
z
" transform="scale(0.015625)"/>
       <path id="DejaVuSans-79" d="M 2059 -325 
Q 1816 -950 1584 -1140 
Q 1353 -1331 966 -1331 
L 506 -1331 
L 506 -850 
L 844 -850 
Q 1081 -850 1212 -737 
Q 1344 -625 1503 -206 
L 1606 56 
L 191 3500 
L 800 3500 
L 1894 763 
L 2988 3500 
L 3597 3500 
L 2059 -325 
z
" transform="scale(0.015625)"/>
      </defs>
      <use xlink:href="#DejaVuSans-46"/>
      <use xlink:href="#DejaVuSans-72" x="50.269531"/>
      <use xlink:href="#DejaVuSans-65" x="89.132812"/>
      <use xlink:href="#DejaVuSans-71" x="150.65625"/>
      <use xlink:href="#DejaVuSans-75" x="214.132812"/>
      <use xlink:href="#DejaVuSans-65" x="277.511719"/>
      <use xlink:href="#DejaVuSans-6e" x="339.035156"/>
      <use xlink:href="#DejaVuSans-63" x="402.414062"/>
      <use xlink:href="#DejaVuSans-79" x="457.394531"/>
     </g>
    </g>
   </g>
   <g id="matplotlib.axis_2">
    <g id="ytick_1">
     <g id="line2d_15">
      <path d="M 80.879375 372.439219 
L 638.879375 372.439219 
" clip-path="url(#p8d20d7a7a4)" style="fill: none; stroke: #b0b0b0; stroke-opacity: 0.3; stroke-width: 0.8; stroke-linecap: square"/>
     </g>
     <g id="line2d_16">
      <defs>
       <path id="m662400ad6e" d="M 0 0 
L -3.5 0 
" style="stroke: #000000; stroke-width: 0.8"/>
      </defs>
      <g>
       <use xlink:href="#m662400ad6e" x="80.879375" y="372.439219" style="stroke: #000000; stroke-width: 0.8"/>
      </g>
     </g>
     <g id="text_9">
      <!-- 0.00 -->
      <g transform="translate(51.61375 376.238438) scale(0.1 -0.1)">
       <use xlink:href="#DejaVuSans-30"/>
       <use xlink:href="#DejaVuSans-2e" x="63.623047"/>
       <use xlink:href="#DejaVuSans-30" x="95.410156"/>
       <use xlink:href="#DejaVuSans-30" x="159.033203"/>
      </g>
     </g>
    </g>
    <g id="ytick_2">
     <g id="line2d_17">
      <path d="M 80.879375 330.859219 
L 638.879375 330.859219 
" clip-path="url(#p8d20d7a7a4)" style="fill: none; stroke: #b0b0b0; stroke-opacity: 0.3; stroke-width: 0.8; stroke-linecap: square"/>
     </g>
     <g id="line2d_18">
      <g>
       <use xlink:href="#m662400ad6e" x="80.879375" y="330.859219" style="stroke: #000000; stroke-width: 0.8"/>
      </g>
     </g>
     <g id="text_10">
      <!-- 0.25 -->
      <g transform="translate(51.61375 334.658438) scale(0.1 -0.1)">
       <use xlink:href="#DejaVuSans-30"/>
       <use xlink:href="#DejaVuSans-2e" x="63.623047"/>
       <use xlink:href="#DejaVuSans-32" x="95.410156"/>
       <use xlink:href="#DejaVuSans-35" x="159.033203"/>
      </g>
     </g>
    </g>
    <g id="ytick_3">
     <g id="line2d_19">
      <path d="M 80.879375 289.279219 
L 638.879375 289.279219 
" clip-path="url(#p8d20d7a7a4)" style="fill: none; stroke: #b0b0b0; stroke-opacity: 0.3; stroke-width: 0.8; stroke-linecap: square"/>
     </g>
     <g id="line2d_20">
      <g>
       <use xlink:href="#m662400ad6e" x="80.879375" y="289.279219" style="stroke: #000000; stroke-width: 0.8"/>
      </g>
     </g>
     <g id="text_11">
      <!-- 0.50 -->
      <g transform="translate(51.61375 293.078438) scale(0.1 -0.1)">
       <use xlink:href="#DejaVuSans-30"/>
       <use xlink:href="#DejaVuSans-2e" x="63.623047"/>
       <use xlink:href="#DejaVuSans-35" x="95.410156"/>
       <use xlink:href="#DejaVuSans-30" x="159.033203"/>
      </g>
     </g>
    </g>
    <g id="ytick_4">
     <g id="line2d_21">
      <path d="M 80.879375 247.699219 
L 638.879375 247.699219 
" clip-path="url(#p8d20d7a7a4)" style="fill: none; stroke: #b0b0b0; stroke-opacity: 0.3; stroke-width: 0.8; stroke-linecap: square"/>
     </g>
     <g id="line2d_22">
      <g>
       <use xlink:href="#m662400ad6e" x="80.879375" y="247.699219" style="stroke: #000000; stroke-width: 0.8"/>
      </g>
     </g>
     <g id="text_12">
      <!-- 0.75 -->
      <g transform="translate(51.61375 251.498438) scale(0.1 -0.1)">
       <defs>
        <path id="DejaVuSans-37" d="M 525 4666 
L 3525 4666 
L 3525 4397 
L 1831 0 
L 1172 0 
L 2766 4134 
L 525 4134 
L 525 4666 
z
" transform="scale(0.015625)"/>
       </defs>
       <use xlink:href="#DejaVuSans-30"/>
       <use xlink:href="#DejaVuSans-2e" x="63.623047"/>
       <use xlink:href="#DejaVuSans-37" x="95.410156"/>
       <use xlink:href="#DejaVuSans-35" x="159.033203"/>
      </g>
     </g>
    </g>
    <g id="ytick_5">
     <g id="line2d_23">
      <path d="M 80.879375 206.119219 
L 638.879375 206.119219 
" clip-path="url(#p8d20d7a7a4)" style="fill: none; stroke: #b0b0b0; stroke-opacity: 0.3; stroke-width: 0.8; stroke-linecap: square"/>
     </g>
     <g id="line2d_24">
      <g>
       <use xlink:href="#m662400ad6e" x="80.879375" y="206.119219" style="stroke: #000000; stroke-width: 0.8"/>
      </g>
     </g>
     <g id="text_13">
      <!-- 1.00 -->
      <g transform="translate(51.61375 209.918438) scale(0.1 -0.1)">
       <defs>
        <path id="DejaVuSans-31" d="M 794 531 
L 1825 531 
L 1825 4091 
L 703 3866 
L 703 4441 
L 1819 4666 
L 2450 4666 
L 2450 531 
L 3481 531 
L 3481 0 
L 794 0 
L 794 531 
z
" transform="scale(0.015625)"/>
       </defs>
       <use xlink:href="#DejaVuSans-31"/>
       <use xlink:href="#DejaVuSans-2e" x="63.623047"/>
       <use xlink:href="#DejaVuSans-30" x="95.410156"/>
       <use xlink:href="#DejaVuSans-30" x="159.033203"/>
      </g>
     </g>
    </g>
    <g id="ytick_6">
     <g id="line2d_25">
      <path d="M 80.879375 164.539219 
L 638.879375 164.539219 
" clip-path="url(#p8d20d7a7a4)" style="fill: none; stroke: #b0b0b0; stroke-opacity: 0.3; stroke-width: 0.8; stroke-linecap: square"/>
     </g>
     <g id="line2d_26">
      <g>
       <use xlink:href="#m662400ad6e" x="80.879375" y="164.539219" style="stroke: #000000; stroke-width: 0.8"/>
      </g>
     </g>
     <g id="text_14">
      <!-- 1.25 -->
      <g transform="translate(51.61375 168.338438) scale(0.1 -0.1)">
       <use xlink:href="#DejaVuSans-31"/>
       <use xlink:href="#DejaVuSans-2e" x="63.623047"/>
       <use xlink:href="#DejaVuSans-32" x="95.410156"/>
       <use xlink:href="#DejaVuSans-35" x="159.033203"/>
      </g>
     </g>
    </g>
    <g id="ytick_7">
     <g id="line2d_27">
      <path d="M 80.879375 122.959219 
L 638.879375 122.959219 
" clip-path="url(#p8d20d7a7a4)" style="fill: none; stroke: #b0b0b0; stroke-opacity: 0.3; stroke-width: 0.8; stroke-linecap: square"/>
     </g>
     <g id="line2d_28">
      <g>
       <use xlink:href="#m662400ad6e" x="80.879375" y="122.959219" style="stroke: #000000; stroke-width: 0.8"/>
      </g>
     </g>
     <g id="text_15">
      <!-- 1.50 -->
      <g transform="translate(51.61375 126.758438) scale(0.1 -0.1)">
       <use xlink:href="#DejaVuSans-31"/>
       <use xlink:href="#DejaVuSans-2e" x="63.623047"/>
       <use xlink:href="#DejaVuSans-35" x="95.410156"/>
       <use xlink:href="#DejaVuSans-30" x="159.033203"/>
      </g>
     </g>
    </g>
    <g id="ytick_8">
     <g id="line2d_29">
      <path d="M 80.879375 81.379219 
L 638.879375 81.379219 
" clip-path="url(#p8d20d7a7a4)" style="fill: none; stroke: #b0b0b0; stroke-opacity: 0.3; stroke-width: 0.8; stroke-linecap: square"/>
     </g>
     <g id="line2d_30">
      <g>
       <use xlink:href="#m662400ad6e" x="80.879375" y="81.379219" style="stroke: #000000; stroke-width: 0.8"/>
      </g>
     </g>
     <g id="text_16">
      <!-- 1.75 -->
      <g transform="translate(51.61375 85.178438) scale(0.1 -0.1)">
       <use xlink:href="#DejaVuSans-31"/>
       <use xlink:href="#DejaVuSans-2e" x="63.623047"/>
       <use xlink:href="#DejaVuSans-37" x="95.410156"/>
       <use xlink:href="#DejaVuSans-35" x="159.033203"/>
      </g>
     </g>
    </g>
    <g id="ytick_9">
     <g id="line2d_31">
      <path d="M 80.879375 39.799219 
L 638.879375 39.799219 
" clip-path="url(#p8d20d7a7a4)" style="fill: none; stroke: #b0b0b0; stroke-opacity: 0.3; stroke-width: 0.8; stroke-linecap: square"/>
     </g>
     <g id="line2d_32">
      <g>
       <use xlink:href="#m662400ad6e" x="80.879375" y="39.799219" style="stroke: #000000; stroke-width: 0.8"/>
      </g>
     </g>
     <g id="text_17">
      <!-- 2.00 -->
      <g transform="translate(51.61375 43.598438) scale(0.1 -0.1)">
       <use xlink:href="#DejaVuSans-32"/>
       <use xlink:href="#DejaVuSans-2e" x="63.623047"/>
       <use xlink:href="#DejaVuSans-30" x="95.410156"/>
       <use xlink:href="#DejaVuSans-30" x="159.033203"/>
      </g>
     </g>
    </g>
    <g id="text_18">
     <!-- Power Density -->
     <g transform="translate(45.118125 248.973281) rotate(-90) scale(0.12 -0.12)">
      <defs>
       <path id="DejaVuSans-50" d="M 1259 4147 
L 1259 2394 
L 2053 2394 
Q 2494 2394 2734 2622 
Q 2975 2850 2975 3272 
Q 2975 3691 2734 3919 
Q 2494 4147 2053 4147 
L 1259 4147 
z
M 628 4666 
L 2053 4666 
Q 2838 4666 3239 4311 
Q 3641 3956 3641 3272 
Q 3641 2581 3239 2228 
Q 2838 1875 2053 1875 
L 1259 1875 
L 1259 0 
L 628 0 
L 628 4666 
z
" transform="scale(0.015625)"/>
       <path id="DejaVuSans-6f" d="M 1959 3097 
Q 1497 3097 1228 2736 
Q 959 2375 959 1747 
Q 959 1119 1226 758 
Q 1494 397 1959 397 
Q 2419 397 2687 759 
Q 2956 1122 2956 1747 
Q 2956 2369 2687 2733 
Q 2419 3097 1959 3097 
z
M 1959 3584 
Q 2709 3584 3137 3096 
Q 3566 2609 3566 1747 
Q 3566 888 3137 398 
Q 2709 -91 1959 -91 
Q 1206 -91 779 398 
Q 353 888 353 1747 
Q 353 2609 779 3096 
Q 1206 3584 1959 3584 
z
" transform="scale(0.015625)"/>
       <path id="DejaVuSans-77" d="M 269 3500 
L 844 3500 
L 1563 769 
L 2278 3500 
L 2956 3500 
L 3675 769 
L 4391 3500 
L 4966 3500 
L 4050 0 
L 3372 0 
L 2619 2869 
L 1863 0 
L 1184 0 
L 269 3500 
z
" transform="scale(0.015625)"/>
       <path id="DejaVuSans-20" transform="scale(0.015625)"/>
       <path id="DejaVuSans-44" d="M 1259 4147 
L 1259 519 
L 2022 519 
Q 2988 519 3436 956 
Q 3884 1394 3884 2338 
Q 3884 3275 3436 3711 
Q 2988 4147 2022 4147 
L 1259 4147 
z
M 628 4666 
L 1925 4666 
Q 3281 4666 3915 4102 
Q 4550 3538 4550 2338 
Q 4550 1131 3912 565 
Q 3275 0 1925 0 
L 628 0 
L 628 4666 
z
" transform="scale(0.015625)"/>
       <path id="DejaVuSans-73" d="M 2834 3397 
L 2834 2853 
Q 2591 2978 2328 3040 
Q 2066 3103 1784 3103 
Q 1356 3103 1142 2972 
Q 928 2841 928 2578 
Q 928 2378 1081 2264 
Q 1234 2150 1697 2047 
L 1894 2003 
Q 2506 1872 2764 1633 
Q 3022 1394 3022 966 
Q 3022 478 2636 193 
Q 2250 -91 1575 -91 
Q 1294 -91 989 -36 
Q 684 19 347 128 
L 347 722 
Q 666 556 975 473 
Q 1284 391 1588 391 
Q 1994 391 2212 530 
Q 2431 669 2431 922 
Q 2431 1156 2273 1281 
Q 2116 1406 1581 1522 
L 1381 1569 
Q 847 1681 609 1914 
Q 372 2147 372 2553 
Q 372 3047 722 3315 
Q 1072 3584 1716 3584 
Q 2034 3584 2315 3537 
Q 2597 3491 2834 3397 
z
" transform="scale(0.015625)"/>
       <path id="DejaVuSans-69" d="M 603 3500 
L 1178 3500 
L 1178 0 
L 603 0 
L 603 3500 
z
M 603 4863 
L 1178 4863 
L 1178 4134 
L 603 4134 
L 603 4863 
z
" transform="scale(0.015625)"/>
       <path id="DejaVuSans-74" d="M 1172 4494 
L 1172 3500 
L 2356 3500 
L 2356 3053 
L 1172 3053 
L 1172 1153 
Q 1172 725 1289 603 
Q 1406 481 1766 481 
L 2356 481 
L 2356 0 
L 1766 0 
Q 1100 0 847 248 
Q 594 497 594 1153 
L 594 3053 
L 172 3053 
L 172 3500 
L 594 3500 
L 594 4494 
L 1172 4494 
z
" transform="scale(0.015625)"/>
      </defs>
      <use xlink:href="#DejaVuSans-50"/>
      <use xlink:href="#DejaVuSans-6f" x="56.677734"/>
      <use xlink:href="#DejaVuSans-77" x="117.859375"/>
      <use xlink:href="#DejaVuSans-65" x="199.646484"/>
      <use xlink:href="#DejaVuSans-72" x="261.169922"/>
      <use xlink:href="#DejaVuSans-20" x="302.283203"/>
      <use xlink:href="#DejaVuSans-44" x="334.070312"/>
      <use xlink:href="#DejaVuSans-65" x="411.072266"/>
      <use xlink:href="#DejaVuSans-6e" x="472.595703"/>
      <use xlink:href="#DejaVuSans-73" x="535.974609"/>
      <use xlink:href="#DejaVuSans-69" x="588.074219"/>
      <use xlink:href="#DejaVuSans-74" x="615.857422"/>
      <use xlink:href="#DejaVuSans-79" x="655.066406"/>
     </g>
    </g>
   </g>
   <g id="line2d_33">
    <path d="M 113.329298 -1 
L 118.958115 15.152334 
L 126.28095 32.424726 
L 133.603784 49.049692 
L 140.926619 67.764788 
L 148.249454 87.242089 
L 155.572288 99.08465 
L 162.895123 112.602088 
L 170.217958 90.149742 
L 171.512979 -1 
M 183.562423 -1 
L 184.863627 90.678922 
L 192.186462 133.806331 
L 199.509296 143.093147 
L 206.832131 150.200274 
L 214.154966 151.283179 
L 221.4778 152.98385 
L 228.800635 148.308947 
L 236.123469 157.69579 
L 243.446304 168.469404 
L 250.769139 173.304944 
L 258.091973 182.360023 
L 265.414808 187.183747 
L 272.737643 191.314144 
L 280.060477 196.865415 
L 287.383312 200.301197 
L 294.706147 197.329205 
L 302.028981 203.126191 
L 309.351816 206.472207 
L 316.674651 209.961858 
L 323.997485 211.788044 
L 331.32032 214.223817 
L 338.643155 215.25419 
L 345.965989 218.834391 
L 353.288824 220.942158 
L 360.611658 225.002487 
L 367.934493 225.501222 
L 375.257328 232.18556 
L 382.580162 236.177605 
L 389.902997 240.260269 
L 397.225832 243.958618 
L 404.548666 243.065744 
L 411.871501 227.097108 
L 419.194336 249.280334 
L 426.51717 255.362936 
L 433.840005 258.012502 
L 441.16284 257.499779 
L 448.485674 255.6603 
L 455.808509 260.600684 
L 463.131344 261.57247 
L 470.454178 261.010962 
L 477.777013 262.011615 
L 485.099847 260.599227 
L 492.422682 260.386762 
L 499.745517 259.483538 
L 507.068351 261.086463 
L 514.391186 260.543206 
L 521.714021 261.104942 
L 529.036855 258.956639 
L 536.35969 262.597312 
L 543.682525 261.889531 
L 551.005359 264.105375 
L 558.328194 265.76661 
L 565.651029 267.762851 
L 572.973863 268.408603 
L 580.296698 270.861189 
L 587.619532 271.521523 
L 594.942367 273.6453 
L 602.265202 274.956472 
L 609.588036 277.491955 
L 616.910871 279.088535 
L 624.233706 280.734276 
L 631.55654 281.0465 
L 638.879375 276.486563 
" clip-path="url(#p8d20d7a7a4)" style="fill: none; stroke: #1f77b4; stroke-width: 1.8; stroke-linecap: square"/>
   </g>
   <g id="line2d_34">
    <path d="M 82.343942 176.63945 
L 89.666777 188.605255 
L 96.989611 196.890218 
L 104.312446 206.101196 
L 111.635281 214.606357 
L 118.958115 223.964539 
L 126.28095 232.785562 
L 133.603784 240.891111 
L 140.926619 246.015965 
L 148.249454 253.354422 
L 155.572288 258.841802 
L 162.895123 264.981812 
L 170.217958 267.202394 
L 177.540792 260.874871 
L 184.863627 273.769704 
L 192.186462 281.272209 
L 199.509296 284.502782 
L 206.832131 288.140937 
L 214.154966 291.224678 
L 221.4778 293.408481 
L 228.800635 294.719742 
L 236.123469 296.439898 
L 243.446304 298.693392 
L 250.769139 300.154292 
L 258.091973 302.800681 
L 265.414808 304.014934 
L 272.737643 305.532058 
L 280.060477 307.526891 
L 287.383312 309.605641 
L 294.706147 310.727714 
L 302.028981 312.41073 
L 309.351816 313.973431 
L 316.674651 315.241613 
L 323.997485 316.728912 
L 331.32032 318.419006 
L 338.643155 319.481345 
L 345.965989 320.687494 
L 353.288824 322.291564 
L 360.611658 323.960681 
L 367.934493 325.267109 
L 375.257328 326.244198 
L 382.580162 326.901246 
L 389.902997 328.12176 
L 397.225832 328.206659 
L 404.548666 325.535451 
L 411.871501 322.679199 
L 419.194336 328.659812 
L 426.51717 331.469272 
L 433.840005 331.510026 
L 441.16284 331.313805 
L 448.485674 331.672389 
L 455.808509 331.882613 
L 463.131344 331.654859 
L 470.454178 330.868438 
L 477.777013 331.357407 
L 485.099847 330.918997 
L 492.422682 330.784734 
L 499.745517 330.20913 
L 507.068351 330.352969 
L 514.391186 330.167345 
L 521.714021 330.138566 
L 529.036855 329.690399 
L 536.35969 329.923092 
L 543.682525 329.260948 
L 551.005359 329.97145 
L 558.328194 330.147344 
L 565.651029 330.346282 
L 572.973863 330.573345 
L 580.296698 331.305658 
L 587.619532 331.503087 
L 594.942367 332.561575 
L 602.265202 332.61517 
L 609.588036 333.530733 
L 616.910871 333.857352 
L 624.233706 334.364181 
L 631.55654 334.749468 
L 638.879375 334.654913 
" clip-path="url(#p8d20d7a7a4)" style="fill: none; stroke: #ff7f0e; stroke-width: 1.8; stroke-linecap: square"/>
   </g>
   <g id="line2d_35">
    <path d="M 82.343942 228.686729 
L 89.666777 233.92539 
L 96.989611 237.981961 
L 104.312446 243.871261 
L 111.635281 248.67494 
L 118.958115 252.935579 
L 126.28095 256.067455 
L 133.603784 259.926441 
L 140.926619 262.959162 
L 148.249454 266.483154 
L 155.572288 269.025546 
L 162.895123 272.949466 
L 170.217958 274.723447 
L 177.540792 275.758579 
L 184.863627 279.389963 
L 192.186462 283.198748 
L 199.509296 285.245022 
L 206.832131 288.31018 
L 214.154966 290.219856 
L 221.4778 292.198708 
L 228.800635 294.492288 
L 236.123469 296.647897 
L 243.446304 298.596563 
L 250.769139 299.556749 
L 258.091973 301.467254 
L 265.414808 303.015149 
L 272.737643 304.252029 
L 280.060477 305.875009 
L 287.383312 307.234742 
L 294.706147 307.607924 
L 302.028981 308.849355 
L 309.351816 310.075192 
L 316.674651 310.970569 
L 323.997485 311.199679 
L 331.32032 312.514722 
L 338.643155 312.715895 
L 345.965989 313.645281 
L 353.288824 313.694427 
L 360.611658 314.208364 
L 367.934493 314.781337 
L 375.257328 314.962718 
L 382.580162 315.255878 
L 389.902997 316.33111 
L 397.225832 316.840047 
L 404.548666 317.409118 
L 411.871501 317.042623 
L 419.194336 317.855744 
L 426.51717 318.487884 
L 433.840005 318.55199 
L 441.16284 317.949693 
L 448.485674 318.625746 
L 455.808509 319.163515 
L 463.131344 319.631658 
L 470.454178 318.94935 
L 477.777013 320.263982 
L 485.099847 320.239763 
L 492.422682 319.457984 
L 499.745517 318.975071 
L 507.068351 320.238653 
L 514.391186 320.533672 
L 521.714021 320.872395 
L 529.036855 319.241723 
L 536.35969 320.669739 
L 543.682525 320.624093 
L 551.005359 321.760932 
L 558.328194 321.009825 
L 565.651029 320.76134 
L 572.973863 321.077336 
L 580.296698 321.712683 
L 587.619532 320.712937 
L 594.942367 320.82317 
L 602.265202 318.726045 
L 609.588036 317.239772 
L 616.910871 313.949237 
L 624.233706 308.072264 
L 631.55654 293.482281 
L 638.879375 244.818748 
" clip-path="url(#p8d20d7a7a4)" style="fill: none; stroke: #2ca02c; stroke-width: 1.8; stroke-linecap: square"/>
   </g>
   <g id="line2d_36">
    <path d="M 82.343942 170.507251 
L 89.666777 178.622555 
L 96.989611 183.661698 
L 104.312446 189.296084 
L 111.635281 194.636793 
L 118.958115 202.408398 
L 126.28095 207.91155 
L 133.603784 214.69298 
L 140.926619 220.941662 
L 148.249454 227.29506 
L 155.572288 233.911432 
L 162.895123 240.878759 
L 170.217958 246.154446 
L 177.540792 249.0414 
L 184.863627 256.162822 
L 192.186462 260.812793 
L 199.509296 263.743722 
L 206.832131 267.450657 
L 214.154966 270.675966 
L 221.4778 273.940057 
L 228.800635 277.110832 
L 236.123469 280.235649 
L 243.446304 283.662697 
L 250.769139 286.629266 
L 258.091973 290.441402 
L 265.414808 293.83865 
L 272.737643 296.532019 
L 280.060477 299.814246 
L 287.383312 302.592598 
L 294.706147 304.488059 
L 302.028981 306.360837 
L 309.351816 308.594619 
L 316.674651 310.328366 
L 323.997485 311.566253 
L 331.32032 313.117152 
L 338.643155 314.277243 
L 345.965989 315.62568 
L 353.288824 316.773096 
L 360.611658 318.264559 
L 367.934493 319.406221 
L 375.257328 320.683534 
L 382.580162 321.80922 
L 389.902997 323.04216 
L 397.225832 324.230733 
L 404.548666 325.416772 
L 411.871501 326.442541 
L 419.194336 327.241659 
L 426.51717 328.100302 
L 433.840005 328.830482 
L 441.16284 329.426736 
L 448.485674 330.131101 
L 455.808509 330.910888 
L 463.131344 331.416372 
L 470.454178 331.896609 
L 477.777013 332.645327 
L 485.099847 333.368431 
L 492.422682 333.938791 
L 499.745517 334.43649 
L 507.068351 334.998468 
L 514.391186 335.423118 
L 521.714021 335.905618 
L 529.036855 336.116742 
L 536.35969 336.543097 
L 543.682525 336.796443 
L 551.005359 337.051959 
L 558.328194 337.358071 
L 565.651029 337.587013 
L 572.973863 337.851811 
L 580.296698 337.962891 
L 587.619532 338.18598 
L 594.942367 338.366308 
L 602.265202 338.404502 
L 609.588036 338.436543 
L 616.910871 338.191951 
L 624.233706 337.744991 
L 631.55654 336.683467 
L 638.879375 331.323458 
" clip-path="url(#p8d20d7a7a4)" style="fill: none; stroke: #d62728; stroke-width: 1.8; stroke-linecap: square"/>
   </g>
   <g id="line2d_37">
    <path d="M 82.343942 204.296335 
L 89.666777 210.105811 
L 96.989611 214.760144 
L 104.312446 218.627795 
L 111.635281 223.56818 
L 118.958115 228.4244 
L 126.28095 231.927672 
L 133.603784 235.706727 
L 140.926619 239.438762 
L 148.249454 243.05938 
L 155.572288 245.907413 
L 162.895123 249.773835 
L 170.217958 252.455174 
L 177.540792 254.533399 
L 184.863627 259.086475 
L 192.186462 262.028409 
L 199.509296 265.292807 
L 206.832131 268.78112 
L 214.154966 271.611884 
L 221.4778 274.584788 
L 228.800635 277.075709 
L 236.123469 279.534223 
L 243.446304 282.60292 
L 250.769139 284.576172 
L 258.091973 286.749347 
L 265.414808 289.151454 
L 272.737643 290.807465 
L 280.060477 292.721533 
L 287.383312 294.636484 
L 294.706147 296.094955 
L 302.028981 297.486153 
L 309.351816 299.04075 
L 316.674651 300.285992 
L 323.997485 301.540618 
L 331.32032 302.795313 
L 338.643155 303.824804 
L 345.965989 304.717203 
L 353.288824 305.740677 
L 360.611658 306.692576 
L 367.934493 307.673273 
L 375.257328 308.561785 
L 382.580162 309.389905 
L 389.902997 310.106875 
L 397.225832 310.982549 
L 404.548666 311.902408 
L 411.871501 312.385708 
L 419.194336 313.418917 
L 426.51717 314.156601 
L 433.840005 314.893403 
L 441.16284 315.480021 
L 448.485674 316.256819 
L 455.808509 316.718771 
L 463.131344 317.272332 
L 470.454178 317.854698 
L 477.777013 318.365478 
L 485.099847 318.671015 
L 492.422682 319.032311 
L 499.745517 319.148982 
L 507.068351 319.678672 
L 514.391186 319.734976 
L 521.714021 319.854943 
L 529.036855 319.760245 
L 536.35969 319.942732 
L 543.682525 319.504627 
L 551.005359 319.625298 
L 558.328194 319.601338 
L 565.651029 319.346027 
L 572.973863 318.917082 
L 580.296698 318.78221 
L 587.619532 318.209019 
L 594.942367 317.579079 
L 602.265202 316.324305 
L 609.588036 315.065154 
L 616.910871 313.220549 
L 624.233706 310.311588 
L 631.55654 305.182376 
L 638.879375 292.392952 
" clip-path="url(#p8d20d7a7a4)" style="fill: none; stroke: #9467bd; stroke-width: 1.8; stroke-linecap: square"/>
   </g>
   <g id="line2d_38">
    <path d="M 82.343942 225.4499 
L 89.666777 236.98911 
L 96.989611 245.253284 
L 104.312446 249.928217 
L 111.635281 255.70376 
L 118.958115 258.573861 
L 126.28095 259.189317 
L 133.603784 262.537762 
L 140.926619 260.994813 
L 148.249454 259.86018 
L 155.572288 251.130034 
L 162.895123 237.584422 
L 170.217958 183.32819 
L 173.453534 -1 
M 182.060459 -1 
L 184.863627 143.415869 
L 192.186462 222.547145 
L 199.509296 245.263803 
L 206.832131 253.235768 
L 214.154966 252.264647 
L 221.4778 228.147616 
L 228.800635 112.516991 
L 236.123469 174.84246 
L 243.446304 252.080634 
L 250.769139 278.224152 
L 258.091973 292.215274 
L 265.414808 299.449932 
L 272.737643 305.492895 
L 280.060477 309.048362 
L 287.383312 312.527138 
L 294.706147 313.688171 
L 302.028981 316.838267 
L 309.351816 318.643035 
L 316.674651 320.158825 
L 323.997485 321.492129 
L 331.32032 322.641642 
L 338.643155 323.344605 
L 345.965989 324.446509 
L 353.288824 324.770282 
L 360.611658 324.154008 
L 367.934493 317.351467 
L 375.257328 322.639199 
L 382.580162 325.986786 
L 389.902997 326.956945 
L 397.225832 325.631458 
L 404.548666 320.135846 
L 411.871501 303.38041 
L 419.194336 322.962402 
L 426.51717 326.658644 
L 433.840005 326.790657 
L 441.16284 324.683341 
L 448.485674 319.724512 
L 455.808509 328.248201 
L 463.131344 332.353091 
L 470.454178 333.847091 
L 477.777013 334.938792 
L 485.099847 335.653809 
L 492.422682 336.16482 
L 499.745517 336.425558 
L 507.068351 337.006828 
L 514.391186 337.171312 
L 521.714021 337.307699 
L 529.036855 337.441149 
L 536.35969 337.136181 
L 543.682525 336.440989 
L 551.005359 334.845568 
L 558.328194 336.693524 
L 565.651029 337.966234 
L 572.973863 338.403893 
L 580.296698 338.847733 
L 587.619532 338.999988 
L 594.942367 339.144097 
L 602.265202 339.203809 
L 609.588036 339.180284 
L 616.910871 339.132186 
L 624.233706 339.150462 
L 631.55654 338.941561 
L 638.879375 338.212345 
" clip-path="url(#p8d20d7a7a4)" style="fill: none; stroke: #8c564b; stroke-width: 1.8; stroke-linecap: square"/>
   </g>
   <g id="line2d_39">
    <path d="M 82.343942 248.529311 
L 89.666777 251.322672 
L 96.989611 255.344735 
L 104.312446 258.301063 
L 111.635281 262.86782 
L 118.958115 266.869144 
L 126.28095 271.652093 
L 133.603784 275.840831 
L 140.926619 280.976114 
L 148.249454 284.684555 
L 155.572288 288.296083 
L 162.895123 291.690005 
L 170.217958 294.415151 
L 177.540792 294.547491 
L 184.863627 298.27053 
L 192.186462 300.529952 
L 199.509296 302.055294 
L 206.832131 303.487936 
L 214.154966 304.994189 
L 221.4778 306.550724 
L 228.800635 307.962037 
L 236.123469 310.006075 
L 243.446304 311.755342 
L 250.769139 313.711755 
L 258.091973 315.328812 
L 265.414808 316.980421 
L 272.737643 318.255731 
L 280.060477 319.676546 
L 287.383312 320.962706 
L 294.706147 321.957625 
L 302.028981 323.061541 
L 309.351816 324.159098 
L 316.674651 325.294198 
L 323.997485 326.049285 
L 331.32032 326.996321 
L 338.643155 327.67964 
L 345.965989 328.692229 
L 353.288824 329.543264 
L 360.611658 330.289498 
L 367.934493 330.971531 
L 375.257328 331.859431 
L 382.580162 332.665773 
L 389.902997 333.445346 
L 397.225832 333.955306 
L 404.548666 334.662004 
L 411.871501 334.755383 
L 419.194336 335.306554 
L 426.51717 335.889189 
L 433.840005 336.027628 
L 441.16284 335.870978 
L 448.485674 335.335578 
L 455.808509 336.341416 
L 463.131344 336.381565 
L 470.454178 336.32032 
L 477.777013 336.486987 
L 485.099847 336.444793 
L 492.422682 336.408111 
L 499.745517 336.288743 
L 507.068351 336.494095 
L 514.391186 336.50502 
L 521.714021 336.663466 
L 529.036855 336.665888 
L 536.35969 337.032378 
L 543.682525 337.043139 
L 551.005359 337.361219 
L 558.328194 337.605548 
L 565.651029 337.831862 
L 572.973863 338.204813 
L 580.296698 338.54276 
L 587.619532 338.871641 
L 594.942367 339.322649 
L 602.265202 339.503405 
L 609.588036 339.959347 
L 616.910871 340.277616 
L 624.233706 340.573368 
L 631.55654 340.708181 
L 638.879375 340.454977 
" clip-path="url(#p8d20d7a7a4)" style="fill: none; stroke: #e377c2; stroke-width: 1.8; stroke-linecap: square"/>
   </g>
   <g id="line2d_40">
    <path d="M 82.343942 106.875845 
L 89.666777 110.462687 
L 96.989611 117.38356 
L 104.312446 122.864545 
L 111.635281 130.979671 
L 118.958115 137.713458 
L 126.28095 144.058142 
L 133.603784 151.758707 
L 140.926619 158.678668 
L 148.249454 165.937173 
L 155.572288 173.026019 
L 162.895123 178.662249 
L 170.217958 182.460664 
L 177.540792 182.579546 
L 184.863627 191.862793 
L 192.186462 197.929921 
L 199.509296 202.239097 
L 206.832131 205.853856 
L 214.154966 208.295071 
L 221.4778 211.812153 
L 228.800635 213.680738 
L 236.123469 218.472679 
L 243.446304 221.972294 
L 250.769139 225.115431 
L 258.091973 229.139337 
L 265.414808 232.007356 
L 272.737643 234.416948 
L 280.060477 237.518785 
L 287.383312 239.70464 
L 294.706147 241.999137 
L 302.028981 244.359112 
L 309.351816 245.855606 
L 316.674651 247.735908 
L 323.997485 248.970321 
L 331.32032 250.697728 
L 338.643155 251.757327 
L 345.965989 252.967412 
L 353.288824 254.823635 
L 360.611658 255.545581 
L 367.934493 254.382308 
L 375.257328 256.884104 
L 382.580162 260.233124 
L 389.902997 261.648992 
L 397.225832 262.109025 
L 404.548666 261.710306 
L 411.871501 259.19244 
L 419.194336 264.172469 
L 426.51717 264.718551 
L 433.840005 264.535836 
L 441.16284 263.413664 
L 448.485674 260.787474 
L 455.808509 263.489016 
L 463.131344 264.110074 
L 470.454178 262.921481 
L 477.777013 262.700501 
L 485.099847 262.066566 
L 492.422682 261.552435 
L 499.745517 260.534344 
L 507.068351 260.702694 
L 514.391186 260.716384 
L 521.714021 260.261764 
L 529.036855 259.86586 
L 536.35969 259.852061 
L 543.682525 259.091977 
L 551.005359 256.414931 
L 558.328194 259.538955 
L 565.651029 259.886223 
L 572.973863 260.297918 
L 580.296698 261.2128 
L 587.619532 262.382547 
L 594.942367 263.836492 
L 602.265202 265.680244 
L 609.588036 267.077505 
L 616.910871 268.564799 
L 624.233706 269.600793 
L 631.55654 270.047473 
L 638.879375 265.063569 
" clip-path="url(#p8d20d7a7a4)" style="fill: none; stroke: #7f7f7f; stroke-width: 1.8; stroke-linecap: square"/>
   </g>
   <g id="line2d_41">
    <path d="M 82.343942 300.1104 
L 89.666777 301.459025 
L 96.989611 303.026906 
L 104.312446 304.045582 
L 111.635281 305.287647 
L 118.958115 306.63824 
L 126.28095 307.956609 
L 133.603784 308.982993 
L 140.926619 309.930272 
L 148.249454 311.104034 
L 155.572288 311.666949 
L 162.895123 312.349475 
L 170.217958 312.790935 
L 177.540792 310.982559 
L 184.863627 313.949797 
L 192.186462 315.283373 
L 199.509296 316.021999 
L 206.832131 316.934671 
L 214.154966 317.30699 
L 221.4778 318.14652 
L 228.800635 318.727725 
L 236.123469 319.246114 
L 243.446304 319.642801 
L 250.769139 320.09987 
L 258.091973 320.664822 
L 265.414808 321.314797 
L 272.737643 321.387274 
L 280.060477 321.622753 
L 287.383312 321.807862 
L 294.706147 322.146005 
L 302.028981 322.265442 
L 309.351816 322.310499 
L 316.674651 322.608631 
L 323.997485 322.487275 
L 331.32032 322.372121 
L 338.643155 322.210467 
L 345.965989 321.972629 
L 353.288824 321.681268 
L 360.611658 321.148802 
L 367.934493 319.255586 
L 375.257328 320.265008 
L 382.580162 321.198532 
L 389.902997 321.160009 
L 397.225832 321.238132 
L 404.548666 321.318619 
L 411.871501 321.233006 
L 419.194336 321.164623 
L 426.51717 321.259579 
L 433.840005 321.020864 
L 441.16284 321.187459 
L 448.485674 320.956248 
L 455.808509 320.99381 
L 463.131344 321.033236 
L 470.454178 321.203301 
L 477.777013 320.830669 
L 485.099847 321.093172 
L 492.422682 321.071328 
L 499.745517 321.048755 
L 507.068351 320.967569 
L 514.391186 321.094411 
L 521.714021 321.168306 
L 529.036855 321.464401 
L 536.35969 321.565702 
L 543.682525 321.61688 
L 551.005359 321.681902 
L 558.328194 321.874847 
L 565.651029 322.021512 
L 572.973863 322.419675 
L 580.296698 322.717069 
L 587.619532 323.236454 
L 594.942367 323.426525 
L 602.265202 323.805208 
L 609.588036 324.25 
L 616.910871 324.22652 
L 624.233706 324.357139 
L 631.55654 324.647197 
L 638.879375 324.179728 
" clip-path="url(#p8d20d7a7a4)" style="fill: none; stroke: #bcbd22; stroke-width: 1.8; stroke-linecap: square"/>
   </g>
   <g id="patch_3">
    <path d="M 80.879375 372.439219 
L 80.879375 39.799219 
" style="fill: none; stroke: #000000; stroke-width: 0.8; stroke-linejoin: miter; stroke-linecap: square"/>
   </g>
   <g id="patch_4">
    <path d="M 638.879375 372.439219 
L 638.879375 39.799219 
" style="fill: none; stroke: #000000; stroke-width: 0.8; stroke-linejoin: miter; stroke-linecap: square"/>
   </g>
   <g id="patch_5">
    <path d="M 80.879375 372.439219 
L 638.879375 372.439219 
" style="fill: none; stroke: #000000; stroke-width: 0.8; stroke-linejoin: miter; stroke-linecap: square"/>
   </g>
   <g id="patch_6">
    <path d="M 80.879375 39.799219 
L 638.879375 39.799219 
" style="fill: none; stroke: #000000; stroke-width: 0.8; stroke-linejoin: miter; stroke-linecap: square"/>
   </g>
   <g id="legend_1">
    <g id="patch_7">
     <path d="M 544.545 179.902344 
L 631.879375 179.902344 
Q 633.879375 179.902344 633.879375 177.902344 
L 633.879375 46.799219 
Q 633.879375 44.799219 631.879375 44.799219 
L 544.545 44.799219 
Q 542.545 44.799219 542.545 46.799219 
L 542.545 177.902344 
Q 542.545 179.902344 544.545 179.902344 
z
" style="fill: #ffffff; opacity: 0.8; stroke: #cccccc; stroke-linejoin: miter"/>
    </g>
    <g id="line2d_42">
     <path d="M 546.545 52.897656 
L 556.545 52.897656 
L 566.545 52.897656 
" style="fill: none; stroke: #1f77b4; stroke-width: 1.8; stroke-linecap: square"/>
    </g>
    <g id="text_19">
     <!-- Flux -->
     <g transform="translate(574.545 56.397656) scale(0.1 -0.1)">
      <defs>
       <path id="DejaVuSans-6c" d="M 603 4863 
L 1178 4863 
L 1178 0 
L 603 0 
L 603 4863 
z
" transform="scale(0.015625)"/>
       <path id="DejaVuSans-78" d="M 3513 3500 
L 2247 1797 
L 3578 0 
L 2900 0 
L 1881 1375 
L 863 0 
L 184 0 
L 1544 1831 
L 300 3500 
L 978 3500 
L 1906 2253 
L 2834 3500 
L 3513 3500 
z
" transform="scale(0.015625)"/>
      </defs>
      <use xlink:href="#DejaVuSans-46"/>
      <use xlink:href="#DejaVuSans-6c" x="57.519531"/>
      <use xlink:href="#DejaVuSans-75" x="85.302734"/>
      <use xlink:href="#DejaVuSans-78" x="148.681641"/>
     </g>
    </g>
    <g id="line2d_43">
     <path d="M 546.545 67.575781 
L 556.545 67.575781 
L 566.545 67.575781 
" style="fill: none; stroke: #ff7f0e; stroke-width: 1.8; stroke-linecap: square"/>
    </g>
    <g id="text_20">
     <!-- BigGAN -->
     <g transform="translate(574.545 71.075781) scale(0.1 -0.1)">
      <defs>
       <path id="DejaVuSans-42" d="M 1259 2228 
L 1259 519 
L 2272 519 
Q 2781 519 3026 730 
Q 3272 941 3272 1375 
Q 3272 1813 3026 2020 
Q 2781 2228 2272 2228 
L 1259 2228 
z
M 1259 4147 
L 1259 2741 
L 2194 2741 
Q 2656 2741 2882 2914 
Q 3109 3088 3109 3444 
Q 3109 3797 2882 3972 
Q 2656 4147 2194 4147 
L 1259 4147 
z
M 628 4666 
L 2241 4666 
Q 2963 4666 3353 4366 
Q 3744 4066 3744 3513 
Q 3744 3084 3544 2831 
Q 3344 2578 2956 2516 
Q 3422 2416 3680 2098 
Q 3938 1781 3938 1306 
Q 3938 681 3513 340 
Q 3088 0 2303 0 
L 628 0 
L 628 4666 
z
" transform="scale(0.015625)"/>
       <path id="DejaVuSans-67" d="M 2906 1791 
Q 2906 2416 2648 2759 
Q 2391 3103 1925 3103 
Q 1463 3103 1205 2759 
Q 947 2416 947 1791 
Q 947 1169 1205 825 
Q 1463 481 1925 481 
Q 2391 481 2648 825 
Q 2906 1169 2906 1791 
z
M 3481 434 
Q 3481 -459 3084 -895 
Q 2688 -1331 1869 -1331 
Q 1566 -1331 1297 -1286 
Q 1028 -1241 775 -1147 
L 775 -588 
Q 1028 -725 1275 -790 
Q 1522 -856 1778 -856 
Q 2344 -856 2625 -561 
Q 2906 -266 2906 331 
L 2906 616 
Q 2728 306 2450 153 
Q 2172 0 1784 0 
Q 1141 0 747 490 
Q 353 981 353 1791 
Q 353 2603 747 3093 
Q 1141 3584 1784 3584 
Q 2172 3584 2450 3431 
Q 2728 3278 2906 2969 
L 2906 3500 
L 3481 3500 
L 3481 434 
z
" transform="scale(0.015625)"/>
       <path id="DejaVuSans-47" d="M 3809 666 
L 3809 1919 
L 2778 1919 
L 2778 2438 
L 4434 2438 
L 4434 434 
Q 4069 175 3628 42 
Q 3188 -91 2688 -91 
Q 1594 -91 976 548 
Q 359 1188 359 2328 
Q 359 3472 976 4111 
Q 1594 4750 2688 4750 
Q 3144 4750 3555 4637 
Q 3966 4525 4313 4306 
L 4313 3634 
Q 3963 3931 3569 4081 
Q 3175 4231 2741 4231 
Q 1884 4231 1454 3753 
Q 1025 3275 1025 2328 
Q 1025 1384 1454 906 
Q 1884 428 2741 428 
Q 3075 428 3337 486 
Q 3600 544 3809 666 
z
" transform="scale(0.015625)"/>
       <path id="DejaVuSans-41" d="M 2188 4044 
L 1331 1722 
L 3047 1722 
L 2188 4044 
z
M 1831 4666 
L 2547 4666 
L 4325 0 
L 3669 0 
L 3244 1197 
L 1141 1197 
L 716 0 
L 50 0 
L 1831 4666 
z
" transform="scale(0.015625)"/>
       <path id="DejaVuSans-4e" d="M 628 4666 
L 1478 4666 
L 3547 763 
L 3547 4666 
L 4159 4666 
L 4159 0 
L 3309 0 
L 1241 3903 
L 1241 0 
L 628 0 
L 628 4666 
z
" transform="scale(0.015625)"/>
      </defs>
      <use xlink:href="#DejaVuSans-42"/>
      <use xlink:href="#DejaVuSans-69" x="68.603516"/>
      <use xlink:href="#DejaVuSans-67" x="96.386719"/>
      <use xlink:href="#DejaVuSans-47" x="159.863281"/>
      <use xlink:href="#DejaVuSans-41" x="237.353516"/>
      <use xlink:href="#DejaVuSans-4e" x="305.761719"/>
     </g>
    </g>
    <g id="line2d_44">
     <path d="M 546.545 82.253906 
L 556.545 82.253906 
L 566.545 82.253906 
" style="fill: none; stroke: #2ca02c; stroke-width: 1.8; stroke-linecap: square"/>
    </g>
    <g id="text_21">
     <!-- DALLE -->
     <g transform="translate(574.545 85.753906) scale(0.1 -0.1)">
      <defs>
       <path id="DejaVuSans-4c" d="M 628 4666 
L 1259 4666 
L 1259 531 
L 3531 531 
L 3531 0 
L 628 0 
L 628 4666 
z
" transform="scale(0.015625)"/>
       <path id="DejaVuSans-45" d="M 628 4666 
L 3578 4666 
L 3578 4134 
L 1259 4134 
L 1259 2753 
L 3481 2753 
L 3481 2222 
L 1259 2222 
L 1259 531 
L 3634 531 
L 3634 0 
L 628 0 
L 628 4666 
z
" transform="scale(0.015625)"/>
      </defs>
      <use xlink:href="#DejaVuSans-44"/>
      <use xlink:href="#DejaVuSans-41" x="75.251953"/>
      <use xlink:href="#DejaVuSans-4c" x="143.660156"/>
      <use xlink:href="#DejaVuSans-4c" x="199.373047"/>
      <use xlink:href="#DejaVuSans-45" x="255.085938"/>
     </g>
    </g>
    <g id="line2d_45">
     <path d="M 546.545 96.932031 
L 556.545 96.932031 
L 566.545 96.932031 
" style="fill: none; stroke: #d62728; stroke-width: 1.8; stroke-linecap: square"/>
    </g>
    <g id="text_22">
     <!-- LD -->
     <g transform="translate(574.545 100.432031) scale(0.1 -0.1)">
      <use xlink:href="#DejaVuSans-4c"/>
      <use xlink:href="#DejaVuSans-44" x="55.712891"/>
     </g>
    </g>
    <g id="line2d_46">
     <path d="M 546.545 111.610156 
L 556.545 111.610156 
L 566.545 111.610156 
" style="fill: none; stroke: #9467bd; stroke-width: 1.8; stroke-linecap: square"/>
    </g>
    <g id="text_23">
     <!-- Glide -->
     <g transform="translate(574.545 115.110156) scale(0.1 -0.1)">
      <defs>
       <path id="DejaVuSans-64" d="M 2906 2969 
L 2906 4863 
L 3481 4863 
L 3481 0 
L 2906 0 
L 2906 525 
Q 2725 213 2448 61 
Q 2172 -91 1784 -91 
Q 1150 -91 751 415 
Q 353 922 353 1747 
Q 353 2572 751 3078 
Q 1150 3584 1784 3584 
Q 2172 3584 2448 3432 
Q 2725 3281 2906 2969 
z
M 947 1747 
Q 947 1113 1208 752 
Q 1469 391 1925 391 
Q 2381 391 2643 752 
Q 2906 1113 2906 1747 
Q 2906 2381 2643 2742 
Q 2381 3103 1925 3103 
Q 1469 3103 1208 2742 
Q 947 2381 947 1747 
z
" transform="scale(0.015625)"/>
      </defs>
      <use xlink:href="#DejaVuSans-47"/>
      <use xlink:href="#DejaVuSans-6c" x="77.490234"/>
      <use xlink:href="#DejaVuSans-69" x="105.273438"/>
      <use xlink:href="#DejaVuSans-64" x="133.056641"/>
      <use xlink:href="#DejaVuSans-65" x="196.533203"/>
     </g>
    </g>
    <g id="line2d_47">
     <path d="M 546.545 126.288281 
L 556.545 126.288281 
L 566.545 126.288281 
" style="fill: none; stroke: #8c564b; stroke-width: 1.8; stroke-linecap: square"/>
    </g>
    <g id="text_24">
     <!-- CycleGAN -->
     <g transform="translate(574.545 129.788281) scale(0.1 -0.1)">
      <defs>
       <path id="DejaVuSans-43" d="M 4122 4306 
L 4122 3641 
Q 3803 3938 3442 4084 
Q 3081 4231 2675 4231 
Q 1875 4231 1450 3742 
Q 1025 3253 1025 2328 
Q 1025 1406 1450 917 
Q 1875 428 2675 428 
Q 3081 428 3442 575 
Q 3803 722 4122 1019 
L 4122 359 
Q 3791 134 3420 21 
Q 3050 -91 2638 -91 
Q 1578 -91 968 557 
Q 359 1206 359 2328 
Q 359 3453 968 4101 
Q 1578 4750 2638 4750 
Q 3056 4750 3426 4639 
Q 3797 4528 4122 4306 
z
" transform="scale(0.015625)"/>
      </defs>
      <use xlink:href="#DejaVuSans-43"/>
      <use xlink:href="#DejaVuSans-79" x="69.824219"/>
      <use xlink:href="#DejaVuSans-63" x="129.003906"/>
      <use xlink:href="#DejaVuSans-6c" x="183.984375"/>
      <use xlink:href="#DejaVuSans-65" x="211.767578"/>
      <use xlink:href="#DejaVuSans-47" x="273.291016"/>
      <use xlink:href="#DejaVuSans-41" x="350.78125"/>
      <use xlink:href="#DejaVuSans-4e" x="419.189453"/>
     </g>
    </g>
    <g id="line2d_48">
     <path d="M 546.545 140.966406 
L 556.545 140.966406 
L 566.545 140.966406 
" style="fill: none; stroke: #e377c2; stroke-width: 1.8; stroke-linecap: square"/>
    </g>
    <g id="text_25">
     <!-- SD14 -->
     <g transform="translate(574.545 144.466406) scale(0.1 -0.1)">
      <defs>
       <path id="DejaVuSans-53" d="M 3425 4513 
L 3425 3897 
Q 3066 4069 2747 4153 
Q 2428 4238 2131 4238 
Q 1616 4238 1336 4038 
Q 1056 3838 1056 3469 
Q 1056 3159 1242 3001 
Q 1428 2844 1947 2747 
L 2328 2669 
Q 3034 2534 3370 2195 
Q 3706 1856 3706 1288 
Q 3706 609 3251 259 
Q 2797 -91 1919 -91 
Q 1588 -91 1214 -16 
Q 841 59 441 206 
L 441 856 
Q 825 641 1194 531 
Q 1563 422 1919 422 
Q 2459 422 2753 634 
Q 3047 847 3047 1241 
Q 3047 1584 2836 1778 
Q 2625 1972 2144 2069 
L 1759 2144 
Q 1053 2284 737 2584 
Q 422 2884 422 3419 
Q 422 4038 858 4394 
Q 1294 4750 2059 4750 
Q 2388 4750 2728 4690 
Q 3069 4631 3425 4513 
z
" transform="scale(0.015625)"/>
      </defs>
      <use xlink:href="#DejaVuSans-53"/>
      <use xlink:href="#DejaVuSans-44" x="63.476562"/>
      <use xlink:href="#DejaVuSans-31" x="140.478516"/>
      <use xlink:href="#DejaVuSans-34" x="204.101562"/>
     </g>
    </g>
    <g id="line2d_49">
     <path d="M 546.545 155.644531 
L 556.545 155.644531 
L 566.545 155.644531 
" style="fill: none; stroke: #7f7f7f; stroke-width: 1.8; stroke-linecap: square"/>
    </g>
    <g id="text_26">
     <!-- SD15 -->
     <g transform="translate(574.545 159.144531) scale(0.1 -0.1)">
      <use xlink:href="#DejaVuSans-53"/>
      <use xlink:href="#DejaVuSans-44" x="63.476562"/>
      <use xlink:href="#DejaVuSans-31" x="140.478516"/>
      <use xlink:href="#DejaVuSans-35" x="204.101562"/>
     </g>
    </g>
    <g id="line2d_50">
     <path d="M 546.545 170.322656 
L 556.545 170.322656 
L 566.545 170.322656 
" style="fill: none; stroke: #bcbd22; stroke-width: 1.8; stroke-linecap: square"/>
    </g>
    <g id="text_27">
     <!-- Midjourney -->
     <g transform="translate(574.545 173.822656) scale(0.1 -0.1)">
      <defs>
       <path id="DejaVuSans-4d" d="M 628 4666 
L 1569 4666 
L 2759 1491 
L 3956 4666 
L 4897 4666 
L 4897 0 
L 4281 0 
L 4281 4097 
L 3078 897 
L 2444 897 
L 1241 4097 
L 1241 0 
L 628 0 
L 628 4666 
z
" transform="scale(0.015625)"/>
       <path id="DejaVuSans-6a" d="M 603 3500 
L 1178 3500 
L 1178 -63 
Q 1178 -731 923 -1031 
Q 669 -1331 103 -1331 
L -116 -1331 
L -116 -844 
L 38 -844 
Q 366 -844 484 -692 
Q 603 -541 603 -63 
L 603 3500 
z
M 603 4863 
L 1178 4863 
L 1178 4134 
L 603 4134 
L 603 4863 
z
" transform="scale(0.015625)"/>
      </defs>
      <use xlink:href="#DejaVuSans-4d"/>
      <use xlink:href="#DejaVuSans-69" x="86.279297"/>
      <use xlink:href="#DejaVuSans-64" x="114.0625"/>
      <use xlink:href="#DejaVuSans-6a" x="177.539062"/>
      <use xlink:href="#DejaVuSans-6f" x="205.322266"/>
      <use xlink:href="#DejaVuSans-75" x="266.503906"/>
      <use xlink:href="#DejaVuSans-72" x="329.882812"/>
      <use xlink:href="#DejaVuSans-6e" x="369.246094"/>
      <use xlink:href="#DejaVuSans-65" x="432.625"/>
      <use xlink:href="#DejaVuSans-79" x="494.148438"/>
     </g>
    </g>
   </g>
  </g>
 </g>
 <defs>
  <clipPath id="p8d20d7a7a4">
   <rect x="80.879375" y="39.799219" width="558" height="332.64"/>
  </clipPath>
 </defs>
</svg>
