<?xml version="1.0" encoding="utf-8" standalone="no"?>
<!DOCTYPE svg PUBLIC "-//W3C//DTD SVG 1.1//EN"
  "http://www.w3.org/Graphics/SVG/1.1/DTD/svg11.dtd">
<svg xmlns:xlink="http://www.w3.org/1999/xlink" width="561.245pt" height="637.239062pt" viewBox="0 0 561.245 637.239062" xmlns="http://www.w3.org/2000/svg" version="1.1">
 <metadata>
  <rdf:RDF xmlns:dc="http://purl.org/dc/elements/1.1/" xmlns:cc="http://creativecommons.org/ns#" xmlns:rdf="http://www.w3.org/1999/02/22-rdf-syntax-ns#">
   <cc:Work>
    <dc:type rdf:resource="http://purl.org/dc/dcmitype/StillImage"/>
    <dc:date>2025-04-06T17:00:25.153504</dc:date>
    <dc:format>image/svg+xml</dc:format>
    <dc:creator>
     <cc:Agent>
      <dc:title>Matplotlib v3.7.5, https://matplotlib.org/</dc:title>
     </cc:Agent>
    </dc:creator>
   </cc:Work>
  </rdf:RDF>
 </metadata>
 <defs>
  <style type="text/css">*{stroke-linejoin: round; stroke-linecap: butt}</style>
 </defs>
 <g id="figure_1">
  <g id="patch_1">
   <path d="M 0 637.239062 
L 561.245 637.239062 
L 561.245 0 
L 0 0 
z
" style="fill: #ffffff"/>
  </g>
  <g id="axes_1">
   <g id="patch_2">
    <path d="M 505.56375 276.599062 
C 505.56375 247.477806 499.827497 218.639717 488.683275 191.735185 
C 477.539053 164.830652 461.203588 140.382901 440.61175 119.791063 
C 420.019912 99.199225 395.572161 82.86376 368.667628 71.719537 
C 341.763095 60.575315 312.925006 54.839062 283.80375 54.839062 
C 254.682494 54.839062 225.844405 60.575315 198.939872 71.719537 
C 172.035339 82.86376 147.587588 99.199225 126.99575 119.791063 
C 106.403912 140.382901 90.068447 164.830652 78.924225 191.735185 
C 67.780003 218.639717 62.04375 247.477806 62.04375 276.599062 
C 62.04375 305.720319 67.780003 334.558408 78.924225 361.46294 
C 90.068447 388.367473 106.403912 412.815224 126.99575 433.407062 
C 147.587588 453.9989 172.035339 470.334365 198.939872 481.478588 
C 225.844405 492.62281 254.682494 498.359062 283.80375 498.359062 
C 312.925006 498.359062 341.763095 492.62281 368.667628 481.478588 
C 395.572161 470.334365 420.019912 453.9989 440.61175 433.407062 
C 461.203588 412.815224 477.539053 388.367473 488.683275 361.46294 
C 499.827497 334.558408 505.56375 305.720319 505.56375 276.599062 
M 283.80375 276.599062 
C 283.80375 276.599062 283.80375 276.599062 283.80375 276.599062 
C 283.80375 276.599062 283.80375 276.599062 283.80375 276.599062 
C 283.80375 276.599062 283.80375 276.599062 283.80375 276.599062 
C 283.80375 276.599062 283.80375 276.599062 283.80375 276.599062 
C 283.80375 276.599062 283.80375 276.599062 283.80375 276.599062 
C 283.80375 276.599062 283.80375 276.599062 283.80375 276.599062 
C 283.80375 276.599062 283.80375 276.599062 283.80375 276.599062 
C 283.80375 276.599062 283.80375 276.599062 283.80375 276.599062 
C 283.80375 276.599062 283.80375 276.599062 283.80375 276.599062 
C 283.80375 276.599062 283.80375 276.599062 283.80375 276.599062 
C 283.80375 276.599062 283.80375 276.599062 283.80375 276.599062 
C 283.80375 276.599062 283.80375 276.599062 283.80375 276.599062 
C 283.80375 276.599062 283.80375 276.599062 283.80375 276.599062 
C 283.80375 276.599062 283.80375 276.599062 283.80375 276.599062 
C 283.80375 276.599062 283.80375 276.599062 283.80375 276.599062 
C 283.80375 276.599062 283.80375 276.599062 283.80375 276.599062 
z
" style="fill: #ffffff"/>
   </g>
   <g id="matplotlib.axis_1">
    <g id="xtick_1">
     <g id="line2d_1">
      <path d="M 283.80375 276.599062 
L 505.56375 276.599062 
" clip-path="url(#pe4adc46a76)" style="fill: none; stroke: #b0b0b0; stroke-width: 0.8; stroke-linecap: square"/>
     </g>
     <g id="text_1">
      <!-- 0° -->
      <g transform="translate(513.8825 279.358437) scale(0.1 -0.1)">
       <defs>
        <path id="DejaVuSans-30" d="M 2034 4250 
Q 1547 4250 1301 3770 
Q 1056 3291 1056 2328 
Q 1056 1369 1301 889 
Q 1547 409 2034 409 
Q 2525 409 2770 889 
Q 3016 1369 3016 2328 
Q 3016 3291 2770 3770 
Q 2525 4250 2034 4250 
z
M 2034 4750 
Q 2819 4750 3233 4129 
Q 3647 3509 3647 2328 
Q 3647 1150 3233 529 
Q 2819 -91 2034 -91 
Q 1250 -91 836 529 
Q 422 1150 422 2328 
Q 422 3509 836 4129 
Q 1250 4750 2034 4750 
z
" transform="scale(0.015625)"/>
        <path id="DejaVuSans-b0" d="M 1600 4347 
Q 1350 4347 1178 4173 
Q 1006 4000 1006 3750 
Q 1006 3503 1178 3333 
Q 1350 3163 1600 3163 
Q 1850 3163 2022 3333 
Q 2194 3503 2194 3750 
Q 2194 3997 2020 4172 
Q 1847 4347 1600 4347 
z
M 1600 4750 
Q 1800 4750 1984 4673 
Q 2169 4597 2303 4453 
Q 2447 4313 2519 4134 
Q 2591 3956 2591 3750 
Q 2591 3338 2302 3052 
Q 2013 2766 1594 2766 
Q 1172 2766 890 3047 
Q 609 3328 609 3750 
Q 609 4169 896 4459 
Q 1184 4750 1600 4750 
z
" transform="scale(0.015625)"/>
       </defs>
       <use xlink:href="#DejaVuSans-30"/>
       <use xlink:href="#DejaVuSans-b0" x="63.623047"/>
      </g>
     </g>
    </g>
    <g id="xtick_2">
     <g id="line2d_2">
      <path d="M 283.80375 276.599062 
L 440.61175 119.791063 
" clip-path="url(#pe4adc46a76)" style="fill: none; stroke: #b0b0b0; stroke-width: 0.8; stroke-linecap: square"/>
     </g>
     <g id="text_2">
      <!-- 45° -->
      <g transform="translate(441.648745 112.650943) scale(0.1 -0.1)">
       <defs>
        <path id="DejaVuSans-34" d="M 2419 4116 
L 825 1625 
L 2419 1625 
L 2419 4116 
z
M 2253 4666 
L 3047 4666 
L 3047 1625 
L 3713 1625 
L 3713 1100 
L 3047 1100 
L 3047 0 
L 2419 0 
L 2419 1100 
L 313 1100 
L 313 1709 
L 2253 4666 
z
" transform="scale(0.015625)"/>
        <path id="DejaVuSans-35" d="M 691 4666 
L 3169 4666 
L 3169 4134 
L 1269 4134 
L 1269 2991 
Q 1406 3038 1543 3061 
Q 1681 3084 1819 3084 
Q 2600 3084 3056 2656 
Q 3513 2228 3513 1497 
Q 3513 744 3044 326 
Q 2575 -91 1722 -91 
Q 1428 -91 1123 -41 
Q 819 9 494 109 
L 494 744 
Q 775 591 1075 516 
Q 1375 441 1709 441 
Q 2250 441 2565 725 
Q 2881 1009 2881 1497 
Q 2881 1984 2565 2268 
Q 2250 2553 1709 2553 
Q 1456 2553 1204 2497 
Q 953 2441 691 2322 
L 691 4666 
z
" transform="scale(0.015625)"/>
       </defs>
       <use xlink:href="#DejaVuSans-34"/>
       <use xlink:href="#DejaVuSans-35" x="63.623047"/>
       <use xlink:href="#DejaVuSans-b0" x="127.246094"/>
      </g>
     </g>
    </g>
    <g id="xtick_3">
     <g id="line2d_3">
      <path d="M 283.80375 276.599062 
L 283.80375 54.839062 
" clip-path="url(#pe4adc46a76)" style="fill: none; stroke: #b0b0b0; stroke-width: 0.8; stroke-linecap: square"/>
     </g>
     <g id="text_3">
      <!-- 90° -->
      <g transform="translate(274.94125 43.598437) scale(0.1 -0.1)">
       <defs>
        <path id="DejaVuSans-39" d="M 703 97 
L 703 672 
Q 941 559 1184 500 
Q 1428 441 1663 441 
Q 2288 441 2617 861 
Q 2947 1281 2994 2138 
Q 2813 1869 2534 1725 
Q 2256 1581 1919 1581 
Q 1219 1581 811 2004 
Q 403 2428 403 3163 
Q 403 3881 828 4315 
Q 1253 4750 1959 4750 
Q 2769 4750 3195 4129 
Q 3622 3509 3622 2328 
Q 3622 1225 3098 567 
Q 2575 -91 1691 -91 
Q 1453 -91 1209 -44 
Q 966 3 703 97 
z
M 1959 2075 
Q 2384 2075 2632 2365 
Q 2881 2656 2881 3163 
Q 2881 3666 2632 3958 
Q 2384 4250 1959 4250 
Q 1534 4250 1286 3958 
Q 1038 3666 1038 3163 
Q 1038 2656 1286 2365 
Q 1534 2075 1959 2075 
z
" transform="scale(0.015625)"/>
       </defs>
       <use xlink:href="#DejaVuSans-39"/>
       <use xlink:href="#DejaVuSans-30" x="63.623047"/>
       <use xlink:href="#DejaVuSans-b0" x="127.246094"/>
      </g>
     </g>
    </g>
    <g id="xtick_4">
     <g id="line2d_4">
      <path d="M 283.80375 276.599062 
L 126.99575 119.791063 
" clip-path="url(#pe4adc46a76)" style="fill: none; stroke: #b0b0b0; stroke-width: 0.8; stroke-linecap: square"/>
     </g>
     <g id="text_4">
      <!-- 135° -->
      <g transform="translate(105.052505 112.650943) scale(0.1 -0.1)">
       <defs>
        <path id="DejaVuSans-31" d="M 794 531 
L 1825 531 
L 1825 4091 
L 703 3866 
L 703 4441 
L 1819 4666 
L 2450 4666 
L 2450 531 
L 3481 531 
L 3481 0 
L 794 0 
L 794 531 
z
" transform="scale(0.015625)"/>
        <path id="DejaVuSans-33" d="M 2597 2516 
Q 3050 2419 3304 2112 
Q 3559 1806 3559 1356 
Q 3559 666 3084 287 
Q 2609 -91 1734 -91 
Q 1441 -91 1130 -33 
Q 819 25 488 141 
L 488 750 
Q 750 597 1062 519 
Q 1375 441 1716 441 
Q 2309 441 2620 675 
Q 2931 909 2931 1356 
Q 2931 1769 2642 2001 
Q 2353 2234 1838 2234 
L 1294 2234 
L 1294 2753 
L 1863 2753 
Q 2328 2753 2575 2939 
Q 2822 3125 2822 3475 
Q 2822 3834 2567 4026 
Q 2313 4219 1838 4219 
Q 1578 4219 1281 4162 
Q 984 4106 628 3988 
L 628 4550 
Q 988 4650 1302 4700 
Q 1616 4750 1894 4750 
Q 2613 4750 3031 4423 
Q 3450 4097 3450 3541 
Q 3450 3153 3228 2886 
Q 3006 2619 2597 2516 
z
" transform="scale(0.015625)"/>
       </defs>
       <use xlink:href="#DejaVuSans-31"/>
       <use xlink:href="#DejaVuSans-33" x="63.623047"/>
       <use xlink:href="#DejaVuSans-35" x="127.246094"/>
       <use xlink:href="#DejaVuSans-b0" x="190.869141"/>
      </g>
     </g>
    </g>
    <g id="xtick_5">
     <g id="line2d_5">
      <path d="M 283.80375 276.599062 
L 62.04375 276.599062 
" clip-path="url(#pe4adc46a76)" style="fill: none; stroke: #b0b0b0; stroke-width: 0.8; stroke-linecap: square"/>
     </g>
     <g id="text_5">
      <!-- 180° -->
      <g transform="translate(36 279.358437) scale(0.1 -0.1)">
       <defs>
        <path id="DejaVuSans-38" d="M 2034 2216 
Q 1584 2216 1326 1975 
Q 1069 1734 1069 1313 
Q 1069 891 1326 650 
Q 1584 409 2034 409 
Q 2484 409 2743 651 
Q 3003 894 3003 1313 
Q 3003 1734 2745 1975 
Q 2488 2216 2034 2216 
z
M 1403 2484 
Q 997 2584 770 2862 
Q 544 3141 544 3541 
Q 544 4100 942 4425 
Q 1341 4750 2034 4750 
Q 2731 4750 3128 4425 
Q 3525 4100 3525 3541 
Q 3525 3141 3298 2862 
Q 3072 2584 2669 2484 
Q 3125 2378 3379 2068 
Q 3634 1759 3634 1313 
Q 3634 634 3220 271 
Q 2806 -91 2034 -91 
Q 1263 -91 848 271 
Q 434 634 434 1313 
Q 434 1759 690 2068 
Q 947 2378 1403 2484 
z
M 1172 3481 
Q 1172 3119 1398 2916 
Q 1625 2713 2034 2713 
Q 2441 2713 2670 2916 
Q 2900 3119 2900 3481 
Q 2900 3844 2670 4047 
Q 2441 4250 2034 4250 
Q 1625 4250 1398 4047 
Q 1172 3844 1172 3481 
z
" transform="scale(0.015625)"/>
       </defs>
       <use xlink:href="#DejaVuSans-31"/>
       <use xlink:href="#DejaVuSans-38" x="63.623047"/>
       <use xlink:href="#DejaVuSans-30" x="127.246094"/>
       <use xlink:href="#DejaVuSans-b0" x="190.869141"/>
      </g>
     </g>
    </g>
    <g id="xtick_6">
     <g id="line2d_6">
      <path d="M 283.80375 276.599062 
L 126.99575 433.407062 
" clip-path="url(#pe4adc46a76)" style="fill: none; stroke: #b0b0b0; stroke-width: 0.8; stroke-linecap: square"/>
     </g>
     <g id="text_6">
      <!-- 225° -->
      <g transform="translate(105.052505 446.065932) scale(0.1 -0.1)">
       <defs>
        <path id="DejaVuSans-32" d="M 1228 531 
L 3431 531 
L 3431 0 
L 469 0 
L 469 531 
Q 828 903 1448 1529 
Q 2069 2156 2228 2338 
Q 2531 2678 2651 2914 
Q 2772 3150 2772 3378 
Q 2772 3750 2511 3984 
Q 2250 4219 1831 4219 
Q 1534 4219 1204 4116 
Q 875 4013 500 3803 
L 500 4441 
Q 881 4594 1212 4672 
Q 1544 4750 1819 4750 
Q 2544 4750 2975 4387 
Q 3406 4025 3406 3419 
Q 3406 3131 3298 2873 
Q 3191 2616 2906 2266 
Q 2828 2175 2409 1742 
Q 1991 1309 1228 531 
z
" transform="scale(0.015625)"/>
       </defs>
       <use xlink:href="#DejaVuSans-32"/>
       <use xlink:href="#DejaVuSans-32" x="63.623047"/>
       <use xlink:href="#DejaVuSans-35" x="127.246094"/>
       <use xlink:href="#DejaVuSans-b0" x="190.869141"/>
      </g>
     </g>
    </g>
    <g id="xtick_7">
     <g id="line2d_7">
      <path d="M 283.80375 276.599062 
L 283.80375 498.359062 
" clip-path="url(#pe4adc46a76)" style="fill: none; stroke: #b0b0b0; stroke-width: 0.8; stroke-linecap: square"/>
     </g>
     <g id="text_7">
      <!-- 270° -->
      <g transform="translate(271.76 515.118437) scale(0.1 -0.1)">
       <defs>
        <path id="DejaVuSans-37" d="M 525 4666 
L 3525 4666 
L 3525 4397 
L 1831 0 
L 1172 0 
L 2766 4134 
L 525 4134 
L 525 4666 
z
" transform="scale(0.015625)"/>
       </defs>
       <use xlink:href="#DejaVuSans-32"/>
       <use xlink:href="#DejaVuSans-37" x="63.623047"/>
       <use xlink:href="#DejaVuSans-30" x="127.246094"/>
       <use xlink:href="#DejaVuSans-b0" x="190.869141"/>
      </g>
     </g>
    </g>
    <g id="xtick_8">
     <g id="line2d_8">
      <path d="M 283.80375 276.599062 
L 440.61175 433.407062 
" clip-path="url(#pe4adc46a76)" style="fill: none; stroke: #b0b0b0; stroke-width: 0.8; stroke-linecap: square"/>
     </g>
     <g id="text_8">
      <!-- 315° -->
      <g transform="translate(438.467495 446.065932) scale(0.1 -0.1)">
       <use xlink:href="#DejaVuSans-33"/>
       <use xlink:href="#DejaVuSans-31" x="63.623047"/>
       <use xlink:href="#DejaVuSans-35" x="127.246094"/>
       <use xlink:href="#DejaVuSans-b0" x="190.869141"/>
      </g>
     </g>
    </g>
   </g>
   <g id="matplotlib.axis_2">
    <g id="ytick_1">
     <g id="line2d_9">
      <path d="M 311.922205 276.599062 
C 311.922205 272.906581 311.194867 269.250004 309.781816 265.838595 
C 308.368764 262.427187 306.297479 259.327291 303.686501 256.716312 
C 301.075522 254.105333 297.975625 252.034049 294.564217 250.620997 
C 291.152809 249.207945 287.496232 248.480607 283.80375 248.480607 
C 280.111268 248.480607 276.454691 249.207945 273.043283 250.620997 
C 269.631875 252.034049 266.531978 254.105333 263.920999 256.716312 
C 261.310021 259.327291 259.238736 262.427187 257.825684 265.838595 
C 256.412633 269.250004 255.685295 272.906581 255.685295 276.599062 
C 255.685295 280.291544 256.412633 283.948121 257.825684 287.35953 
C 259.238736 290.770938 261.310021 293.870834 263.920999 296.481813 
C 266.531978 299.092792 269.631875 301.164076 273.043283 302.577128 
C 276.454691 303.99018 280.111268 304.717518 283.80375 304.717518 
C 287.496232 304.717518 291.152809 303.99018 294.564217 302.577128 
C 297.975625 301.164076 301.075522 299.092792 303.686501 296.481813 
C 306.297479 293.870834 308.368764 290.770938 309.781816 287.35953 
C 311.194867 283.948121 311.922205 280.291544 311.922205 276.599062 
" clip-path="url(#pe4adc46a76)" style="fill: none; stroke: #b0b0b0; stroke-width: 0.8; stroke-linecap: square"/>
     </g>
     <g id="text_9">
      <!-- 0.05 -->
      <g transform="translate(309.781816 263.758908) scale(0.1 -0.1)">
       <defs>
        <path id="DejaVuSans-2e" d="M 684 794 
L 1344 794 
L 1344 0 
L 684 0 
L 684 794 
z
" transform="scale(0.015625)"/>
       </defs>
       <use xlink:href="#DejaVuSans-30"/>
       <use xlink:href="#DejaVuSans-2e" x="63.623047"/>
       <use xlink:href="#DejaVuSans-30" x="95.410156"/>
       <use xlink:href="#DejaVuSans-35" x="159.033203"/>
      </g>
     </g>
    </g>
    <g id="ytick_2">
     <g id="line2d_10">
      <path d="M 340.040661 276.599062 
C 340.040661 269.214099 338.585984 261.900945 335.759881 255.078128 
C 332.933778 248.255312 328.791209 242.055519 323.569251 236.833561 
C 318.347293 231.611604 312.147501 227.469035 305.324684 224.642931 
C 298.501868 221.816828 291.188713 220.362152 283.80375 220.362152 
C 276.418787 220.362152 269.105632 221.816828 262.282816 224.642931 
C 255.459999 227.469035 249.260207 231.611604 244.038249 236.833561 
C 238.816291 242.055519 234.673722 248.255312 231.847619 255.078128 
C 229.021516 261.900945 227.566839 269.214099 227.566839 276.599062 
C 227.566839 283.984026 229.021516 291.29718 231.847619 298.119997 
C 234.673722 304.942813 238.816291 311.142606 244.038249 316.364564 
C 249.260207 321.586521 255.459999 325.72909 262.282816 328.555194 
C 269.105632 331.381297 276.418787 332.835973 283.80375 332.835973 
C 291.188713 332.835973 298.501868 331.381297 305.324684 328.555194 
C 312.147501 325.72909 318.347293 321.586521 323.569251 316.364564 
C 328.791209 311.142606 332.933778 304.942813 335.759881 298.119997 
C 338.585984 291.29718 340.040661 283.984026 340.040661 276.599062 
" clip-path="url(#pe4adc46a76)" style="fill: none; stroke: #b0b0b0; stroke-width: 0.8; stroke-linecap: square"/>
     </g>
     <g id="text_10">
      <!-- 0.10 -->
      <g transform="translate(335.759881 252.998441) scale(0.1 -0.1)">
       <use xlink:href="#DejaVuSans-30"/>
       <use xlink:href="#DejaVuSans-2e" x="63.623047"/>
       <use xlink:href="#DejaVuSans-31" x="95.410156"/>
       <use xlink:href="#DejaVuSans-30" x="159.033203"/>
      </g>
     </g>
    </g>
    <g id="ytick_3">
     <g id="line2d_11">
      <path d="M 368.159116 276.599062 
C 368.159116 265.521617 365.977101 254.551886 361.737947 244.317661 
C 357.498792 234.083436 351.284938 224.783747 343.452002 216.950811 
C 335.619065 209.117874 326.319376 202.904021 316.085151 198.664866 
C 305.850926 194.425711 294.881195 192.243696 283.80375 192.243696 
C 272.726305 192.243696 261.756574 194.425711 251.522349 198.664866 
C 241.288124 202.904021 231.988435 209.117874 224.155498 216.950811 
C 216.322562 224.783747 210.108708 234.083436 205.869553 244.317661 
C 201.630399 254.551886 199.448384 265.521617 199.448384 276.599062 
C 199.448384 287.676508 201.630399 298.646239 205.869553 308.880464 
C 210.108708 319.114689 216.322562 328.414378 224.155498 336.247314 
C 231.988435 344.080251 241.288124 350.294104 251.522349 354.533259 
C 261.756574 358.772414 272.726305 360.954429 283.80375 360.954429 
C 294.881195 360.954429 305.850926 358.772414 316.085151 354.533259 
C 326.319376 350.294104 335.619065 344.080251 343.452002 336.247314 
C 351.284938 328.414378 357.498792 319.114689 361.737947 308.880464 
C 365.977101 298.646239 368.159116 287.676508 368.159116 276.599062 
" clip-path="url(#pe4adc46a76)" style="fill: none; stroke: #b0b0b0; stroke-width: 0.8; stroke-linecap: square"/>
     </g>
     <g id="text_11">
      <!-- 0.15 -->
      <g transform="translate(361.737947 242.237974) scale(0.1 -0.1)">
       <use xlink:href="#DejaVuSans-30"/>
       <use xlink:href="#DejaVuSans-2e" x="63.623047"/>
       <use xlink:href="#DejaVuSans-31" x="95.410156"/>
       <use xlink:href="#DejaVuSans-35" x="159.033203"/>
      </g>
     </g>
    </g>
    <g id="ytick_4">
     <g id="line2d_12">
      <path d="M 396.277572 276.599062 
C 396.277572 261.829136 393.368218 247.202827 387.716012 233.557194 
C 382.063806 219.911561 373.778668 207.511976 363.334752 197.06806 
C 352.890837 186.624145 340.491251 178.339007 326.845618 172.6868 
C 313.199985 167.034594 298.573677 164.125241 283.80375 164.125241 
C 269.033823 164.125241 254.407515 167.034594 240.761882 172.6868 
C 227.116249 178.339007 214.716663 186.624145 204.272748 197.06806 
C 193.828832 207.511976 185.543694 219.911561 179.891488 233.557194 
C 174.239282 247.202827 171.329928 261.829136 171.329928 276.599062 
C 171.329928 291.368989 174.239282 305.995298 179.891488 319.640931 
C 185.543694 333.286564 193.828832 345.686149 204.272748 356.130065 
C 214.716663 366.57398 227.116249 374.859118 240.761882 380.511325 
C 254.407515 386.163531 269.033823 389.072884 283.80375 389.072884 
C 298.573677 389.072884 313.199985 386.163531 326.845618 380.511325 
C 340.491251 374.859118 352.890837 366.57398 363.334752 356.130065 
C 373.778668 345.686149 382.063806 333.286564 387.716012 319.640931 
C 393.368218 305.995298 396.277572 291.368989 396.277572 276.599062 
" clip-path="url(#pe4adc46a76)" style="fill: none; stroke: #b0b0b0; stroke-width: 0.8; stroke-linecap: square"/>
     </g>
     <g id="text_12">
      <!-- 0.20 -->
      <g transform="translate(387.716012 231.477507) scale(0.1 -0.1)">
       <use xlink:href="#DejaVuSans-30"/>
       <use xlink:href="#DejaVuSans-2e" x="63.623047"/>
       <use xlink:href="#DejaVuSans-32" x="95.410156"/>
       <use xlink:href="#DejaVuSans-30" x="159.033203"/>
      </g>
     </g>
    </g>
    <g id="ytick_5">
     <g id="line2d_13">
      <path d="M 424.396027 276.599062 
C 424.396027 258.136654 420.759336 239.853769 413.694078 222.796727 
C 406.62882 205.739686 396.272397 190.240204 383.217503 177.18531 
C 370.162608 164.130415 354.663127 153.773993 337.606085 146.708735 
C 320.549044 139.643477 302.266159 136.006785 283.80375 136.006785 
C 265.341341 136.006785 247.058456 139.643477 230.001415 146.708735 
C 212.944373 153.773993 197.444892 164.130415 184.389997 177.18531 
C 171.335103 190.240204 160.97868 205.739686 153.913422 222.796727 
C 146.848164 239.853769 143.211473 258.136654 143.211473 276.599062 
C 143.211473 295.061471 146.848164 313.344356 153.913422 330.401398 
C 160.97868 347.458439 171.335103 362.957921 184.389997 376.012815 
C 197.444892 389.06771 212.944373 399.424132 230.001415 406.48939 
C 247.058456 413.554648 265.341341 417.19134 283.80375 417.19134 
C 302.266159 417.19134 320.549044 413.554648 337.606085 406.48939 
C 354.663127 399.424132 370.162608 389.06771 383.217503 376.012815 
C 396.272397 362.957921 406.62882 347.458439 413.694078 330.401398 
C 420.759336 313.344356 424.396027 295.061471 424.396027 276.599062 
" clip-path="url(#pe4adc46a76)" style="fill: none; stroke: #b0b0b0; stroke-width: 0.8; stroke-linecap: square"/>
     </g>
     <g id="text_13">
      <!-- 0.25 -->
      <g transform="translate(413.694078 220.71704) scale(0.1 -0.1)">
       <use xlink:href="#DejaVuSans-30"/>
       <use xlink:href="#DejaVuSans-2e" x="63.623047"/>
       <use xlink:href="#DejaVuSans-32" x="95.410156"/>
       <use xlink:href="#DejaVuSans-35" x="159.033203"/>
      </g>
     </g>
    </g>
    <g id="ytick_6">
     <g id="line2d_14">
      <path d="M 452.514483 276.599062 
C 452.514483 254.444172 448.150453 232.50471 439.672143 212.03626 
C 431.193834 191.56781 418.766127 172.968432 403.100253 157.302559 
C 387.43438 141.636686 368.835002 129.208979 348.366552 120.730669 
C 327.898103 112.25236 305.95864 107.88833 283.80375 107.88833 
C 261.64886 107.88833 239.709397 112.25236 219.240948 120.730669 
C 198.772498 129.208979 180.17312 141.636686 164.507247 157.302559 
C 148.841373 172.968432 136.413666 191.56781 127.935357 212.03626 
C 119.457047 232.50471 115.093017 254.444172 115.093017 276.599062 
C 115.093017 298.753953 119.457047 320.693415 127.935357 341.161865 
C 136.413666 361.630315 148.841373 380.229693 164.507247 395.895566 
C 180.17312 411.561439 198.772498 423.989146 219.240948 432.467456 
C 239.709397 440.945765 261.64886 445.309795 283.80375 445.309795 
C 305.95864 445.309795 327.898103 440.945765 348.366552 432.467456 
C 368.835002 423.989146 387.43438 411.561439 403.100253 395.895566 
C 418.766127 380.229693 431.193834 361.630315 439.672143 341.161865 
C 448.150453 320.693415 452.514483 298.753953 452.514483 276.599062 
" clip-path="url(#pe4adc46a76)" style="fill: none; stroke: #b0b0b0; stroke-width: 0.8; stroke-linecap: square"/>
     </g>
     <g id="text_14">
      <!-- 0.30 -->
      <g transform="translate(439.672143 209.956573) scale(0.1 -0.1)">
       <use xlink:href="#DejaVuSans-30"/>
       <use xlink:href="#DejaVuSans-2e" x="63.623047"/>
       <use xlink:href="#DejaVuSans-33" x="95.410156"/>
       <use xlink:href="#DejaVuSans-30" x="159.033203"/>
      </g>
     </g>
    </g>
    <g id="ytick_7">
     <g id="line2d_15">
      <path d="M 480.632938 276.599062 
C 480.632938 250.75169 475.54157 225.155651 465.650209 201.275793 
C 455.758847 177.395935 441.259856 155.696661 422.983004 137.419809 
C 404.706152 119.142956 383.006878 104.643965 359.127019 94.752604 
C 335.247161 84.861243 309.651122 79.769874 283.80375 79.769874 
C 257.956378 79.769874 232.360339 84.861243 208.480481 94.752604 
C 184.600622 104.643965 162.901348 119.142956 144.624496 137.419809 
C 126.347644 155.696661 111.848653 177.395935 101.957291 201.275793 
C 92.06593 225.155651 86.974562 250.75169 86.974562 276.599062 
C 86.974562 302.446435 92.06593 328.042474 101.957291 351.922332 
C 111.848653 375.80219 126.347644 397.501464 144.624496 415.778316 
C 162.901348 434.055169 184.600622 448.55416 208.480481 458.445521 
C 232.360339 468.336882 257.956378 473.428251 283.80375 473.428251 
C 309.651122 473.428251 335.247161 468.336882 359.127019 458.445521 
C 383.006878 448.55416 404.706152 434.055169 422.983004 415.778316 
C 441.259856 397.501464 455.758847 375.80219 465.650209 351.922332 
C 475.54157 328.042474 480.632938 302.446435 480.632938 276.599062 
" clip-path="url(#pe4adc46a76)" style="fill: none; stroke: #b0b0b0; stroke-width: 0.8; stroke-linecap: square"/>
     </g>
     <g id="text_15">
      <!-- 0.35 -->
      <g transform="translate(465.650209 199.196106) scale(0.1 -0.1)">
       <use xlink:href="#DejaVuSans-30"/>
       <use xlink:href="#DejaVuSans-2e" x="63.623047"/>
       <use xlink:href="#DejaVuSans-33" x="95.410156"/>
       <use xlink:href="#DejaVuSans-35" x="159.033203"/>
      </g>
     </g>
    </g>
   </g>
   <g id="line2d_16">
    <path d="M 376.538821 276.599062 
L 396.30692 226.509424 
L 346.486001 206.98337 
L 312.158931 189.330789 
L 269.366377 139.236633 
L 218.072138 162.748571 
L 208.8343 222.130569 
L 192.752773 257.24558 
L 157.873537 303.366356 
L 183.771782 349.276541 
L 236.789119 358.030793 
L 274.173342 368.22627 
L 326.588412 408.276712 
L 372.127281 374.692281 
L 368.801942 314.442696 
L 376.538821 276.599062 
" clip-path="url(#pe4adc46a76)" style="fill: none; stroke: #1f77b4; stroke-width: 2; stroke-linecap: square"/>
   </g>
   <g id="line2d_17">
    <path d="M 379.919579 276.599062 
L 403.133209 223.470165 
L 354.959985 197.572058 
L 315.246431 179.828442 
L 267.363855 120.183911 
L 211.577331 151.499235 
L 203.731034 218.422829 
L 189.482213 256.550401 
L 143.66311 306.386875 
L 177.650435 353.723961 
L 230.438661 369.030109 
L 273.128811 378.16432 
L 332.638349 426.896504 
L 380.912323 384.449059 
L 374.539814 316.997361 
L 379.919579 276.599062 
" clip-path="url(#pe4adc46a76)" style="fill: none; stroke: #ff7f0e; stroke-width: 2; stroke-linecap: square"/>
   </g>
   <g id="line2d_18">
    <path d="M 408.097162 276.599062 
L 437.669496 208.093619 
L 367.948829 183.146484 
L 321.693535 159.986296 
L 263.281254 81.340554 
L 198.540538 128.918847 
L 178.275717 199.928459 
L 161.649054 250.63428 
L 101.599188 315.327838 
L 146.793322 376.142965 
L 220.628656 386.021535 
L 270.921965 399.161059 
L 344.811026 464.360152 
L 398.56553 404.054932 
L 403.583518 329.928451 
L 408.097162 276.599062 
" clip-path="url(#pe4adc46a76)" style="fill: none; stroke: #2ca02c; stroke-width: 2; stroke-linecap: square"/>
   </g>
   <g id="line2d_19">
    <path d="M 378.255279 276.599062 
L 399.121996 225.256071 
L 348.140059 205.146352 
L 313.027548 186.65746 
L 268.298944 129.080689 
L 215.344447 158.024071 
L 206.02075 220.086405 
L 191.090956 256.89235 
L 144.877454 306.128758 
L 181.416521 350.987738 
L 235.561502 360.157088 
L 273.880472 371.01275 
L 329.461476 417.119095 
L 375.633835 378.586704 
L 371.975432 315.855624 
L 378.255279 276.599062 
" clip-path="url(#pe4adc46a76)" style="fill: none; stroke: #d62728; stroke-width: 2; stroke-linecap: square"/>
   </g>
   <g id="line2d_20">
    <path d="M 434.299187 276.599062 
L 429.606574 211.683463 
L 378.619561 171.295436 
L 327.295496 142.745233 
L 264.106913 89.196176 
L 191.261468 116.311128 
L 166.904347 191.666674 
L 136.657918 245.32225 
L 108.462001 313.869102 
L 154.559131 370.500774 
L 213.222953 398.84859 
L 269.089045 416.600126 
L 342.09775 456.009546 
L 407.858368 414.375674 
L 415.860584 335.394553 
L 434.299187 276.599062 
" clip-path="url(#pe4adc46a76)" style="fill: none; stroke: #9467bd; stroke-width: 2; stroke-linecap: square"/>
   </g>
   <g id="line2d_21">
    <path d="M 448.160786 276.599062 
L 458.750863 198.707589 
L 389.599103 159.101419 
L 328.85531 137.944619 
L 262.652801 75.361225 
L 185.45965 106.262084 
L 162.901024 188.75809 
L 122.546926 242.322866 
L 73.348155 321.33278 
L 128.457082 389.465024 
L 204.55152 413.867951 
L 268.525647 421.960501 
L 346.488421 469.522643 
L 415.818657 423.216471 
L 420.688934 337.544273 
L 448.160786 276.599062 
" clip-path="url(#pe4adc46a76)" style="fill: none; stroke: #8c564b; stroke-width: 2; stroke-linecap: square"/>
   </g>
   <g id="line2d_22">
    <path d="M 440.045522 276.599062 
L 453.511966 201.040096 
L 384.430725 164.841485 
L 327.322085 142.663399 
L 262.952262 78.210403 
L 187.045908 109.009563 
L 166.742574 191.549139 
L 130.520852 244.017777 
L 81.098586 319.685375 
L 133.094249 386.095924 
L 208.434824 407.141872 
L 269.046105 417.008678 
L 345.603692 466.799726 
L 413.693609 420.856366 
L 416.33677 335.606565 
L 440.045522 276.599062 
" clip-path="url(#pe4adc46a76)" style="fill: none; stroke: #e377c2; stroke-width: 2; stroke-linecap: square"/>
   </g>
   <g id="line2d_23">
    <path d="M 367.317647 276.599062 
L 381.031291 233.310572 
L 339.410686 214.841303 
L 310.742148 193.691199 
L 269.407172 139.624775 
L 219.580735 165.361537 
L 213.610224 225.600481 
L 201.940272 259.198443 
L 169.941624 300.801204 
L 197.454788 339.335256 
L 242.212804 348.636694 
L 274.667108 363.528401 
L 326.476424 407.932049 
L 370.028783 372.361664 
L 363.274227 311.981599 
L 367.317647 276.599062 
" clip-path="url(#pe4adc46a76)" style="fill: none; stroke: #7f7f7f; stroke-width: 2; stroke-linecap: square"/>
   </g>
   <g id="patch_3">
    <path d="M 505.56375 276.599062 
C 505.56375 247.477806 499.827497 218.639717 488.683275 191.735185 
C 477.539053 164.830652 461.203588 140.382901 440.61175 119.791063 
C 420.019912 99.199225 395.572161 82.86376 368.667628 71.719537 
C 341.763095 60.575315 312.925006 54.839062 283.80375 54.839062 
C 254.682494 54.839062 225.844405 60.575315 198.939872 71.719537 
C 172.035339 82.86376 147.587588 99.199225 126.99575 119.791063 
C 106.403912 140.382901 90.068447 164.830652 78.924225 191.735185 
C 67.780003 218.639717 62.04375 247.477806 62.04375 276.599062 
C 62.04375 305.720319 67.780003 334.558408 78.924225 361.46294 
C 90.068447 388.367473 106.403912 412.815224 126.99575 433.407062 
C 147.587588 453.9989 172.035339 470.334365 198.939872 481.478588 
C 225.844405 492.62281 254.682494 498.359062 283.80375 498.359062 
C 312.925006 498.359062 341.763095 492.62281 368.667628 481.478588 
C 395.572161 470.334365 420.019912 453.9989 440.61175 433.407062 
C 461.203588 412.815224 477.539053 388.367473 488.683275 361.46294 
C 499.827497 334.558408 505.56375 305.720319 505.56375 276.599062 
" style="fill: none; stroke: #000000; stroke-width: 0.8; stroke-linejoin: miter; stroke-linecap: square"/>
   </g>
   <g id="legend_1">
    <g id="patch_4">
     <path d="M 74.61375 601.239062 
L 492.99375 601.239062 
Q 496.19375 601.239062 496.19375 598.039062 
L 496.19375 529.184062 
Q 496.19375 525.984062 492.99375 525.984062 
L 74.61375 525.984062 
Q 71.41375 525.984062 71.41375 529.184062 
L 71.41375 598.039062 
Q 71.41375 601.239062 74.61375 601.239062 
z
" style="fill: #ffffff; opacity: 0.8; stroke: #cccccc; stroke-linejoin: miter"/>
    </g>
    <g id="line2d_24">
     <path d="M 77.81375 538.941562 
L 93.81375 538.941562 
L 109.81375 538.941562 
" style="fill: none; stroke: #1f77b4; stroke-width: 2; stroke-linecap: square"/>
    </g>
    <g id="text_16">
     <!-- ADM -->
     <g transform="translate(122.61375 544.541562) scale(0.16 -0.16)">
      <defs>
       <path id="DejaVuSans-41" d="M 2188 4044 
L 1331 1722 
L 3047 1722 
L 2188 4044 
z
M 1831 4666 
L 2547 4666 
L 4325 0 
L 3669 0 
L 3244 1197 
L 1141 1197 
L 716 0 
L 50 0 
L 1831 4666 
z
" transform="scale(0.015625)"/>
       <path id="DejaVuSans-44" d="M 1259 4147 
L 1259 519 
L 2022 519 
Q 2988 519 3436 956 
Q 3884 1394 3884 2338 
Q 3884 3275 3436 3711 
Q 2988 4147 2022 4147 
L 1259 4147 
z
M 628 4666 
L 1925 4666 
Q 3281 4666 3915 4102 
Q 4550 3538 4550 2338 
Q 4550 1131 3912 565 
Q 3275 0 1925 0 
L 628 0 
L 628 4666 
z
" transform="scale(0.015625)"/>
       <path id="DejaVuSans-4d" d="M 628 4666 
L 1569 4666 
L 2759 1491 
L 3956 4666 
L 4897 4666 
L 4897 0 
L 4281 0 
L 4281 4097 
L 3078 897 
L 2444 897 
L 1241 4097 
L 1241 0 
L 628 0 
L 628 4666 
z
" transform="scale(0.015625)"/>
      </defs>
      <use xlink:href="#DejaVuSans-41"/>
      <use xlink:href="#DejaVuSans-44" x="68.408203"/>
      <use xlink:href="#DejaVuSans-4d" x="145.410156"/>
     </g>
    </g>
    <g id="line2d_25">
     <path d="M 77.81375 562.426562 
L 93.81375 562.426562 
L 109.81375 562.426562 
" style="fill: none; stroke: #ff7f0e; stroke-width: 2; stroke-linecap: square"/>
    </g>
    <g id="text_17">
     <!-- BigGAN -->
     <g transform="translate(122.61375 568.026562) scale(0.16 -0.16)">
      <defs>
       <path id="DejaVuSans-42" d="M 1259 2228 
L 1259 519 
L 2272 519 
Q 2781 519 3026 730 
Q 3272 941 3272 1375 
Q 3272 1813 3026 2020 
Q 2781 2228 2272 2228 
L 1259 2228 
z
M 1259 4147 
L 1259 2741 
L 2194 2741 
Q 2656 2741 2882 2914 
Q 3109 3088 3109 3444 
Q 3109 3797 2882 3972 
Q 2656 4147 2194 4147 
L 1259 4147 
z
M 628 4666 
L 2241 4666 
Q 2963 4666 3353 4366 
Q 3744 4066 3744 3513 
Q 3744 3084 3544 2831 
Q 3344 2578 2956 2516 
Q 3422 2416 3680 2098 
Q 3938 1781 3938 1306 
Q 3938 681 3513 340 
Q 3088 0 2303 0 
L 628 0 
L 628 4666 
z
" transform="scale(0.015625)"/>
       <path id="DejaVuSans-69" d="M 603 3500 
L 1178 3500 
L 1178 0 
L 603 0 
L 603 3500 
z
M 603 4863 
L 1178 4863 
L 1178 4134 
L 603 4134 
L 603 4863 
z
" transform="scale(0.015625)"/>
       <path id="DejaVuSans-67" d="M 2906 1791 
Q 2906 2416 2648 2759 
Q 2391 3103 1925 3103 
Q 1463 3103 1205 2759 
Q 947 2416 947 1791 
Q 947 1169 1205 825 
Q 1463 481 1925 481 
Q 2391 481 2648 825 
Q 2906 1169 2906 1791 
z
M 3481 434 
Q 3481 -459 3084 -895 
Q 2688 -1331 1869 -1331 
Q 1566 -1331 1297 -1286 
Q 1028 -1241 775 -1147 
L 775 -588 
Q 1028 -725 1275 -790 
Q 1522 -856 1778 -856 
Q 2344 -856 2625 -561 
Q 2906 -266 2906 331 
L 2906 616 
Q 2728 306 2450 153 
Q 2172 0 1784 0 
Q 1141 0 747 490 
Q 353 981 353 1791 
Q 353 2603 747 3093 
Q 1141 3584 1784 3584 
Q 2172 3584 2450 3431 
Q 2728 3278 2906 2969 
L 2906 3500 
L 3481 3500 
L 3481 434 
z
" transform="scale(0.015625)"/>
       <path id="DejaVuSans-47" d="M 3809 666 
L 3809 1919 
L 2778 1919 
L 2778 2438 
L 4434 2438 
L 4434 434 
Q 4069 175 3628 42 
Q 3188 -91 2688 -91 
Q 1594 -91 976 548 
Q 359 1188 359 2328 
Q 359 3472 976 4111 
Q 1594 4750 2688 4750 
Q 3144 4750 3555 4637 
Q 3966 4525 4313 4306 
L 4313 3634 
Q 3963 3931 3569 4081 
Q 3175 4231 2741 4231 
Q 1884 4231 1454 3753 
Q 1025 3275 1025 2328 
Q 1025 1384 1454 906 
Q 1884 428 2741 428 
Q 3075 428 3337 486 
Q 3600 544 3809 666 
z
" transform="scale(0.015625)"/>
       <path id="DejaVuSans-4e" d="M 628 4666 
L 1478 4666 
L 3547 763 
L 3547 4666 
L 4159 4666 
L 4159 0 
L 3309 0 
L 1241 3903 
L 1241 0 
L 628 0 
L 628 4666 
z
" transform="scale(0.015625)"/>
      </defs>
      <use xlink:href="#DejaVuSans-42"/>
      <use xlink:href="#DejaVuSans-69" x="68.603516"/>
      <use xlink:href="#DejaVuSans-67" x="96.386719"/>
      <use xlink:href="#DejaVuSans-47" x="159.863281"/>
      <use xlink:href="#DejaVuSans-41" x="237.353516"/>
      <use xlink:href="#DejaVuSans-4e" x="305.761719"/>
     </g>
    </g>
    <g id="line2d_26">
     <path d="M 77.81375 585.911562 
L 93.81375 585.911562 
L 109.81375 585.911562 
" style="fill: none; stroke: #2ca02c; stroke-width: 2; stroke-linecap: square"/>
    </g>
    <g id="text_18">
     <!-- VQDM -->
     <g transform="translate(122.61375 591.511562) scale(0.16 -0.16)">
      <defs>
       <path id="DejaVuSans-56" d="M 1831 0 
L 50 4666 
L 709 4666 
L 2188 738 
L 3669 4666 
L 4325 4666 
L 2547 0 
L 1831 0 
z
" transform="scale(0.015625)"/>
       <path id="DejaVuSans-51" d="M 2522 4238 
Q 1834 4238 1429 3725 
Q 1025 3213 1025 2328 
Q 1025 1447 1429 934 
Q 1834 422 2522 422 
Q 3209 422 3611 934 
Q 4013 1447 4013 2328 
Q 4013 3213 3611 3725 
Q 3209 4238 2522 4238 
z
M 3406 84 
L 4238 -825 
L 3475 -825 
L 2784 -78 
Q 2681 -84 2626 -87 
Q 2572 -91 2522 -91 
Q 1538 -91 948 567 
Q 359 1225 359 2328 
Q 359 3434 948 4092 
Q 1538 4750 2522 4750 
Q 3503 4750 4090 4092 
Q 4678 3434 4678 2328 
Q 4678 1516 4351 937 
Q 4025 359 3406 84 
z
" transform="scale(0.015625)"/>
      </defs>
      <use xlink:href="#DejaVuSans-56"/>
      <use xlink:href="#DejaVuSans-51" x="68.408203"/>
      <use xlink:href="#DejaVuSans-44" x="147.119141"/>
      <use xlink:href="#DejaVuSans-4d" x="224.121094"/>
     </g>
    </g>
    <g id="line2d_27">
     <path d="M 215.50625 538.941562 
L 231.50625 538.941562 
L 247.50625 538.941562 
" style="fill: none; stroke: #d62728; stroke-width: 2; stroke-linecap: square"/>
    </g>
    <g id="text_19">
     <!-- Glide -->
     <g transform="translate(260.30625 544.541562) scale(0.16 -0.16)">
      <defs>
       <path id="DejaVuSans-6c" d="M 603 4863 
L 1178 4863 
L 1178 0 
L 603 0 
L 603 4863 
z
" transform="scale(0.015625)"/>
       <path id="DejaVuSans-64" d="M 2906 2969 
L 2906 4863 
L 3481 4863 
L 3481 0 
L 2906 0 
L 2906 525 
Q 2725 213 2448 61 
Q 2172 -91 1784 -91 
Q 1150 -91 751 415 
Q 353 922 353 1747 
Q 353 2572 751 3078 
Q 1150 3584 1784 3584 
Q 2172 3584 2448 3432 
Q 2725 3281 2906 2969 
z
M 947 1747 
Q 947 1113 1208 752 
Q 1469 391 1925 391 
Q 2381 391 2643 752 
Q 2906 1113 2906 1747 
Q 2906 2381 2643 2742 
Q 2381 3103 1925 3103 
Q 1469 3103 1208 2742 
Q 947 2381 947 1747 
z
" transform="scale(0.015625)"/>
       <path id="DejaVuSans-65" d="M 3597 1894 
L 3597 1613 
L 953 1613 
Q 991 1019 1311 708 
Q 1631 397 2203 397 
Q 2534 397 2845 478 
Q 3156 559 3463 722 
L 3463 178 
Q 3153 47 2828 -22 
Q 2503 -91 2169 -91 
Q 1331 -91 842 396 
Q 353 884 353 1716 
Q 353 2575 817 3079 
Q 1281 3584 2069 3584 
Q 2775 3584 3186 3129 
Q 3597 2675 3597 1894 
z
M 3022 2063 
Q 3016 2534 2758 2815 
Q 2500 3097 2075 3097 
Q 1594 3097 1305 2825 
Q 1016 2553 972 2059 
L 3022 2063 
z
" transform="scale(0.015625)"/>
      </defs>
      <use xlink:href="#DejaVuSans-47"/>
      <use xlink:href="#DejaVuSans-6c" x="77.490234"/>
      <use xlink:href="#DejaVuSans-69" x="105.273438"/>
      <use xlink:href="#DejaVuSans-64" x="133.056641"/>
      <use xlink:href="#DejaVuSans-65" x="196.533203"/>
     </g>
    </g>
    <g id="line2d_28">
     <path d="M 215.50625 562.426562 
L 231.50625 562.426562 
L 247.50625 562.426562 
" style="fill: none; stroke: #9467bd; stroke-width: 2; stroke-linecap: square"/>
    </g>
    <g id="text_20">
     <!-- Wukong -->
     <g transform="translate(260.30625 568.026562) scale(0.16 -0.16)">
      <defs>
       <path id="DejaVuSans-57" d="M 213 4666 
L 850 4666 
L 1831 722 
L 2809 4666 
L 3519 4666 
L 4500 722 
L 5478 4666 
L 6119 4666 
L 4947 0 
L 4153 0 
L 3169 4050 
L 2175 0 
L 1381 0 
L 213 4666 
z
" transform="scale(0.015625)"/>
       <path id="DejaVuSans-75" d="M 544 1381 
L 544 3500 
L 1119 3500 
L 1119 1403 
Q 1119 906 1312 657 
Q 1506 409 1894 409 
Q 2359 409 2629 706 
Q 2900 1003 2900 1516 
L 2900 3500 
L 3475 3500 
L 3475 0 
L 2900 0 
L 2900 538 
Q 2691 219 2414 64 
Q 2138 -91 1772 -91 
Q 1169 -91 856 284 
Q 544 659 544 1381 
z
M 1991 3584 
L 1991 3584 
z
" transform="scale(0.015625)"/>
       <path id="DejaVuSans-6b" d="M 581 4863 
L 1159 4863 
L 1159 1991 
L 2875 3500 
L 3609 3500 
L 1753 1863 
L 3688 0 
L 2938 0 
L 1159 1709 
L 1159 0 
L 581 0 
L 581 4863 
z
" transform="scale(0.015625)"/>
       <path id="DejaVuSans-6f" d="M 1959 3097 
Q 1497 3097 1228 2736 
Q 959 2375 959 1747 
Q 959 1119 1226 758 
Q 1494 397 1959 397 
Q 2419 397 2687 759 
Q 2956 1122 2956 1747 
Q 2956 2369 2687 2733 
Q 2419 3097 1959 3097 
z
M 1959 3584 
Q 2709 3584 3137 3096 
Q 3566 2609 3566 1747 
Q 3566 888 3137 398 
Q 2709 -91 1959 -91 
Q 1206 -91 779 398 
Q 353 888 353 1747 
Q 353 2609 779 3096 
Q 1206 3584 1959 3584 
z
" transform="scale(0.015625)"/>
       <path id="DejaVuSans-6e" d="M 3513 2113 
L 3513 0 
L 2938 0 
L 2938 2094 
Q 2938 2591 2744 2837 
Q 2550 3084 2163 3084 
Q 1697 3084 1428 2787 
Q 1159 2491 1159 1978 
L 1159 0 
L 581 0 
L 581 3500 
L 1159 3500 
L 1159 2956 
Q 1366 3272 1645 3428 
Q 1925 3584 2291 3584 
Q 2894 3584 3203 3211 
Q 3513 2838 3513 2113 
z
" transform="scale(0.015625)"/>
      </defs>
      <use xlink:href="#DejaVuSans-57"/>
      <use xlink:href="#DejaVuSans-75" x="95.251953"/>
      <use xlink:href="#DejaVuSans-6b" x="158.630859"/>
      <use xlink:href="#DejaVuSans-6f" x="212.916016"/>
      <use xlink:href="#DejaVuSans-6e" x="274.097656"/>
      <use xlink:href="#DejaVuSans-67" x="337.476562"/>
     </g>
    </g>
    <g id="line2d_29">
     <path d="M 215.50625 585.911562 
L 231.50625 585.911562 
L 247.50625 585.911562 
" style="fill: none; stroke: #8c564b; stroke-width: 2; stroke-linecap: square"/>
    </g>
    <g id="text_21">
     <!-- SD14 -->
     <g transform="translate(260.30625 591.511562) scale(0.16 -0.16)">
      <defs>
       <path id="DejaVuSans-53" d="M 3425 4513 
L 3425 3897 
Q 3066 4069 2747 4153 
Q 2428 4238 2131 4238 
Q 1616 4238 1336 4038 
Q 1056 3838 1056 3469 
Q 1056 3159 1242 3001 
Q 1428 2844 1947 2747 
L 2328 2669 
Q 3034 2534 3370 2195 
Q 3706 1856 3706 1288 
Q 3706 609 3251 259 
Q 2797 -91 1919 -91 
Q 1588 -91 1214 -16 
Q 841 59 441 206 
L 441 856 
Q 825 641 1194 531 
Q 1563 422 1919 422 
Q 2459 422 2753 634 
Q 3047 847 3047 1241 
Q 3047 1584 2836 1778 
Q 2625 1972 2144 2069 
L 1759 2144 
Q 1053 2284 737 2584 
Q 422 2884 422 3419 
Q 422 4038 858 4394 
Q 1294 4750 2059 4750 
Q 2388 4750 2728 4690 
Q 3069 4631 3425 4513 
z
" transform="scale(0.015625)"/>
      </defs>
      <use xlink:href="#DejaVuSans-53"/>
      <use xlink:href="#DejaVuSans-44" x="63.476562"/>
      <use xlink:href="#DejaVuSans-31" x="140.478516"/>
      <use xlink:href="#DejaVuSans-34" x="204.101562"/>
     </g>
    </g>
    <g id="line2d_30">
     <path d="M 356.45875 538.941562 
L 372.45875 538.941562 
L 388.45875 538.941562 
" style="fill: none; stroke: #e377c2; stroke-width: 2; stroke-linecap: square"/>
    </g>
    <g id="text_22">
     <!-- SD15 -->
     <g transform="translate(401.25875 544.541562) scale(0.16 -0.16)">
      <use xlink:href="#DejaVuSans-53"/>
      <use xlink:href="#DejaVuSans-44" x="63.476562"/>
      <use xlink:href="#DejaVuSans-31" x="140.478516"/>
      <use xlink:href="#DejaVuSans-35" x="204.101562"/>
     </g>
    </g>
    <g id="line2d_31">
     <path d="M 356.45875 562.426562 
L 372.45875 562.426562 
L 388.45875 562.426562 
" style="fill: none; stroke: #7f7f7f; stroke-width: 2; stroke-linecap: square"/>
    </g>
    <g id="text_23">
     <!-- Midjourney -->
     <g transform="translate(401.25875 568.026562) scale(0.16 -0.16)">
      <defs>
       <path id="DejaVuSans-6a" d="M 603 3500 
L 1178 3500 
L 1178 -63 
Q 1178 -731 923 -1031 
Q 669 -1331 103 -1331 
L -116 -1331 
L -116 -844 
L 38 -844 
Q 366 -844 484 -692 
Q 603 -541 603 -63 
L 603 3500 
z
M 603 4863 
L 1178 4863 
L 1178 4134 
L 603 4134 
L 603 4863 
z
" transform="scale(0.015625)"/>
       <path id="DejaVuSans-72" d="M 2631 2963 
Q 2534 3019 2420 3045 
Q 2306 3072 2169 3072 
Q 1681 3072 1420 2755 
Q 1159 2438 1159 1844 
L 1159 0 
L 581 0 
L 581 3500 
L 1159 3500 
L 1159 2956 
Q 1341 3275 1631 3429 
Q 1922 3584 2338 3584 
Q 2397 3584 2469 3576 
Q 2541 3569 2628 3553 
L 2631 2963 
z
" transform="scale(0.015625)"/>
       <path id="DejaVuSans-79" d="M 2059 -325 
Q 1816 -950 1584 -1140 
Q 1353 -1331 966 -1331 
L 506 -1331 
L 506 -850 
L 844 -850 
Q 1081 -850 1212 -737 
Q 1344 -625 1503 -206 
L 1606 56 
L 191 3500 
L 800 3500 
L 1894 763 
L 2988 3500 
L 3597 3500 
L 2059 -325 
z
" transform="scale(0.015625)"/>
      </defs>
      <use xlink:href="#DejaVuSans-4d"/>
      <use xlink:href="#DejaVuSans-69" x="86.279297"/>
      <use xlink:href="#DejaVuSans-64" x="114.0625"/>
      <use xlink:href="#DejaVuSans-6a" x="177.539062"/>
      <use xlink:href="#DejaVuSans-6f" x="205.322266"/>
      <use xlink:href="#DejaVuSans-75" x="266.503906"/>
      <use xlink:href="#DejaVuSans-72" x="329.882812"/>
      <use xlink:href="#DejaVuSans-6e" x="369.246094"/>
      <use xlink:href="#DejaVuSans-65" x="432.625"/>
      <use xlink:href="#DejaVuSans-79" x="494.148438"/>
     </g>
    </g>
   </g>
  </g>
 </g>
 <defs>
  <clipPath id="pe4adc46a76">
   <path d="M 505.56375 276.599062 
C 505.56375 247.477806 499.827497 218.639717 488.683275 191.735185 
C 477.539053 164.830652 461.203588 140.382901 440.61175 119.791063 
C 420.019912 99.199225 395.572161 82.86376 368.667628 71.719537 
C 341.763095 60.575315 312.925006 54.839062 283.80375 54.839062 
C 254.682494 54.839062 225.844405 60.575315 198.939872 71.719537 
C 172.035339 82.86376 147.587588 99.199225 126.99575 119.791063 
C 106.403912 140.382901 90.068447 164.830652 78.924225 191.735185 
C 67.780003 218.639717 62.04375 247.477806 62.04375 276.599062 
C 62.04375 305.720319 67.780003 334.558408 78.924225 361.46294 
C 90.068447 388.367473 106.403912 412.815224 126.99575 433.407062 
C 147.587588 453.9989 172.035339 470.334365 198.939872 481.478588 
C 225.844405 492.62281 254.682494 498.359062 283.80375 498.359062 
C 312.925006 498.359062 341.763095 492.62281 368.667628 481.478588 
C 395.572161 470.334365 420.019912 453.9989 440.61175 433.407062 
C 461.203588 412.815224 477.539053 388.367473 488.683275 361.46294 
C 499.827497 334.558408 505.56375 305.720319 505.56375 276.599062 
M 283.80375 276.599062 
C 283.80375 276.599062 283.80375 276.599062 283.80375 276.599062 
C 283.80375 276.599062 283.80375 276.599062 283.80375 276.599062 
C 283.80375 276.599062 283.80375 276.599062 283.80375 276.599062 
C 283.80375 276.599062 283.80375 276.599062 283.80375 276.599062 
C 283.80375 276.599062 283.80375 276.599062 283.80375 276.599062 
C 283.80375 276.599062 283.80375 276.599062 283.80375 276.599062 
C 283.80375 276.599062 283.80375 276.599062 283.80375 276.599062 
C 283.80375 276.599062 283.80375 276.599062 283.80375 276.599062 
C 283.80375 276.599062 283.80375 276.599062 283.80375 276.599062 
C 283.80375 276.599062 283.80375 276.599062 283.80375 276.599062 
C 283.80375 276.599062 283.80375 276.599062 283.80375 276.599062 
C 283.80375 276.599062 283.80375 276.599062 283.80375 276.599062 
C 283.80375 276.599062 283.80375 276.599062 283.80375 276.599062 
C 283.80375 276.599062 283.80375 276.599062 283.80375 276.599062 
C 283.80375 276.599062 283.80375 276.599062 283.80375 276.599062 
C 283.80375 276.599062 283.80375 276.599062 283.80375 276.599062 
z
"/>
  </clipPath>
 </defs>
</svg>
