<?xml version="1.0" encoding="utf-8" standalone="no"?>
<!DOCTYPE svg PUBLIC "-//W3C//DTD SVG 1.1//EN"
  "http://www.w3.org/Graphics/SVG/1.1/DTD/svg11.dtd">
<svg xmlns:xlink="http://www.w3.org/1999/xlink" width="686.012187pt" height="440.731094pt" viewBox="0 0 686.012187 440.731094" xmlns="http://www.w3.org/2000/svg" version="1.1">
 <metadata>
  <rdf:RDF xmlns:dc="http://purl.org/dc/elements/1.1/" xmlns:cc="http://creativecommons.org/ns#" xmlns:rdf="http://www.w3.org/1999/02/22-rdf-syntax-ns#">
   <cc:Work>
    <dc:type rdf:resource="http://purl.org/dc/dcmitype/StillImage"/>
    <dc:date>2025-03-12T19:40:43.873920</dc:date>
    <dc:format>image/svg+xml</dc:format>
    <dc:creator>
     <cc:Agent>
      <dc:title>Matplotlib v3.7.5, https://matplotlib.org/</dc:title>
     </cc:Agent>
    </dc:creator>
   </cc:Work>
  </rdf:RDF>
 </metadata>
 <defs>
  <style type="text/css">*{stroke-linejoin: round; stroke-linecap: butt}</style>
 </defs>
 <g id="figure_1">
  <g id="patch_1">
   <path d="M 0 440.731094 
L 686.012187 440.731094 
L 686.012187 0 
L 0 0 
z
" style="fill: #ffffff"/>
  </g>
  <g id="axes_1">
   <g id="patch_2">
    <path d="M 80.879375 372.439219 
L 638.879375 372.439219 
L 638.879375 39.799219 
L 80.879375 39.799219 
z
" style="fill: #ffffff"/>
   </g>
   <g id="matplotlib.axis_1">
    <g id="xtick_1">
     <g id="line2d_1">
      <path d="M 80.879375 372.439219 
L 80.879375 39.799219 
" clip-path="url(#p2f0b669db8)" style="fill: none; stroke: #b0b0b0; stroke-opacity: 0.3; stroke-width: 0.8; stroke-linecap: square"/>
     </g>
     <g id="line2d_2">
      <defs>
       <path id="m806324e9b7" d="M 0 0 
L 0 3.5 
" style="stroke: #000000; stroke-width: 0.8"/>
      </defs>
      <g>
       <use xlink:href="#m806324e9b7" x="80.879375" y="372.439219" style="stroke: #000000; stroke-width: 0.8"/>
      </g>
     </g>
     <g id="text_1">
      <!-- 0.20 -->
      <g transform="translate(69.746562 387.037656) scale(0.1 -0.1)">
       <defs>
        <path id="DejaVuSans-30" d="M 2034 4250 
Q 1547 4250 1301 3770 
Q 1056 3291 1056 2328 
Q 1056 1369 1301 889 
Q 1547 409 2034 409 
Q 2525 409 2770 889 
Q 3016 1369 3016 2328 
Q 3016 3291 2770 3770 
Q 2525 4250 2034 4250 
z
M 2034 4750 
Q 2819 4750 3233 4129 
Q 3647 3509 3647 2328 
Q 3647 1150 3233 529 
Q 2819 -91 2034 -91 
Q 1250 -91 836 529 
Q 422 1150 422 2328 
Q 422 3509 836 4129 
Q 1250 4750 2034 4750 
z
" transform="scale(0.015625)"/>
        <path id="DejaVuSans-2e" d="M 684 794 
L 1344 794 
L 1344 0 
L 684 0 
L 684 794 
z
" transform="scale(0.015625)"/>
        <path id="DejaVuSans-32" d="M 1228 531 
L 3431 531 
L 3431 0 
L 469 0 
L 469 531 
Q 828 903 1448 1529 
Q 2069 2156 2228 2338 
Q 2531 2678 2651 2914 
Q 2772 3150 2772 3378 
Q 2772 3750 2511 3984 
Q 2250 4219 1831 4219 
Q 1534 4219 1204 4116 
Q 875 4013 500 3803 
L 500 4441 
Q 881 4594 1212 4672 
Q 1544 4750 1819 4750 
Q 2544 4750 2975 4387 
Q 3406 4025 3406 3419 
Q 3406 3131 3298 2873 
Q 3191 2616 2906 2266 
Q 2828 2175 2409 1742 
Q 1991 1309 1228 531 
z
" transform="scale(0.015625)"/>
       </defs>
       <use xlink:href="#DejaVuSans-30"/>
       <use xlink:href="#DejaVuSans-2e" x="63.623047"/>
       <use xlink:href="#DejaVuSans-32" x="95.410156"/>
       <use xlink:href="#DejaVuSans-30" x="159.033203"/>
      </g>
     </g>
    </g>
    <g id="xtick_2">
     <g id="line2d_3">
      <path d="M 173.879375 372.439219 
L 173.879375 39.799219 
" clip-path="url(#p2f0b669db8)" style="fill: none; stroke: #b0b0b0; stroke-opacity: 0.3; stroke-width: 0.8; stroke-linecap: square"/>
     </g>
     <g id="line2d_4">
      <g>
       <use xlink:href="#m806324e9b7" x="173.879375" y="372.439219" style="stroke: #000000; stroke-width: 0.8"/>
      </g>
     </g>
     <g id="text_2">
      <!-- 0.25 -->
      <g transform="translate(162.746562 387.037656) scale(0.1 -0.1)">
       <defs>
        <path id="DejaVuSans-35" d="M 691 4666 
L 3169 4666 
L 3169 4134 
L 1269 4134 
L 1269 2991 
Q 1406 3038 1543 3061 
Q 1681 3084 1819 3084 
Q 2600 3084 3056 2656 
Q 3513 2228 3513 1497 
Q 3513 744 3044 326 
Q 2575 -91 1722 -91 
Q 1428 -91 1123 -41 
Q 819 9 494 109 
L 494 744 
Q 775 591 1075 516 
Q 1375 441 1709 441 
Q 2250 441 2565 725 
Q 2881 1009 2881 1497 
Q 2881 1984 2565 2268 
Q 2250 2553 1709 2553 
Q 1456 2553 1204 2497 
Q 953 2441 691 2322 
L 691 4666 
z
" transform="scale(0.015625)"/>
       </defs>
       <use xlink:href="#DejaVuSans-30"/>
       <use xlink:href="#DejaVuSans-2e" x="63.623047"/>
       <use xlink:href="#DejaVuSans-32" x="95.410156"/>
       <use xlink:href="#DejaVuSans-35" x="159.033203"/>
      </g>
     </g>
    </g>
    <g id="xtick_3">
     <g id="line2d_5">
      <path d="M 266.879375 372.439219 
L 266.879375 39.799219 
" clip-path="url(#p2f0b669db8)" style="fill: none; stroke: #b0b0b0; stroke-opacity: 0.3; stroke-width: 0.8; stroke-linecap: square"/>
     </g>
     <g id="line2d_6">
      <g>
       <use xlink:href="#m806324e9b7" x="266.879375" y="372.439219" style="stroke: #000000; stroke-width: 0.8"/>
      </g>
     </g>
     <g id="text_3">
      <!-- 0.30 -->
      <g transform="translate(255.746563 387.037656) scale(0.1 -0.1)">
       <defs>
        <path id="DejaVuSans-33" d="M 2597 2516 
Q 3050 2419 3304 2112 
Q 3559 1806 3559 1356 
Q 3559 666 3084 287 
Q 2609 -91 1734 -91 
Q 1441 -91 1130 -33 
Q 819 25 488 141 
L 488 750 
Q 750 597 1062 519 
Q 1375 441 1716 441 
Q 2309 441 2620 675 
Q 2931 909 2931 1356 
Q 2931 1769 2642 2001 
Q 2353 2234 1838 2234 
L 1294 2234 
L 1294 2753 
L 1863 2753 
Q 2328 2753 2575 2939 
Q 2822 3125 2822 3475 
Q 2822 3834 2567 4026 
Q 2313 4219 1838 4219 
Q 1578 4219 1281 4162 
Q 984 4106 628 3988 
L 628 4550 
Q 988 4650 1302 4700 
Q 1616 4750 1894 4750 
Q 2613 4750 3031 4423 
Q 3450 4097 3450 3541 
Q 3450 3153 3228 2886 
Q 3006 2619 2597 2516 
z
" transform="scale(0.015625)"/>
       </defs>
       <use xlink:href="#DejaVuSans-30"/>
       <use xlink:href="#DejaVuSans-2e" x="63.623047"/>
       <use xlink:href="#DejaVuSans-33" x="95.410156"/>
       <use xlink:href="#DejaVuSans-30" x="159.033203"/>
      </g>
     </g>
    </g>
    <g id="xtick_4">
     <g id="line2d_7">
      <path d="M 359.879375 372.439219 
L 359.879375 39.799219 
" clip-path="url(#p2f0b669db8)" style="fill: none; stroke: #b0b0b0; stroke-opacity: 0.3; stroke-width: 0.8; stroke-linecap: square"/>
     </g>
     <g id="line2d_8">
      <g>
       <use xlink:href="#m806324e9b7" x="359.879375" y="372.439219" style="stroke: #000000; stroke-width: 0.8"/>
      </g>
     </g>
     <g id="text_4">
      <!-- 0.35 -->
      <g transform="translate(348.746563 387.037656) scale(0.1 -0.1)">
       <use xlink:href="#DejaVuSans-30"/>
       <use xlink:href="#DejaVuSans-2e" x="63.623047"/>
       <use xlink:href="#DejaVuSans-33" x="95.410156"/>
       <use xlink:href="#DejaVuSans-35" x="159.033203"/>
      </g>
     </g>
    </g>
    <g id="xtick_5">
     <g id="line2d_9">
      <path d="M 452.879375 372.439219 
L 452.879375 39.799219 
" clip-path="url(#p2f0b669db8)" style="fill: none; stroke: #b0b0b0; stroke-opacity: 0.3; stroke-width: 0.8; stroke-linecap: square"/>
     </g>
     <g id="line2d_10">
      <g>
       <use xlink:href="#m806324e9b7" x="452.879375" y="372.439219" style="stroke: #000000; stroke-width: 0.8"/>
      </g>
     </g>
     <g id="text_5">
      <!-- 0.40 -->
      <g transform="translate(441.746562 387.037656) scale(0.1 -0.1)">
       <defs>
        <path id="DejaVuSans-34" d="M 2419 4116 
L 825 1625 
L 2419 1625 
L 2419 4116 
z
M 2253 4666 
L 3047 4666 
L 3047 1625 
L 3713 1625 
L 3713 1100 
L 3047 1100 
L 3047 0 
L 2419 0 
L 2419 1100 
L 313 1100 
L 313 1709 
L 2253 4666 
z
" transform="scale(0.015625)"/>
       </defs>
       <use xlink:href="#DejaVuSans-30"/>
       <use xlink:href="#DejaVuSans-2e" x="63.623047"/>
       <use xlink:href="#DejaVuSans-34" x="95.410156"/>
       <use xlink:href="#DejaVuSans-30" x="159.033203"/>
      </g>
     </g>
    </g>
    <g id="xtick_6">
     <g id="line2d_11">
      <path d="M 545.879375 372.439219 
L 545.879375 39.799219 
" clip-path="url(#p2f0b669db8)" style="fill: none; stroke: #b0b0b0; stroke-opacity: 0.3; stroke-width: 0.8; stroke-linecap: square"/>
     </g>
     <g id="line2d_12">
      <g>
       <use xlink:href="#m806324e9b7" x="545.879375" y="372.439219" style="stroke: #000000; stroke-width: 0.8"/>
      </g>
     </g>
     <g id="text_6">
      <!-- 0.45 -->
      <g transform="translate(534.746562 387.037656) scale(0.1 -0.1)">
       <use xlink:href="#DejaVuSans-30"/>
       <use xlink:href="#DejaVuSans-2e" x="63.623047"/>
       <use xlink:href="#DejaVuSans-34" x="95.410156"/>
       <use xlink:href="#DejaVuSans-35" x="159.033203"/>
      </g>
     </g>
    </g>
    <g id="xtick_7">
     <g id="line2d_13">
      <path d="M 638.879375 372.439219 
L 638.879375 39.799219 
" clip-path="url(#p2f0b669db8)" style="fill: none; stroke: #b0b0b0; stroke-opacity: 0.3; stroke-width: 0.8; stroke-linecap: square"/>
     </g>
     <g id="line2d_14">
      <g>
       <use xlink:href="#m806324e9b7" x="638.879375" y="372.439219" style="stroke: #000000; stroke-width: 0.8"/>
      </g>
     </g>
     <g id="text_7">
      <!-- 0.50 -->
      <g transform="translate(627.746562 387.037656) scale(0.1 -0.1)">
       <use xlink:href="#DejaVuSans-30"/>
       <use xlink:href="#DejaVuSans-2e" x="63.623047"/>
       <use xlink:href="#DejaVuSans-35" x="95.410156"/>
       <use xlink:href="#DejaVuSans-30" x="159.033203"/>
      </g>
     </g>
    </g>
    <g id="text_8">
     <!-- Frequency -->
     <g transform="translate(328.88375 402.235469) scale(0.12 -0.12)">
      <defs>
       <path id="DejaVuSans-46" d="M 628 4666 
L 3309 4666 
L 3309 4134 
L 1259 4134 
L 1259 2759 
L 3109 2759 
L 3109 2228 
L 1259 2228 
L 1259 0 
L 628 0 
L 628 4666 
z
" transform="scale(0.015625)"/>
       <path id="DejaVuSans-72" d="M 2631 2963 
Q 2534 3019 2420 3045 
Q 2306 3072 2169 3072 
Q 1681 3072 1420 2755 
Q 1159 2438 1159 1844 
L 1159 0 
L 581 0 
L 581 3500 
L 1159 3500 
L 1159 2956 
Q 1341 3275 1631 3429 
Q 1922 3584 2338 3584 
Q 2397 3584 2469 3576 
Q 2541 3569 2628 3553 
L 2631 2963 
z
" transform="scale(0.015625)"/>
       <path id="DejaVuSans-65" d="M 3597 1894 
L 3597 1613 
L 953 1613 
Q 991 1019 1311 708 
Q 1631 397 2203 397 
Q 2534 397 2845 478 
Q 3156 559 3463 722 
L 3463 178 
Q 3153 47 2828 -22 
Q 2503 -91 2169 -91 
Q 1331 -91 842 396 
Q 353 884 353 1716 
Q 353 2575 817 3079 
Q 1281 3584 2069 3584 
Q 2775 3584 3186 3129 
Q 3597 2675 3597 1894 
z
M 3022 2063 
Q 3016 2534 2758 2815 
Q 2500 3097 2075 3097 
Q 1594 3097 1305 2825 
Q 1016 2553 972 2059 
L 3022 2063 
z
" transform="scale(0.015625)"/>
       <path id="DejaVuSans-71" d="M 947 1747 
Q 947 1113 1208 752 
Q 1469 391 1925 391 
Q 2381 391 2643 752 
Q 2906 1113 2906 1747 
Q 2906 2381 2643 2742 
Q 2381 3103 1925 3103 
Q 1469 3103 1208 2742 
Q 947 2381 947 1747 
z
M 2906 525 
Q 2725 213 2448 61 
Q 2172 -91 1784 -91 
Q 1150 -91 751 415 
Q 353 922 353 1747 
Q 353 2572 751 3078 
Q 1150 3584 1784 3584 
Q 2172 3584 2448 3432 
Q 2725 3281 2906 2969 
L 2906 3500 
L 3481 3500 
L 3481 -1331 
L 2906 -1331 
L 2906 525 
z
" transform="scale(0.015625)"/>
       <path id="DejaVuSans-75" d="M 544 1381 
L 544 3500 
L 1119 3500 
L 1119 1403 
Q 1119 906 1312 657 
Q 1506 409 1894 409 
Q 2359 409 2629 706 
Q 2900 1003 2900 1516 
L 2900 3500 
L 3475 3500 
L 3475 0 
L 2900 0 
L 2900 538 
Q 2691 219 2414 64 
Q 2138 -91 1772 -91 
Q 1169 -91 856 284 
Q 544 659 544 1381 
z
M 1991 3584 
L 1991 3584 
z
" transform="scale(0.015625)"/>
       <path id="DejaVuSans-6e" d="M 3513 2113 
L 3513 0 
L 2938 0 
L 2938 2094 
Q 2938 2591 2744 2837 
Q 2550 3084 2163 3084 
Q 1697 3084 1428 2787 
Q 1159 2491 1159 1978 
L 1159 0 
L 581 0 
L 581 3500 
L 1159 3500 
L 1159 2956 
Q 1366 3272 1645 3428 
Q 1925 3584 2291 3584 
Q 2894 3584 3203 3211 
Q 3513 2838 3513 2113 
z
" transform="scale(0.015625)"/>
       <path id="DejaVuSans-63" d="M 3122 3366 
L 3122 2828 
Q 2878 2963 2633 3030 
Q 2388 3097 2138 3097 
Q 1578 3097 1268 2742 
Q 959 2388 959 1747 
Q 959 1106 1268 751 
Q 1578 397 2138 397 
Q 2388 397 2633 464 
Q 2878 531 3122 666 
L 3122 134 
Q 2881 22 2623 -34 
Q 2366 -91 2075 -91 
Q 1284 -91 818 406 
Q 353 903 353 1747 
Q 353 2603 823 3093 
Q 1294 3584 2113 3584 
Q 2378 3584 2631 3529 
Q 2884 3475 3122 3366 
z
" transform="scale(0.015625)"/>
       <path id="DejaVuSans-79" d="M 2059 -325 
Q 1816 -950 1584 -1140 
Q 1353 -1331 966 -1331 
L 506 -1331 
L 506 -850 
L 844 -850 
Q 1081 -850 1212 -737 
Q 1344 -625 1503 -206 
L 1606 56 
L 191 3500 
L 800 3500 
L 1894 763 
L 2988 3500 
L 3597 3500 
L 2059 -325 
z
" transform="scale(0.015625)"/>
      </defs>
      <use xlink:href="#DejaVuSans-46"/>
      <use xlink:href="#DejaVuSans-72" x="50.269531"/>
      <use xlink:href="#DejaVuSans-65" x="89.132812"/>
      <use xlink:href="#DejaVuSans-71" x="150.65625"/>
      <use xlink:href="#DejaVuSans-75" x="214.132812"/>
      <use xlink:href="#DejaVuSans-65" x="277.511719"/>
      <use xlink:href="#DejaVuSans-6e" x="339.035156"/>
      <use xlink:href="#DejaVuSans-63" x="402.414062"/>
      <use xlink:href="#DejaVuSans-79" x="457.394531"/>
     </g>
    </g>
   </g>
   <g id="matplotlib.axis_2">
    <g id="ytick_1">
     <g id="line2d_15">
      <path d="M 80.879375 372.439219 
L 638.879375 372.439219 
" clip-path="url(#p2f0b669db8)" style="fill: none; stroke: #b0b0b0; stroke-opacity: 0.3; stroke-width: 0.8; stroke-linecap: square"/>
     </g>
     <g id="line2d_16">
      <defs>
       <path id="mebe222564b" d="M 0 0 
L -3.5 0 
" style="stroke: #000000; stroke-width: 0.8"/>
      </defs>
      <g>
       <use xlink:href="#mebe222564b" x="80.879375" y="372.439219" style="stroke: #000000; stroke-width: 0.8"/>
      </g>
     </g>
     <g id="text_9">
      <!-- 0.00 -->
      <g transform="translate(51.61375 376.238438) scale(0.1 -0.1)">
       <use xlink:href="#DejaVuSans-30"/>
       <use xlink:href="#DejaVuSans-2e" x="63.623047"/>
       <use xlink:href="#DejaVuSans-30" x="95.410156"/>
       <use xlink:href="#DejaVuSans-30" x="159.033203"/>
      </g>
     </g>
    </g>
    <g id="ytick_2">
     <g id="line2d_17">
      <path d="M 80.879375 330.859219 
L 638.879375 330.859219 
" clip-path="url(#p2f0b669db8)" style="fill: none; stroke: #b0b0b0; stroke-opacity: 0.3; stroke-width: 0.8; stroke-linecap: square"/>
     </g>
     <g id="line2d_18">
      <g>
       <use xlink:href="#mebe222564b" x="80.879375" y="330.859219" style="stroke: #000000; stroke-width: 0.8"/>
      </g>
     </g>
     <g id="text_10">
      <!-- 0.25 -->
      <g transform="translate(51.61375 334.658438) scale(0.1 -0.1)">
       <use xlink:href="#DejaVuSans-30"/>
       <use xlink:href="#DejaVuSans-2e" x="63.623047"/>
       <use xlink:href="#DejaVuSans-32" x="95.410156"/>
       <use xlink:href="#DejaVuSans-35" x="159.033203"/>
      </g>
     </g>
    </g>
    <g id="ytick_3">
     <g id="line2d_19">
      <path d="M 80.879375 289.279219 
L 638.879375 289.279219 
" clip-path="url(#p2f0b669db8)" style="fill: none; stroke: #b0b0b0; stroke-opacity: 0.3; stroke-width: 0.8; stroke-linecap: square"/>
     </g>
     <g id="line2d_20">
      <g>
       <use xlink:href="#mebe222564b" x="80.879375" y="289.279219" style="stroke: #000000; stroke-width: 0.8"/>
      </g>
     </g>
     <g id="text_11">
      <!-- 0.50 -->
      <g transform="translate(51.61375 293.078438) scale(0.1 -0.1)">
       <use xlink:href="#DejaVuSans-30"/>
       <use xlink:href="#DejaVuSans-2e" x="63.623047"/>
       <use xlink:href="#DejaVuSans-35" x="95.410156"/>
       <use xlink:href="#DejaVuSans-30" x="159.033203"/>
      </g>
     </g>
    </g>
    <g id="ytick_4">
     <g id="line2d_21">
      <path d="M 80.879375 247.699219 
L 638.879375 247.699219 
" clip-path="url(#p2f0b669db8)" style="fill: none; stroke: #b0b0b0; stroke-opacity: 0.3; stroke-width: 0.8; stroke-linecap: square"/>
     </g>
     <g id="line2d_22">
      <g>
       <use xlink:href="#mebe222564b" x="80.879375" y="247.699219" style="stroke: #000000; stroke-width: 0.8"/>
      </g>
     </g>
     <g id="text_12">
      <!-- 0.75 -->
      <g transform="translate(51.61375 251.498438) scale(0.1 -0.1)">
       <defs>
        <path id="DejaVuSans-37" d="M 525 4666 
L 3525 4666 
L 3525 4397 
L 1831 0 
L 1172 0 
L 2766 4134 
L 525 4134 
L 525 4666 
z
" transform="scale(0.015625)"/>
       </defs>
       <use xlink:href="#DejaVuSans-30"/>
       <use xlink:href="#DejaVuSans-2e" x="63.623047"/>
       <use xlink:href="#DejaVuSans-37" x="95.410156"/>
       <use xlink:href="#DejaVuSans-35" x="159.033203"/>
      </g>
     </g>
    </g>
    <g id="ytick_5">
     <g id="line2d_23">
      <path d="M 80.879375 206.119219 
L 638.879375 206.119219 
" clip-path="url(#p2f0b669db8)" style="fill: none; stroke: #b0b0b0; stroke-opacity: 0.3; stroke-width: 0.8; stroke-linecap: square"/>
     </g>
     <g id="line2d_24">
      <g>
       <use xlink:href="#mebe222564b" x="80.879375" y="206.119219" style="stroke: #000000; stroke-width: 0.8"/>
      </g>
     </g>
     <g id="text_13">
      <!-- 1.00 -->
      <g transform="translate(51.61375 209.918438) scale(0.1 -0.1)">
       <defs>
        <path id="DejaVuSans-31" d="M 794 531 
L 1825 531 
L 1825 4091 
L 703 3866 
L 703 4441 
L 1819 4666 
L 2450 4666 
L 2450 531 
L 3481 531 
L 3481 0 
L 794 0 
L 794 531 
z
" transform="scale(0.015625)"/>
       </defs>
       <use xlink:href="#DejaVuSans-31"/>
       <use xlink:href="#DejaVuSans-2e" x="63.623047"/>
       <use xlink:href="#DejaVuSans-30" x="95.410156"/>
       <use xlink:href="#DejaVuSans-30" x="159.033203"/>
      </g>
     </g>
    </g>
    <g id="ytick_6">
     <g id="line2d_25">
      <path d="M 80.879375 164.539219 
L 638.879375 164.539219 
" clip-path="url(#p2f0b669db8)" style="fill: none; stroke: #b0b0b0; stroke-opacity: 0.3; stroke-width: 0.8; stroke-linecap: square"/>
     </g>
     <g id="line2d_26">
      <g>
       <use xlink:href="#mebe222564b" x="80.879375" y="164.539219" style="stroke: #000000; stroke-width: 0.8"/>
      </g>
     </g>
     <g id="text_14">
      <!-- 1.25 -->
      <g transform="translate(51.61375 168.338438) scale(0.1 -0.1)">
       <use xlink:href="#DejaVuSans-31"/>
       <use xlink:href="#DejaVuSans-2e" x="63.623047"/>
       <use xlink:href="#DejaVuSans-32" x="95.410156"/>
       <use xlink:href="#DejaVuSans-35" x="159.033203"/>
      </g>
     </g>
    </g>
    <g id="ytick_7">
     <g id="line2d_27">
      <path d="M 80.879375 122.959219 
L 638.879375 122.959219 
" clip-path="url(#p2f0b669db8)" style="fill: none; stroke: #b0b0b0; stroke-opacity: 0.3; stroke-width: 0.8; stroke-linecap: square"/>
     </g>
     <g id="line2d_28">
      <g>
       <use xlink:href="#mebe222564b" x="80.879375" y="122.959219" style="stroke: #000000; stroke-width: 0.8"/>
      </g>
     </g>
     <g id="text_15">
      <!-- 1.50 -->
      <g transform="translate(51.61375 126.758438) scale(0.1 -0.1)">
       <use xlink:href="#DejaVuSans-31"/>
       <use xlink:href="#DejaVuSans-2e" x="63.623047"/>
       <use xlink:href="#DejaVuSans-35" x="95.410156"/>
       <use xlink:href="#DejaVuSans-30" x="159.033203"/>
      </g>
     </g>
    </g>
    <g id="ytick_8">
     <g id="line2d_29">
      <path d="M 80.879375 81.379219 
L 638.879375 81.379219 
" clip-path="url(#p2f0b669db8)" style="fill: none; stroke: #b0b0b0; stroke-opacity: 0.3; stroke-width: 0.8; stroke-linecap: square"/>
     </g>
     <g id="line2d_30">
      <g>
       <use xlink:href="#mebe222564b" x="80.879375" y="81.379219" style="stroke: #000000; stroke-width: 0.8"/>
      </g>
     </g>
     <g id="text_16">
      <!-- 1.75 -->
      <g transform="translate(51.61375 85.178438) scale(0.1 -0.1)">
       <use xlink:href="#DejaVuSans-31"/>
       <use xlink:href="#DejaVuSans-2e" x="63.623047"/>
       <use xlink:href="#DejaVuSans-37" x="95.410156"/>
       <use xlink:href="#DejaVuSans-35" x="159.033203"/>
      </g>
     </g>
    </g>
    <g id="ytick_9">
     <g id="line2d_31">
      <path d="M 80.879375 39.799219 
L 638.879375 39.799219 
" clip-path="url(#p2f0b669db8)" style="fill: none; stroke: #b0b0b0; stroke-opacity: 0.3; stroke-width: 0.8; stroke-linecap: square"/>
     </g>
     <g id="line2d_32">
      <g>
       <use xlink:href="#mebe222564b" x="80.879375" y="39.799219" style="stroke: #000000; stroke-width: 0.8"/>
      </g>
     </g>
     <g id="text_17">
      <!-- 2.00 -->
      <g transform="translate(51.61375 43.598438) scale(0.1 -0.1)">
       <use xlink:href="#DejaVuSans-32"/>
       <use xlink:href="#DejaVuSans-2e" x="63.623047"/>
       <use xlink:href="#DejaVuSans-30" x="95.410156"/>
       <use xlink:href="#DejaVuSans-30" x="159.033203"/>
      </g>
     </g>
    </g>
    <g id="text_18">
     <!-- Power Density -->
     <g transform="translate(45.118125 248.973281) rotate(-90) scale(0.12 -0.12)">
      <defs>
       <path id="DejaVuSans-50" d="M 1259 4147 
L 1259 2394 
L 2053 2394 
Q 2494 2394 2734 2622 
Q 2975 2850 2975 3272 
Q 2975 3691 2734 3919 
Q 2494 4147 2053 4147 
L 1259 4147 
z
M 628 4666 
L 2053 4666 
Q 2838 4666 3239 4311 
Q 3641 3956 3641 3272 
Q 3641 2581 3239 2228 
Q 2838 1875 2053 1875 
L 1259 1875 
L 1259 0 
L 628 0 
L 628 4666 
z
" transform="scale(0.015625)"/>
       <path id="DejaVuSans-6f" d="M 1959 3097 
Q 1497 3097 1228 2736 
Q 959 2375 959 1747 
Q 959 1119 1226 758 
Q 1494 397 1959 397 
Q 2419 397 2687 759 
Q 2956 1122 2956 1747 
Q 2956 2369 2687 2733 
Q 2419 3097 1959 3097 
z
M 1959 3584 
Q 2709 3584 3137 3096 
Q 3566 2609 3566 1747 
Q 3566 888 3137 398 
Q 2709 -91 1959 -91 
Q 1206 -91 779 398 
Q 353 888 353 1747 
Q 353 2609 779 3096 
Q 1206 3584 1959 3584 
z
" transform="scale(0.015625)"/>
       <path id="DejaVuSans-77" d="M 269 3500 
L 844 3500 
L 1563 769 
L 2278 3500 
L 2956 3500 
L 3675 769 
L 4391 3500 
L 4966 3500 
L 4050 0 
L 3372 0 
L 2619 2869 
L 1863 0 
L 1184 0 
L 269 3500 
z
" transform="scale(0.015625)"/>
       <path id="DejaVuSans-20" transform="scale(0.015625)"/>
       <path id="DejaVuSans-44" d="M 1259 4147 
L 1259 519 
L 2022 519 
Q 2988 519 3436 956 
Q 3884 1394 3884 2338 
Q 3884 3275 3436 3711 
Q 2988 4147 2022 4147 
L 1259 4147 
z
M 628 4666 
L 1925 4666 
Q 3281 4666 3915 4102 
Q 4550 3538 4550 2338 
Q 4550 1131 3912 565 
Q 3275 0 1925 0 
L 628 0 
L 628 4666 
z
" transform="scale(0.015625)"/>
       <path id="DejaVuSans-73" d="M 2834 3397 
L 2834 2853 
Q 2591 2978 2328 3040 
Q 2066 3103 1784 3103 
Q 1356 3103 1142 2972 
Q 928 2841 928 2578 
Q 928 2378 1081 2264 
Q 1234 2150 1697 2047 
L 1894 2003 
Q 2506 1872 2764 1633 
Q 3022 1394 3022 966 
Q 3022 478 2636 193 
Q 2250 -91 1575 -91 
Q 1294 -91 989 -36 
Q 684 19 347 128 
L 347 722 
Q 666 556 975 473 
Q 1284 391 1588 391 
Q 1994 391 2212 530 
Q 2431 669 2431 922 
Q 2431 1156 2273 1281 
Q 2116 1406 1581 1522 
L 1381 1569 
Q 847 1681 609 1914 
Q 372 2147 372 2553 
Q 372 3047 722 3315 
Q 1072 3584 1716 3584 
Q 2034 3584 2315 3537 
Q 2597 3491 2834 3397 
z
" transform="scale(0.015625)"/>
       <path id="DejaVuSans-69" d="M 603 3500 
L 1178 3500 
L 1178 0 
L 603 0 
L 603 3500 
z
M 603 4863 
L 1178 4863 
L 1178 4134 
L 603 4134 
L 603 4863 
z
" transform="scale(0.015625)"/>
       <path id="DejaVuSans-74" d="M 1172 4494 
L 1172 3500 
L 2356 3500 
L 2356 3053 
L 1172 3053 
L 1172 1153 
Q 1172 725 1289 603 
Q 1406 481 1766 481 
L 2356 481 
L 2356 0 
L 1766 0 
Q 1100 0 847 248 
Q 594 497 594 1153 
L 594 3053 
L 172 3053 
L 172 3500 
L 594 3500 
L 594 4494 
L 1172 4494 
z
" transform="scale(0.015625)"/>
      </defs>
      <use xlink:href="#DejaVuSans-50"/>
      <use xlink:href="#DejaVuSans-6f" x="56.677734"/>
      <use xlink:href="#DejaVuSans-77" x="117.859375"/>
      <use xlink:href="#DejaVuSans-65" x="199.646484"/>
      <use xlink:href="#DejaVuSans-72" x="261.169922"/>
      <use xlink:href="#DejaVuSans-20" x="302.283203"/>
      <use xlink:href="#DejaVuSans-44" x="334.070312"/>
      <use xlink:href="#DejaVuSans-65" x="411.072266"/>
      <use xlink:href="#DejaVuSans-6e" x="472.595703"/>
      <use xlink:href="#DejaVuSans-73" x="535.974609"/>
      <use xlink:href="#DejaVuSans-69" x="588.074219"/>
      <use xlink:href="#DejaVuSans-74" x="615.857422"/>
      <use xlink:href="#DejaVuSans-79" x="655.066406"/>
     </g>
    </g>
   </g>
   <g id="line2d_33">
    <path d="M 82.343942 191.40735 
L 89.666777 197.990967 
L 96.989611 203.640223 
L 104.312446 210.227578 
L 111.635281 216.052213 
L 118.958115 221.704363 
L 126.28095 226.82318 
L 133.603784 231.272631 
L 140.926619 236.172212 
L 148.249454 241.091581 
L 155.572288 245.622094 
L 162.895123 250.733794 
L 170.217958 254.365009 
L 177.540792 259.142744 
L 184.863627 262.601555 
L 192.186462 266.509633 
L 199.509296 269.819167 
L 206.832131 273.576362 
L 214.154966 277.145728 
L 221.4778 280.60668 
L 228.800635 283.697573 
L 236.123469 286.642907 
L 243.446304 289.211857 
L 250.769139 291.984132 
L 258.091973 294.502449 
L 265.414808 296.764677 
L 272.737643 299.146025 
L 280.060477 301.032162 
L 287.383312 303.191013 
L 294.706147 304.667819 
L 302.028981 306.455996 
L 309.351816 308.157347 
L 316.674651 309.482501 
L 323.997485 310.816811 
L 331.32032 312.315045 
L 338.643155 313.436251 
L 345.965989 314.496999 
L 353.288824 315.677695 
L 360.611658 316.542544 
L 367.934493 317.669277 
L 375.257328 318.59491 
L 382.580162 319.655515 
L 389.902997 320.544433 
L 397.225832 321.359482 
L 404.548666 322.170883 
L 411.871501 322.856898 
L 419.194336 323.62233 
L 426.51717 324.216269 
L 433.840005 324.883008 
L 441.16284 325.386279 
L 448.485674 325.756724 
L 455.808509 326.380384 
L 463.131344 327.080858 
L 470.454178 327.378861 
L 477.777013 327.937127 
L 485.099847 328.228989 
L 492.422682 328.674781 
L 499.745517 328.847776 
L 507.068351 329.159058 
L 514.391186 329.414141 
L 521.714021 329.819065 
L 529.036855 329.924584 
L 536.35969 330.233472 
L 543.682525 330.134159 
L 551.005359 330.387631 
L 558.328194 330.490563 
L 565.651029 330.472297 
L 572.973863 330.492178 
L 580.296698 330.559486 
L 587.619532 330.371175 
L 594.942367 330.263113 
L 602.265202 330.034187 
L 609.588036 329.81564 
L 616.910871 329.14962 
L 624.233706 328.461385 
L 631.55654 327.334399 
L 638.879375 324.591374 
" clip-path="url(#p2f0b669db8)" style="fill: none; stroke: #1f77b4; stroke-width: 1.8; stroke-linecap: square"/>
   </g>
   <g id="line2d_34">
    <path d="M 82.343942 236.840389 
L 89.666777 253.965953 
L 96.989611 261.945086 
L 104.312446 266.808771 
L 111.635281 273.029884 
L 118.958115 280.217696 
L 126.28095 282.804371 
L 133.603784 286.247995 
L 140.926619 292.228017 
L 148.249454 295.59666 
L 155.572288 298.856959 
L 162.895123 301.484196 
L 170.217958 302.534431 
L 177.540792 294.648177 
L 184.863627 304.603862 
L 192.186462 306.798526 
L 199.509296 307.565301 
L 206.832131 307.078323 
L 214.154966 308.524273 
L 221.4778 310.083826 
L 228.800635 310.442866 
L 236.123469 311.366998 
L 243.446304 312.187023 
L 250.769139 312.562931 
L 258.091973 313.049983 
L 265.414808 313.842142 
L 272.737643 313.877974 
L 280.060477 314.574666 
L 287.383312 315.470455 
L 294.706147 315.60783 
L 302.028981 316.113431 
L 309.351816 316.617297 
L 316.674651 316.705422 
L 323.997485 317.28411 
L 331.32032 316.633203 
L 338.643155 316.007793 
L 345.965989 317.583887 
L 353.288824 317.773943 
L 360.611658 318.698659 
L 367.934493 317.518721 
L 375.257328 318.950342 
L 382.580162 320.107022 
L 389.902997 320.532453 
L 397.225832 321.144628 
L 404.548666 321.211633 
L 411.871501 321.169466 
L 419.194336 322.013621 
L 426.51717 322.30632 
L 433.840005 322.650455 
L 441.16284 322.724583 
L 448.485674 322.623506 
L 455.808509 323.051345 
L 463.131344 323.295647 
L 470.454178 323.451021 
L 477.777013 323.616907 
L 485.099847 323.181935 
L 492.422682 323.030502 
L 499.745517 323.613978 
L 507.068351 323.915014 
L 514.391186 324.174965 
L 521.714021 324.518604 
L 529.036855 324.601273 
L 536.35969 324.716606 
L 543.682525 324.703961 
L 551.005359 325.033048 
L 558.328194 325.337286 
L 565.651029 325.550445 
L 572.973863 325.650259 
L 580.296698 325.770122 
L 587.619532 325.803545 
L 594.942367 326.268868 
L 602.265202 326.387427 
L 609.588036 326.500877 
L 616.910871 326.686278 
L 624.233706 326.782404 
L 631.55654 326.825978 
L 638.879375 326.817889 
" clip-path="url(#p2f0b669db8)" style="fill: none; stroke: #ff7f0e; stroke-width: 1.8; stroke-linecap: square"/>
   </g>
   <g id="line2d_35">
    <path d="M 82.343942 65.125532 
L 89.666777 102.084736 
L 96.989611 109.364853 
L 104.312446 121.978184 
L 111.635281 154.444735 
L 118.958115 149.406782 
L 126.28095 154.610745 
L 133.603784 156.36029 
L 140.926619 173.794767 
L 148.249454 183.561077 
L 155.572288 198.106994 
L 162.895123 208.822823 
L 170.217958 217.874472 
L 177.540792 216.653394 
L 184.863627 233.245922 
L 192.186462 231.650125 
L 199.509296 242.329413 
L 206.832131 236.649119 
L 214.154966 235.043517 
L 221.4778 247.526824 
L 228.800635 256.209019 
L 236.123469 260.827484 
L 243.446304 267.22693 
L 250.769139 265.382841 
L 258.091973 273.073037 
L 265.414808 277.176063 
L 272.737643 282.280813 
L 280.060477 286.303698 
L 287.383312 289.186925 
L 294.706147 287.118286 
L 302.028981 292.006244 
L 309.351816 298.826059 
L 316.674651 300.924076 
L 323.997485 302.198628 
L 331.32032 302.927117 
L 338.643155 303.999341 
L 345.965989 307.472709 
L 353.288824 308.503881 
L 360.611658 308.77655 
L 367.934493 313.761075 
L 375.257328 314.28211 
L 382.580162 316.022034 
L 389.902997 317.701049 
L 397.225832 320.157001 
L 404.548666 321.707617 
L 411.871501 322.256218 
L 419.194336 323.644764 
L 426.51717 325.302044 
L 433.840005 325.737983 
L 441.16284 326.263752 
L 448.485674 326.719186 
L 455.808509 327.637939 
L 463.131344 328.745122 
L 470.454178 328.835751 
L 477.777013 329.907335 
L 485.099847 330.551218 
L 492.422682 330.623343 
L 499.745517 330.969109 
L 507.068351 331.618472 
L 514.391186 332.383156 
L 521.714021 332.776107 
L 529.036855 332.513049 
L 536.35969 332.718988 
L 543.682525 333.169545 
L 551.005359 333.659427 
L 558.328194 333.707728 
L 565.651029 334.10038 
L 572.973863 334.124901 
L 580.296698 334.518494 
L 587.619532 334.726114 
L 594.942367 334.893713 
L 602.265202 335.111226 
L 609.588036 335.132925 
L 616.910871 335.056821 
L 624.233706 335.045907 
L 631.55654 335.101177 
L 638.879375 334.485837 
" clip-path="url(#p2f0b669db8)" style="fill: none; stroke: #2ca02c; stroke-width: 1.8; stroke-linecap: square"/>
   </g>
   <g id="line2d_36">
    <path d="M 82.343942 218.218816 
L 89.666777 222.950959 
L 96.989611 228.076725 
L 104.312446 231.702419 
L 111.635281 235.336509 
L 118.958115 239.509236 
L 126.28095 243.641666 
L 133.603784 247.056877 
L 140.926619 250.410863 
L 148.249454 253.547269 
L 155.572288 256.757619 
L 162.895123 259.975473 
L 170.217958 262.884425 
L 177.540792 265.014755 
L 184.863627 268.696568 
L 192.186462 271.536185 
L 199.509296 274.225812 
L 206.832131 277.37338 
L 214.154966 279.649864 
L 221.4778 282.292401 
L 228.800635 284.732923 
L 236.123469 287.06739 
L 243.446304 289.532309 
L 250.769139 291.478432 
L 258.091973 293.635598 
L 265.414808 295.660488 
L 272.737643 297.767566 
L 280.060477 299.363289 
L 287.383312 301.054324 
L 294.706147 302.495848 
L 302.028981 304.215548 
L 309.351816 305.493678 
L 316.674651 306.602497 
L 323.997485 307.839155 
L 331.32032 308.899224 
L 338.643155 310.168537 
L 345.965989 311.322719 
L 353.288824 312.414705 
L 360.611658 313.338321 
L 367.934493 314.162411 
L 375.257328 315.206584 
L 382.580162 315.978742 
L 389.902997 316.813241 
L 397.225832 317.678987 
L 404.548666 318.450164 
L 411.871501 318.798294 
L 419.194336 319.91379 
L 426.51717 320.314793 
L 433.840005 321.080012 
L 441.16284 321.814693 
L 448.485674 322.212455 
L 455.808509 322.734075 
L 463.131344 323.159818 
L 470.454178 323.617765 
L 477.777013 324.009752 
L 485.099847 324.428333 
L 492.422682 324.792587 
L 499.745517 325.02367 
L 507.068351 325.374506 
L 514.391186 325.510668 
L 521.714021 325.618903 
L 529.036855 325.763218 
L 536.35969 326.002355 
L 543.682525 325.803075 
L 551.005359 325.9067 
L 558.328194 325.93361 
L 565.651029 325.989264 
L 572.973863 325.944599 
L 580.296698 325.808577 
L 587.619532 325.410854 
L 594.942367 325.280596 
L 602.265202 324.610373 
L 609.588036 324.428174 
L 616.910871 322.88706 
L 624.233706 320.805821 
L 631.55654 316.701492 
L 638.879375 302.014862 
" clip-path="url(#p2f0b669db8)" style="fill: none; stroke: #d62728; stroke-width: 1.8; stroke-linecap: square"/>
   </g>
   <g id="line2d_37">
    <path d="M 82.343942 166.727453 
L 89.666777 167.744235 
L 96.989611 170.928315 
L 104.312446 173.887716 
L 111.635281 180.790963 
L 118.958115 187.441457 
L 126.28095 192.89625 
L 133.603784 201.274974 
L 140.926619 209.486945 
L 148.249454 216.579628 
L 155.572288 221.967476 
L 162.895123 227.359864 
L 170.217958 231.455257 
L 177.540792 230.892629 
L 184.863627 236.705546 
L 192.186462 239.088163 
L 199.509296 240.469948 
L 206.832131 242.344829 
L 214.154966 243.329293 
L 221.4778 244.812295 
L 228.800635 244.988338 
L 236.123469 247.1676 
L 243.446304 248.366175 
L 250.769139 249.947023 
L 258.091973 251.024783 
L 265.414808 251.37331 
L 272.737643 251.592119 
L 280.060477 252.630582 
L 287.383312 253.07181 
L 294.706147 254.485537 
L 302.028981 254.690081 
L 309.351816 255.627546 
L 316.674651 257.119707 
L 323.997485 257.59127 
L 331.32032 258.657312 
L 338.643155 259.497734 
L 345.965989 260.225163 
L 353.288824 261.824697 
L 360.611658 262.419702 
L 367.934493 261.172175 
L 375.257328 264.423913 
L 382.580162 265.808187 
L 389.902997 266.848107 
L 397.225832 267.541028 
L 404.548666 268.059352 
L 411.871501 268.472445 
L 419.194336 269.078652 
L 426.51717 269.416512 
L 433.840005 269.218422 
L 441.16284 267.58315 
L 448.485674 259.150903 
L 455.808509 267.436837 
L 463.131344 266.885759 
L 470.454178 265.126796 
L 477.777013 264.421405 
L 485.099847 263.287525 
L 492.422682 261.807329 
L 499.745517 261.277237 
L 507.068351 261.174128 
L 514.391186 260.427308 
L 521.714021 260.536693 
L 529.036855 261.134117 
L 536.35969 261.665567 
L 543.682525 261.023443 
L 551.005359 261.167615 
L 558.328194 262.109778 
L 565.651029 263.338451 
L 572.973863 264.388602 
L 580.296698 265.974307 
L 587.619532 266.743015 
L 594.942367 268.477402 
L 602.265202 269.758992 
L 609.588036 271.328816 
L 616.910871 272.51954 
L 624.233706 272.958378 
L 631.55654 273.349037 
L 638.879375 270.843374 
" clip-path="url(#p2f0b669db8)" style="fill: none; stroke: #9467bd; stroke-width: 1.8; stroke-linecap: square"/>
   </g>
   <g id="line2d_38">
    <path d="M 82.343942 66.317881 
L 89.666777 68.538275 
L 96.989611 76.257319 
L 104.312446 79.893392 
L 111.635281 93.742494 
L 118.958115 105.581605 
L 126.28095 119.679891 
L 133.603784 135.285774 
L 140.926619 148.434213 
L 148.249454 162.005878 
L 155.572288 172.837605 
L 162.895123 182.216278 
L 170.217958 188.457029 
L 177.540792 186.397511 
L 184.863627 198.410366 
L 192.186462 203.225167 
L 199.509296 206.140552 
L 206.832131 209.453477 
L 214.154966 211.156022 
L 221.4778 213.773855 
L 228.800635 215.507885 
L 236.123469 220.359436 
L 243.446304 224.051004 
L 250.769139 227.032601 
L 258.091973 230.271145 
L 265.414808 233.076769 
L 272.737643 235.318387 
L 280.060477 237.552174 
L 287.383312 240.854491 
L 294.706147 243.309873 
L 302.028981 244.995634 
L 309.351816 247.608144 
L 316.674651 250.009359 
L 323.997485 251.709812 
L 331.32032 254.17361 
L 338.643155 257.255809 
L 345.965989 258.919553 
L 353.288824 261.459625 
L 360.611658 264.27542 
L 367.934493 265.094003 
L 375.257328 268.847481 
L 382.580162 271.544086 
L 389.902997 274.077933 
L 397.225832 275.839572 
L 404.548666 277.596363 
L 411.871501 278.048317 
L 419.194336 279.948467 
L 426.51717 281.259678 
L 433.840005 282.113781 
L 441.16284 281.963354 
L 448.485674 275.345684 
L 455.808509 282.903625 
L 463.131344 283.610146 
L 470.454178 283.546234 
L 477.777013 283.228478 
L 485.099847 282.973515 
L 492.422682 282.918654 
L 499.745517 282.934376 
L 507.068351 283.456032 
L 514.391186 283.482857 
L 521.714021 283.871465 
L 529.036855 283.922202 
L 536.35969 284.815056 
L 543.682525 284.726826 
L 551.005359 285.170592 
L 558.328194 285.970815 
L 565.651029 286.822479 
L 572.973863 287.089091 
L 580.296698 288.325555 
L 587.619532 289.117768 
L 594.942367 289.982216 
L 602.265202 290.871576 
L 609.588036 291.957985 
L 616.910871 292.512632 
L 624.233706 293.150349 
L 631.55654 293.371826 
L 638.879375 292.495373 
" clip-path="url(#p2f0b669db8)" style="fill: none; stroke: #8c564b; stroke-width: 1.8; stroke-linecap: square"/>
   </g>
   <g id="line2d_39">
    <path d="M 82.343942 82.442773 
L 89.666777 84.364078 
L 96.989611 91.98367 
L 104.312446 93.284254 
L 111.635281 107.198884 
L 118.958115 119.825678 
L 126.28095 133.036334 
L 133.603784 146.0123 
L 140.926619 158.185494 
L 148.249454 169.746394 
L 155.572288 180.51521 
L 162.895123 187.544695 
L 170.217958 194.121294 
L 177.540792 191.871874 
L 184.863627 203.680392 
L 192.186462 207.76833 
L 199.509296 210.651408 
L 206.832131 213.48702 
L 214.154966 215.273016 
L 221.4778 217.889075 
L 228.800635 218.885743 
L 236.123469 223.584269 
L 243.446304 226.677462 
L 250.769139 229.534993 
L 258.091973 232.625826 
L 265.414808 235.91254 
L 272.737643 237.644607 
L 280.060477 240.835903 
L 287.383312 242.944245 
L 294.706147 244.951252 
L 302.028981 247.239205 
L 309.351816 248.975357 
L 316.674651 251.484489 
L 323.997485 253.708818 
L 331.32032 255.404334 
L 338.643155 257.984864 
L 345.965989 260.077255 
L 353.288824 262.42458 
L 360.611658 265.114236 
L 367.934493 266.41494 
L 375.257328 270.268276 
L 382.580162 272.180331 
L 389.902997 274.297684 
L 397.225832 275.991039 
L 404.548666 277.86822 
L 411.871501 278.179303 
L 419.194336 280.491565 
L 426.51717 281.820254 
L 433.840005 282.362162 
L 441.16284 281.530712 
L 448.485674 275.240245 
L 455.808509 282.484455 
L 463.131344 283.427917 
L 470.454178 283.116536 
L 477.777013 282.612378 
L 485.099847 282.996088 
L 492.422682 282.244658 
L 499.745517 282.216891 
L 507.068351 282.896963 
L 514.391186 283.063826 
L 521.714021 283.383019 
L 529.036855 284.065074 
L 536.35969 284.395321 
L 543.682525 284.578977 
L 551.005359 284.927167 
L 558.328194 285.443142 
L 565.651029 286.215489 
L 572.973863 286.763821 
L 580.296698 288.229226 
L 587.619532 288.85076 
L 594.942367 290.234364 
L 602.265202 290.911056 
L 609.588036 291.984618 
L 616.910871 292.795478 
L 624.233706 293.288191 
L 631.55654 293.529395 
L 638.879375 292.254541 
" clip-path="url(#p2f0b669db8)" style="fill: none; stroke: #e377c2; stroke-width: 1.8; stroke-linecap: square"/>
   </g>
   <g id="line2d_40">
    <path d="M 82.343942 216.652006 
L 89.666777 221.34854 
L 96.989611 226.025703 
L 104.312446 229.314478 
L 111.635281 234.353532 
L 118.958115 238.701202 
L 126.28095 242.942371 
L 133.603784 245.873836 
L 140.926619 249.60491 
L 148.249454 252.368471 
L 155.572288 254.742602 
L 162.895123 258.64379 
L 170.217958 261.152368 
L 177.540792 258.92673 
L 184.863627 265.160165 
L 192.186462 268.615714 
L 199.509296 271.289222 
L 206.832131 273.938887 
L 214.154966 275.163644 
L 221.4778 276.904662 
L 228.800635 279.111256 
L 236.123469 281.398992 
L 243.446304 283.038745 
L 250.769139 284.30035 
L 258.091973 286.460836 
L 265.414808 288.28373 
L 272.737643 289.371696 
L 280.060477 291.179314 
L 287.383312 292.473737 
L 294.706147 293.634587 
L 302.028981 294.831219 
L 309.351816 295.550662 
L 316.674651 296.277937 
L 323.997485 297.438801 
L 331.32032 298.286451 
L 338.643155 298.654452 
L 345.965989 299.377078 
L 353.288824 299.918863 
L 360.611658 300.13855 
L 367.934493 297.514168 
L 375.257328 299.911958 
L 382.580162 301.789079 
L 389.902997 302.507025 
L 397.225832 303.180812 
L 404.548666 303.789795 
L 411.871501 304.244104 
L 419.194336 304.494423 
L 426.51717 305.209946 
L 433.840005 305.495676 
L 441.16284 306.027022 
L 448.485674 306.733949 
L 455.808509 306.838829 
L 463.131344 307.318714 
L 470.454178 307.897535 
L 477.777013 308.390545 
L 485.099847 308.478711 
L 492.422682 309.027162 
L 499.745517 309.180791 
L 507.068351 309.522646 
L 514.391186 309.832734 
L 521.714021 310.254352 
L 529.036855 310.524053 
L 536.35969 310.801619 
L 543.682525 311.152565 
L 551.005359 311.687772 
L 558.328194 311.988214 
L 565.651029 312.579873 
L 572.973863 313.188464 
L 580.296698 313.421549 
L 587.619532 313.845641 
L 594.942367 314.338191 
L 602.265202 314.780013 
L 609.588036 315.018868 
L 616.910871 315.337223 
L 624.233706 315.692744 
L 631.55654 315.588712 
L 638.879375 314.497307 
" clip-path="url(#p2f0b669db8)" style="fill: none; stroke: #7f7f7f; stroke-width: 1.8; stroke-linecap: square"/>
   </g>
   <g id="patch_3">
    <path d="M 80.879375 372.439219 
L 80.879375 39.799219 
" style="fill: none; stroke: #000000; stroke-width: 0.8; stroke-linejoin: miter; stroke-linecap: square"/>
   </g>
   <g id="patch_4">
    <path d="M 638.879375 372.439219 
L 638.879375 39.799219 
" style="fill: none; stroke: #000000; stroke-width: 0.8; stroke-linejoin: miter; stroke-linecap: square"/>
   </g>
   <g id="patch_5">
    <path d="M 80.879375 372.439219 
L 638.879375 372.439219 
" style="fill: none; stroke: #000000; stroke-width: 0.8; stroke-linejoin: miter; stroke-linecap: square"/>
   </g>
   <g id="patch_6">
    <path d="M 80.879375 39.799219 
L 638.879375 39.799219 
" style="fill: none; stroke: #000000; stroke-width: 0.8; stroke-linejoin: miter; stroke-linecap: square"/>
   </g>
   <g id="legend_1">
    <g id="patch_7">
     <path d="M 544.545 165.224219 
L 631.879375 165.224219 
Q 633.879375 165.224219 633.879375 163.224219 
L 633.879375 46.799219 
Q 633.879375 44.799219 631.879375 44.799219 
L 544.545 44.799219 
Q 542.545 44.799219 542.545 46.799219 
L 542.545 163.224219 
Q 542.545 165.224219 544.545 165.224219 
z
" style="fill: #ffffff; opacity: 0.8; stroke: #cccccc; stroke-linejoin: miter"/>
    </g>
    <g id="line2d_41">
     <path d="M 546.545 52.897656 
L 556.545 52.897656 
L 566.545 52.897656 
" style="fill: none; stroke: #1f77b4; stroke-width: 1.8; stroke-linecap: square"/>
    </g>
    <g id="text_19">
     <!-- ADM -->
     <g transform="translate(574.545 56.397656) scale(0.1 -0.1)">
      <defs>
       <path id="DejaVuSans-41" d="M 2188 4044 
L 1331 1722 
L 3047 1722 
L 2188 4044 
z
M 1831 4666 
L 2547 4666 
L 4325 0 
L 3669 0 
L 3244 1197 
L 1141 1197 
L 716 0 
L 50 0 
L 1831 4666 
z
" transform="scale(0.015625)"/>
       <path id="DejaVuSans-4d" d="M 628 4666 
L 1569 4666 
L 2759 1491 
L 3956 4666 
L 4897 4666 
L 4897 0 
L 4281 0 
L 4281 4097 
L 3078 897 
L 2444 897 
L 1241 4097 
L 1241 0 
L 628 0 
L 628 4666 
z
" transform="scale(0.015625)"/>
      </defs>
      <use xlink:href="#DejaVuSans-41"/>
      <use xlink:href="#DejaVuSans-44" x="68.408203"/>
      <use xlink:href="#DejaVuSans-4d" x="145.410156"/>
     </g>
    </g>
    <g id="line2d_42">
     <path d="M 546.545 67.575781 
L 556.545 67.575781 
L 566.545 67.575781 
" style="fill: none; stroke: #ff7f0e; stroke-width: 1.8; stroke-linecap: square"/>
    </g>
    <g id="text_20">
     <!-- BigGAN -->
     <g transform="translate(574.545 71.075781) scale(0.1 -0.1)">
      <defs>
       <path id="DejaVuSans-42" d="M 1259 2228 
L 1259 519 
L 2272 519 
Q 2781 519 3026 730 
Q 3272 941 3272 1375 
Q 3272 1813 3026 2020 
Q 2781 2228 2272 2228 
L 1259 2228 
z
M 1259 4147 
L 1259 2741 
L 2194 2741 
Q 2656 2741 2882 2914 
Q 3109 3088 3109 3444 
Q 3109 3797 2882 3972 
Q 2656 4147 2194 4147 
L 1259 4147 
z
M 628 4666 
L 2241 4666 
Q 2963 4666 3353 4366 
Q 3744 4066 3744 3513 
Q 3744 3084 3544 2831 
Q 3344 2578 2956 2516 
Q 3422 2416 3680 2098 
Q 3938 1781 3938 1306 
Q 3938 681 3513 340 
Q 3088 0 2303 0 
L 628 0 
L 628 4666 
z
" transform="scale(0.015625)"/>
       <path id="DejaVuSans-67" d="M 2906 1791 
Q 2906 2416 2648 2759 
Q 2391 3103 1925 3103 
Q 1463 3103 1205 2759 
Q 947 2416 947 1791 
Q 947 1169 1205 825 
Q 1463 481 1925 481 
Q 2391 481 2648 825 
Q 2906 1169 2906 1791 
z
M 3481 434 
Q 3481 -459 3084 -895 
Q 2688 -1331 1869 -1331 
Q 1566 -1331 1297 -1286 
Q 1028 -1241 775 -1147 
L 775 -588 
Q 1028 -725 1275 -790 
Q 1522 -856 1778 -856 
Q 2344 -856 2625 -561 
Q 2906 -266 2906 331 
L 2906 616 
Q 2728 306 2450 153 
Q 2172 0 1784 0 
Q 1141 0 747 490 
Q 353 981 353 1791 
Q 353 2603 747 3093 
Q 1141 3584 1784 3584 
Q 2172 3584 2450 3431 
Q 2728 3278 2906 2969 
L 2906 3500 
L 3481 3500 
L 3481 434 
z
" transform="scale(0.015625)"/>
       <path id="DejaVuSans-47" d="M 3809 666 
L 3809 1919 
L 2778 1919 
L 2778 2438 
L 4434 2438 
L 4434 434 
Q 4069 175 3628 42 
Q 3188 -91 2688 -91 
Q 1594 -91 976 548 
Q 359 1188 359 2328 
Q 359 3472 976 4111 
Q 1594 4750 2688 4750 
Q 3144 4750 3555 4637 
Q 3966 4525 4313 4306 
L 4313 3634 
Q 3963 3931 3569 4081 
Q 3175 4231 2741 4231 
Q 1884 4231 1454 3753 
Q 1025 3275 1025 2328 
Q 1025 1384 1454 906 
Q 1884 428 2741 428 
Q 3075 428 3337 486 
Q 3600 544 3809 666 
z
" transform="scale(0.015625)"/>
       <path id="DejaVuSans-4e" d="M 628 4666 
L 1478 4666 
L 3547 763 
L 3547 4666 
L 4159 4666 
L 4159 0 
L 3309 0 
L 1241 3903 
L 1241 0 
L 628 0 
L 628 4666 
z
" transform="scale(0.015625)"/>
      </defs>
      <use xlink:href="#DejaVuSans-42"/>
      <use xlink:href="#DejaVuSans-69" x="68.603516"/>
      <use xlink:href="#DejaVuSans-67" x="96.386719"/>
      <use xlink:href="#DejaVuSans-47" x="159.863281"/>
      <use xlink:href="#DejaVuSans-41" x="237.353516"/>
      <use xlink:href="#DejaVuSans-4e" x="305.761719"/>
     </g>
    </g>
    <g id="line2d_43">
     <path d="M 546.545 82.253906 
L 556.545 82.253906 
L 566.545 82.253906 
" style="fill: none; stroke: #2ca02c; stroke-width: 1.8; stroke-linecap: square"/>
    </g>
    <g id="text_21">
     <!-- VQDM -->
     <g transform="translate(574.545 85.753906) scale(0.1 -0.1)">
      <defs>
       <path id="DejaVuSans-56" d="M 1831 0 
L 50 4666 
L 709 4666 
L 2188 738 
L 3669 4666 
L 4325 4666 
L 2547 0 
L 1831 0 
z
" transform="scale(0.015625)"/>
       <path id="DejaVuSans-51" d="M 2522 4238 
Q 1834 4238 1429 3725 
Q 1025 3213 1025 2328 
Q 1025 1447 1429 934 
Q 1834 422 2522 422 
Q 3209 422 3611 934 
Q 4013 1447 4013 2328 
Q 4013 3213 3611 3725 
Q 3209 4238 2522 4238 
z
M 3406 84 
L 4238 -825 
L 3475 -825 
L 2784 -78 
Q 2681 -84 2626 -87 
Q 2572 -91 2522 -91 
Q 1538 -91 948 567 
Q 359 1225 359 2328 
Q 359 3434 948 4092 
Q 1538 4750 2522 4750 
Q 3503 4750 4090 4092 
Q 4678 3434 4678 2328 
Q 4678 1516 4351 937 
Q 4025 359 3406 84 
z
" transform="scale(0.015625)"/>
      </defs>
      <use xlink:href="#DejaVuSans-56"/>
      <use xlink:href="#DejaVuSans-51" x="68.408203"/>
      <use xlink:href="#DejaVuSans-44" x="147.119141"/>
      <use xlink:href="#DejaVuSans-4d" x="224.121094"/>
     </g>
    </g>
    <g id="line2d_44">
     <path d="M 546.545 96.932031 
L 556.545 96.932031 
L 566.545 96.932031 
" style="fill: none; stroke: #d62728; stroke-width: 1.8; stroke-linecap: square"/>
    </g>
    <g id="text_22">
     <!-- Glide -->
     <g transform="translate(574.545 100.432031) scale(0.1 -0.1)">
      <defs>
       <path id="DejaVuSans-6c" d="M 603 4863 
L 1178 4863 
L 1178 0 
L 603 0 
L 603 4863 
z
" transform="scale(0.015625)"/>
       <path id="DejaVuSans-64" d="M 2906 2969 
L 2906 4863 
L 3481 4863 
L 3481 0 
L 2906 0 
L 2906 525 
Q 2725 213 2448 61 
Q 2172 -91 1784 -91 
Q 1150 -91 751 415 
Q 353 922 353 1747 
Q 353 2572 751 3078 
Q 1150 3584 1784 3584 
Q 2172 3584 2448 3432 
Q 2725 3281 2906 2969 
z
M 947 1747 
Q 947 1113 1208 752 
Q 1469 391 1925 391 
Q 2381 391 2643 752 
Q 2906 1113 2906 1747 
Q 2906 2381 2643 2742 
Q 2381 3103 1925 3103 
Q 1469 3103 1208 2742 
Q 947 2381 947 1747 
z
" transform="scale(0.015625)"/>
      </defs>
      <use xlink:href="#DejaVuSans-47"/>
      <use xlink:href="#DejaVuSans-6c" x="77.490234"/>
      <use xlink:href="#DejaVuSans-69" x="105.273438"/>
      <use xlink:href="#DejaVuSans-64" x="133.056641"/>
      <use xlink:href="#DejaVuSans-65" x="196.533203"/>
     </g>
    </g>
    <g id="line2d_45">
     <path d="M 546.545 111.610156 
L 556.545 111.610156 
L 566.545 111.610156 
" style="fill: none; stroke: #9467bd; stroke-width: 1.8; stroke-linecap: square"/>
    </g>
    <g id="text_23">
     <!-- Wukong -->
     <g transform="translate(574.545 115.110156) scale(0.1 -0.1)">
      <defs>
       <path id="DejaVuSans-57" d="M 213 4666 
L 850 4666 
L 1831 722 
L 2809 4666 
L 3519 4666 
L 4500 722 
L 5478 4666 
L 6119 4666 
L 4947 0 
L 4153 0 
L 3169 4050 
L 2175 0 
L 1381 0 
L 213 4666 
z
" transform="scale(0.015625)"/>
       <path id="DejaVuSans-6b" d="M 581 4863 
L 1159 4863 
L 1159 1991 
L 2875 3500 
L 3609 3500 
L 1753 1863 
L 3688 0 
L 2938 0 
L 1159 1709 
L 1159 0 
L 581 0 
L 581 4863 
z
" transform="scale(0.015625)"/>
      </defs>
      <use xlink:href="#DejaVuSans-57"/>
      <use xlink:href="#DejaVuSans-75" x="95.251953"/>
      <use xlink:href="#DejaVuSans-6b" x="158.630859"/>
      <use xlink:href="#DejaVuSans-6f" x="212.916016"/>
      <use xlink:href="#DejaVuSans-6e" x="274.097656"/>
      <use xlink:href="#DejaVuSans-67" x="337.476562"/>
     </g>
    </g>
    <g id="line2d_46">
     <path d="M 546.545 126.288281 
L 556.545 126.288281 
L 566.545 126.288281 
" style="fill: none; stroke: #8c564b; stroke-width: 1.8; stroke-linecap: square"/>
    </g>
    <g id="text_24">
     <!-- SD14 -->
     <g transform="translate(574.545 129.788281) scale(0.1 -0.1)">
      <defs>
       <path id="DejaVuSans-53" d="M 3425 4513 
L 3425 3897 
Q 3066 4069 2747 4153 
Q 2428 4238 2131 4238 
Q 1616 4238 1336 4038 
Q 1056 3838 1056 3469 
Q 1056 3159 1242 3001 
Q 1428 2844 1947 2747 
L 2328 2669 
Q 3034 2534 3370 2195 
Q 3706 1856 3706 1288 
Q 3706 609 3251 259 
Q 2797 -91 1919 -91 
Q 1588 -91 1214 -16 
Q 841 59 441 206 
L 441 856 
Q 825 641 1194 531 
Q 1563 422 1919 422 
Q 2459 422 2753 634 
Q 3047 847 3047 1241 
Q 3047 1584 2836 1778 
Q 2625 1972 2144 2069 
L 1759 2144 
Q 1053 2284 737 2584 
Q 422 2884 422 3419 
Q 422 4038 858 4394 
Q 1294 4750 2059 4750 
Q 2388 4750 2728 4690 
Q 3069 4631 3425 4513 
z
" transform="scale(0.015625)"/>
      </defs>
      <use xlink:href="#DejaVuSans-53"/>
      <use xlink:href="#DejaVuSans-44" x="63.476562"/>
      <use xlink:href="#DejaVuSans-31" x="140.478516"/>
      <use xlink:href="#DejaVuSans-34" x="204.101562"/>
     </g>
    </g>
    <g id="line2d_47">
     <path d="M 546.545 140.966406 
L 556.545 140.966406 
L 566.545 140.966406 
" style="fill: none; stroke: #e377c2; stroke-width: 1.8; stroke-linecap: square"/>
    </g>
    <g id="text_25">
     <!-- SD15 -->
     <g transform="translate(574.545 144.466406) scale(0.1 -0.1)">
      <use xlink:href="#DejaVuSans-53"/>
      <use xlink:href="#DejaVuSans-44" x="63.476562"/>
      <use xlink:href="#DejaVuSans-31" x="140.478516"/>
      <use xlink:href="#DejaVuSans-35" x="204.101562"/>
     </g>
    </g>
    <g id="line2d_48">
     <path d="M 546.545 155.644531 
L 556.545 155.644531 
L 566.545 155.644531 
" style="fill: none; stroke: #7f7f7f; stroke-width: 1.8; stroke-linecap: square"/>
    </g>
    <g id="text_26">
     <!-- Midjourney -->
     <g transform="translate(574.545 159.144531) scale(0.1 -0.1)">
      <defs>
       <path id="DejaVuSans-6a" d="M 603 3500 
L 1178 3500 
L 1178 -63 
Q 1178 -731 923 -1031 
Q 669 -1331 103 -1331 
L -116 -1331 
L -116 -844 
L 38 -844 
Q 366 -844 484 -692 
Q 603 -541 603 -63 
L 603 3500 
z
M 603 4863 
L 1178 4863 
L 1178 4134 
L 603 4134 
L 603 4863 
z
" transform="scale(0.015625)"/>
      </defs>
      <use xlink:href="#DejaVuSans-4d"/>
      <use xlink:href="#DejaVuSans-69" x="86.279297"/>
      <use xlink:href="#DejaVuSans-64" x="114.0625"/>
      <use xlink:href="#DejaVuSans-6a" x="177.539062"/>
      <use xlink:href="#DejaVuSans-6f" x="205.322266"/>
      <use xlink:href="#DejaVuSans-75" x="266.503906"/>
      <use xlink:href="#DejaVuSans-72" x="329.882812"/>
      <use xlink:href="#DejaVuSans-6e" x="369.246094"/>
      <use xlink:href="#DejaVuSans-65" x="432.625"/>
      <use xlink:href="#DejaVuSans-79" x="494.148438"/>
     </g>
    </g>
   </g>
  </g>
 </g>
 <defs>
  <clipPath id="p2f0b669db8">
   <rect x="80.879375" y="39.799219" width="558" height="332.64"/>
  </clipPath>
 </defs>
</svg>
